<svg xmlns="http://www.w3.org/2000/svg" viewBox="0 0 1080 1080"><g data-name="Error 404"><path fill="#e65c39" d="M565.72 290.74V331h-518v-40.26a20 20 0 0 1 20-20h478a20 20 0 0 1 20 20Z"/><path fill="#7bbfa4" d="M565.72 677.17v2a18 18 0 0 1-18 18h-2a20 20 0 0 0 20-20Z"/><path fill="#ffc804" d="M565.72 331v346.17a20 20 0 0 1-20 20h-478a20 20 0 0 1-20-20V331Z"/><path fill="#fff" d="m206.69 593.55-51.38-36.09 11.51-16.39 39.87 28 45.62-32.05 45.62 32.05 45.63-32.05 45.63 32.05 39.87-28.01 11.51 16.4-51.38 36.09-45.63-32.05-45.63 32.05-45.62-32.05-45.62 32.05z"/><path fill="#fff" d="M145.93 419.71h82.43v20.03h-82.43z" transform="rotate(-45 187.13 429.708)"/><path fill="#fff" d="M177.13 388.51h20.03v82.43h-20.03z" transform="rotate(-45 187.15 429.73)"/><path fill="#fff" d="M367.52 419.71h82.43v20.03h-82.43z" transform="rotate(-45 408.705 429.719)"/><path fill="#fff" d="M398.72 388.51h20.03v82.43h-20.03z" transform="rotate(-45 408.742 429.734)"/><circle cx="93.19" cy="303.54" r="8.53" fill="#fff"/><circle cx="125.1" cy="303.54" r="8.53" fill="#fff"/><circle cx="157.01" cy="303.54" r="8.53" fill="#fff"/><path fill="#fff" d="M522.3 307.89H287a6.44 6.44 0 1 1 0-12.89h235.3a6.44 6.44 0 1 1 0 12.88ZM629 892.57c-11.75 4.23-25.52 6.17-37.42-.2-43.11-23.1-101.13-181.32-101.13-181.32-21.91-.95-36.32-30.05-36.32-30.05s-8.79 2.14-12-.94c-7.71-7.4 2.82-11.55 2.82-11.55s-13.08.9-13.6-6.67c-.34-5 6.14-10.49 14.57-11.93-5.5-1.35-14.47-4.76-13-9.24 1.16-3.59 10.54-12.2 26.71-2.93-9.86-8.82-21.13-21-13-24.75 13.23-6.05 58.76 31.15 86.47 65.4 16.64 20.57 46.35 67.26 68.75 103.27 14.78 7.48 36.74 13.3 64 11.33l-8.73 85ZM1005.93 847.51c-55.75-.19-82.22-2.63-106.22-16.9-32.91-36.71-64.25-66.68-87.8-108.36 0 0 0-57.78-8.08-58.12s-15.39 28.51-15.39 28.51S765.21 634.92 757 638s2.53 40.08 2.53 40.08-15-35.38-24.51-31.81 5.42 39.67 5.42 39.67-14.47-26.77-22.2-23.87 11.1 37.88 11.1 37.88-12.89-16.69-18.72-14.15 31 63 31 63 105.46 198.59 169 200.9c43.46 1.58 72.9-47.27 87.16-78.28Z"/><path fill="#59c5d0" d="m1018.67 844.46-.31 1.46c-28.23 2.15-58.2 2-85.86-3.5-20.68-4.08-31.29-9.54-32.4-12.88l-.16-.48-.25 1.51c-34.51-38.24-64.49-67.27-87.78-108.31 0-7.49-.51-57.8-8.08-58.13-7.46.11-13.44 21.56-15.45 28.27-3.25-7.7-23.7-57.26-31.35-54.42-5.16 1.93-2.46 17.82-1.42 23.26l-3.71 1.36c-2.81-4.9-9.72-16.62-15.43-16.62-7.69 0-3.79 16.33-1.68 23.69l-3.51 1.76c-2.68-3.52-8.89-10.92-13-9.38-5.39 2 2.62 20.32 5 25.54l-3.12 2.35c-2.27-2-6.74-5.35-9.49-4.16-5.57 2.43 27.86 57.79 31 63 .21.36 26.8 50.3 60.71 99.67 45.52 66.27 82 100.35 108.29 101.31 29.43.85 52.64-21.14 69-45.49l3.82-5.7c-1.54 65.29-3.5 104.34-3.53 121.63-9.33 16.27-306.17 18.94-334.39-11.77 2.81-42.8 3.21-58.43 7.32-96.58 4.83-44.8 10.63-86.48 14.23-119 0 .32-.07.65-.11 1a85.12 85.12 0 0 1-8.7.45c-17.9 0-42-3-57.38-13.81C609.16 750.15 650 624.22 675.5 606c28.21-20.13 75.5-29.64 110.35-33-1.19 8.13-2 16.17-.8 24.39 1.41 9.79 5.31 15.42 11.59 16.73 23.28 4.89 51.2-20.74 66.1-39.12v-1.36c42 1.13 122 10.3 146 44.75 27.35 39.16 31.26 127.92 9.93 226.07Z"/><path fill="#5e1776" d="M979.92 1022.14a2 2 0 0 1-2-2c0-8 .52-23.13 1.17-42.28.45-12.94.95-27.61 1.43-43.84a2 2 0 0 1 4 .12c-.48 16.24-1 30.91-1.43 43.86-.65 19.11-1.17 34.2-1.17 42.14a2 2 0 0 1-2 2ZM645.53 1010.38h-.25a2 2 0 0 1-1.74-2.24c.3-2.34.62-7.92 1.1-16.36.86-15 2.3-40.18 5.11-71.36 3.17-35.14 8.67-79.86 15.65-136.48 4.06-33 8.66-70.33 13.49-111.55a2 2 0 0 1 4 .47c-4.84 41.23-9.44 78.6-13.5 111.57-7 56.58-12.48 101.27-15.64 136.35-2.8 31.12-4.24 56.23-5.09 71.23-.49 8.52-.81 14.15-1.13 16.64a2 2 0 0 1-2 1.73ZM986.84 849.2c-46.85 0-78.57-8.87-86.73-16.39a5.56 5.56 0 0 1-2.13-4 1.77 1.77 0 0 1 0-.32c8.31-51.64 13.63-95.54 17.34-128a2 2 0 0 1 4 .45c-3.7 32.47-9 76.33-17.32 127.95.51 1.59 8.52 7.15 30.9 11.56 16.7 3.29 44.74 6.56 83.82 3.58 21.21-97.68 17.48-185.72-9.57-224.56-29.08-41.75-134.2-42.58-135.26-42.59a2 2 0 0 1 0-4 376.68 376.68 0 0 1 57.53 5.59c41 7.36 68.23 20.39 81 38.72 27.79 39.9 31.67 129.85 9.88 229.15a2 2 0 0 1-1.79 1.56c-11.18.91-21.77 1.3-31.67 1.3Zm31.51-3.28Z"/><path fill="#5e1776" d="M912.69 951.75h-2.12c-27-1-64-35.36-109.87-102.18-33.48-48.78-59.7-97.88-60.7-99.77-.57-.93-8.77-14.45-16.62-28.6-16.75-30.21-15.6-33.84-15.11-35.39a3 3 0 0 1 1.63-1.87c3.29-1.43 7.63 1.06 11.59 4.47-4.16-9.15-8.4-20.52-6.55-25.44a4.53 4.53 0 0 1 2.68-2.79c4.68-1.76 10.43 3.64 15.3 10-2.38-8.28-4.13-17.51-2-22.35a6.22 6.22 0 0 1 3.51-3.5c5.06-1.89 11 3.15 18.24 15.43.36.61.71 1.21 1 1.81-.13-.69-.26-1.4-.38-2.1-2.45-14.26-1.47-21.7 3.07-23.4 3.37-1.26 8.53 1 21.27 27.17 4.25 8.75 8.14 17.71 10.46 23.22 2.88-9.59 8.57-24.69 15.86-24.37 6 .26 7.87 15.08 9 31 .89 12.84 1 25.8 1 28.54 18.69 32.94 42.55 58.82 67.8 86.21 15.57 16.89 31.68 34.36 47.82 54.71a2 2 0 0 1-3.14 2.49c-16-20.24-32.1-37.65-47.62-54.49-25.53-27.69-49.64-53.84-68.6-87.4a2 2 0 0 1-.26-1c0-.13 0-13.77-.92-27.62-1.75-26.63-5.18-28.45-5.33-28.52-3.07-.13-9 10.17-13.28 27a2 2 0 0 1-3.8.25c-.05-.14-5.6-13.89-12.13-27.41-12.53-26-16.6-26.13-16.75-26.11-3.07 1.16-2.31 16.57 3.78 37.65a2 2 0 0 1-3.76 1.33c-6.86-16.16-17.21-32.5-22-30.72a2.18 2.18 0 0 0-1.24 1.34c-2.92 6.72 4.65 28 7.81 35.69a2 2 0 0 1-3.61 1.72c-6.59-12.19-16.09-24.32-19.73-23-.08 0-.21.08-.35.45-1.83 4.89 6.7 23.82 12.5 34.61a2 2 0 0 1-.67 2.63 2 2 0 0 1-2.67-.46c-5.41-7-12.75-13.74-15.79-13.66.1 5.67 15.73 34.58 31.39 60.28l.06.1c1 2 105.63 197.6 167.26 199.84 42.61 1.56 71.72-47.65 85.28-77.11a2 2 0 0 1 3.63 1.67c-13.76 30.06-43.18 79.65-86.94 79.65Z"/><path fill="#5e1776" d="M651.67 796.14h-.1c-28.2-1.41-50.69-13.48-51.64-14a2 2 0 0 1-1-2.33c1.9-6.32 46.73-154.95 75.36-175.4 38.78-27.71 92-32.33 92.56-32.37a2 2 0 1 1 .33 4c-.53 0-52.7 4.58-90.56 31.63-26 18.58-68.36 155.3-73.37 171.7 5.39 2.65 25.18 11.62 48.48 12.79a2 2 0 0 1-.1 4ZM608.81 898.49a38 38 0 0 1-18.17-4.36C548.89 871.76 494.92 728.82 489 713c-9.09-.85-18.21-6.35-26.47-16a82.65 82.65 0 0 1-9.5-13.71c-3 .53-9.24 1.2-12.32-1.76-2.72-2.61-3.83-5.28-3.31-7.92a7.47 7.47 0 0 1 1.7-3.38c-.4-.07-.8-.14-1.21-.23-7.08-1.53-8.4-5.67-8.56-8-.32-4.67 3.79-9.42 9.88-12.13-3.13-1.28-6.42-3.14-7.79-5.6a5.16 5.16 0 0 1-.46-4.19c.73-2.27 3.55-5.5 8-7.23s11.67-2.52 21.59 3.17a2 2 0 0 1-2 3.47c-8.55-4.9-14.6-4.29-18.16-2.91s-5.34 3.78-5.64 4.72a1.17 1.17 0 0 0 .14 1c1.09 1.94 5.8 4.27 11.45 5.67a2 2 0 0 1-.14 3.91c-7.91 1.35-13.14 6.26-12.9 9.82.37 5.4 11.36 4.82 11.47 4.82a2 2 0 0 1 .86 3.85c-1 .4-3.94 2-4.33 4-.24 1.22.49 2.65 2.16 4.25s6.93 1.22 10.15.44a2 2 0 0 1 2.26 1.06c.14.28 14.16 28.07 34.63 28.95a2 2 0 0 1 1.79 1.31c.57 1.57 58.25 157.77 100.19 180.24 9.61 5.15 21.65 5.18 35.8.09a2 2 0 1 1 1.36 3.76 62.12 62.12 0 0 1-20.83 4.02Z"/><path fill="#5e1776" d="M630.84 830.48a2 2 0 0 1-1.66-.89c-1.32-2-5.06-8.05-10.72-17.24-21.14-34.35-65.13-105.77-86.93-132.71-29.07-35.94-73.07-69.87-84.08-64.84-1.32.6-1.55 1.32-1.61 1.87-.36 3.28 6.58 14.09 26.67 29.13a2 2 0 0 1-1 3.59c-8.16.72-19.47 3.56-19.47 7.05 0 2.37 5.55 7.51 17.89 11.51a2 2 0 0 1 1.39 1.95 18.79 18.79 0 0 0 2.3 7.7c2.14 4.24 6.78 10.59 16.67 16.79a2 2 0 1 1-2.12 3.39c-17.24-10.8-20.24-22.37-20.75-26.45-5.2-1.81-19.38-7.43-19.38-14.89 0-4.07 4-7.06 12.15-9.15 2.17-.56 4.33-1 6.15-1.26-2.76-2.21-6.66-5.46-10.49-9-9.91-9.25-14.48-16-14-20.75a6.18 6.18 0 0 1 3.93-5.09c15.57-7.12 63.79 35 88.85 66 22 27.15 66 98.73 87.23 133.13 5.43 8.83 9.36 15.2 10.64 17.12a2 2 0 0 1-.56 2.77 2 2 0 0 1-1.1.27Z"/><path fill="#5e1776" d="M608.81 898.49a38 38 0 0 1-18.17-4.36C548.89 871.76 494.92 728.82 489 713c-9.09-.85-18.21-6.35-26.47-16a82.65 82.65 0 0 1-9.5-13.71c-3 .53-9.24 1.2-12.32-1.76-2.72-2.61-3.83-5.28-3.31-7.92a7.47 7.47 0 0 1 1.7-3.38c-.4-.07-.8-.14-1.21-.23-7.08-1.53-8.4-5.67-8.56-8-.32-4.67 3.79-9.42 9.88-12.13-3.13-1.28-6.42-3.14-7.79-5.6a5.16 5.16 0 0 1-.46-4.19c.73-2.27 3.55-5.5 8-7.23s11.67-2.52 21.59 3.17a2 2 0 0 1-2 3.47c-8.55-4.9-14.6-4.29-18.16-2.91s-5.34 3.78-5.64 4.72a1.17 1.17 0 0 0 .14 1c1.09 1.94 5.8 4.27 11.45 5.67a2 2 0 0 1-.14 3.91c-7.91 1.35-13.14 6.26-12.9 9.82.37 5.4 11.36 4.82 11.47 4.82a2 2 0 0 1 .86 3.85c-1 .4-3.94 2-4.33 4-.24 1.22.49 2.65 2.16 4.25s6.93 1.22 10.15.44a2 2 0 0 1 2.26 1.06c.14.28 14.16 28.07 34.63 28.95a2 2 0 0 1 1.79 1.31c.57 1.57 58.25 157.77 100.19 180.24 9.61 5.15 21.65 5.18 35.8.09a2 2 0 1 1 1.36 3.76 62.12 62.12 0 0 1-20.83 4.02Z"/><path fill="#5e1776" d="M630.84 830.48a2 2 0 0 1-1.66-.89c-1.32-2-5.06-8.05-10.72-17.24-21.14-34.35-65.13-105.77-86.93-132.71-29.07-35.94-73.07-69.87-84.08-64.84-1.32.6-1.55 1.32-1.61 1.87-.36 3.28 6.58 14.09 26.67 29.13a2 2 0 0 1-1 3.59c-8.16.72-19.47 3.56-19.47 7.05 0 2.37 5.55 7.51 17.89 11.51a2 2 0 0 1 1.39 1.95 18.79 18.79 0 0 0 2.3 7.7c2.14 4.24 6.78 10.59 16.67 16.79a2 2 0 1 1-2.12 3.39c-17.24-10.8-20.24-22.37-20.75-26.45-5.2-1.81-19.38-7.43-19.38-14.89 0-4.07 4-7.06 12.15-9.15 2.17-.56 4.33-1 6.15-1.26-2.76-2.21-6.66-5.46-10.49-9-9.91-9.25-14.48-16-14-20.75a6.18 6.18 0 0 1 3.93-5.09c15.57-7.12 63.79 35 88.85 66 22 27.15 66 98.73 87.23 133.13 5.43 8.83 9.36 15.2 10.64 17.12a2 2 0 0 1-.56 2.77 2 2 0 0 1-1.1.27Z"/><path fill="#e65c39" d="M285.68 833H68.92A20.67 20.67 0 0 1 51 802l108.39-187.73a20.68 20.68 0 0 1 35.81 0L303.59 802a20.67 20.67 0 0 1-17.91 31Z"/><path fill="#fff" d="M285.68 822.29H68.92a10 10 0 0 1-8.63-14.94l108.38-187.72a10 10 0 0 1 17.25 0l108.39 187.72a10 10 0 0 1-8.63 14.94ZM173 622.1 64.57 809.82a5 5 0 0 0 4.35 7.53h216.76a5 5 0 0 0 4.35-7.53L181.64 622.1a5 5 0 0 0-8.64 0Z"/><path fill="#fff" d="M177.3 767.88a7.35 7.35 0 0 1-7.33-7l-4.17-79a7.35 7.35 0 0 1 7.33-7.73h8.34a7.34 7.34 0 0 1 7.33 7.73l-4.17 79a7.34 7.34 0 0 1-7.33 7Z"/><circle cx="177.3" cy="788.22" r="8.89" fill="#fff"/><path fill="#59c5d0" d="M513.2 96.16h7.72v66.19h-7.72z"/><path fill="#59c5d0" d="M501.37 111.85h7.72v42.53h-7.72z" transform="rotate(-90 505.235 133.115)"/><path fill="#59c5d0" d="M489.6 89.33h7.72v42.53h-7.72z" transform="rotate(15.77 493.39 110.565)"/><path fill="#59c5d0" d="M625.39 96.16h7.72v66.19h-7.72z"/><path fill="#59c5d0" d="M613.56 111.85h7.72v42.53h-7.72z" transform="rotate(-90 617.42 133.12)"/><path fill="#59c5d0" d="M601.79 89.33h7.72v42.53h-7.72z" transform="rotate(15.77 605.576 110.556)"/><path fill="#59c5d0" d="M538.36 113.53v25.85a23 23 0 1 0 45.94 0v-25.85a23 23 0 1 0-45.94 0Zm7.72 25.85v-25.85a15.25 15.25 0 1 1 30.5 0v25.85a15.25 15.25 0 0 1-30.5 0Z"/><path fill="#59c5d0" d="M558.7 97.61h5.26v57.69h-5.26z" transform="rotate(26.1 561.417 126.497)"/><path fill="#59c5d0" d="M561.33 242.73a2 2 0 0 1-1.68-.91l-18.51-28.4h-69.61a22 22 0 0 1-22-22V68a22 22 0 0 1 22-22h179.6a22 22 0 0 1 22 22 2 2 0 1 1-4 0 18 18 0 0 0-18-18h-179.6a18 18 0 0 0-18 18v123.42a18 18 0 0 0 18 18h70.69a2 2 0 0 1 1.68.91l17.43 26.74 17.43-26.74a2 2 0 0 1 1.68-.91h70.69a18 18 0 0 0 18-18V96.31a2 2 0 0 1 4 0v95.11a22 22 0 0 1-22 22h-69.61L563 241.82a2 2 0 0 1-1.67.91Z"/><path fill="#fff" d="m862.42 465.64.58 109.54s-36 46.6-66.69 40.18c-17.72-3.72-10.67-40.82-10.67-40.82l4.93-50.68Z"/><path fill="#5e1776" d="M802.36 618a31.57 31.57 0 0 1-6.42-.65c-19.14-4-12.72-40.48-12.24-43.06l4.92-50.59a2 2 0 0 1 4 .38l-4.93 50.68v.18a91.79 91.79 0 0 0-1.27 18.61c.56 11.87 4.06 18.55 10.39 19.88 27.33 5.73 60.18-33.82 64.27-38.91l-.17-31.24a2 2 0 0 1 2-2 2 2 0 0 1 2 2l.18 31.94a2.06 2.06 0 0 1-.42 1.24c-1.45 1.76-32.57 41.54-62.31 41.54Z"/><path fill="#fff" d="M825.56 529.1c-23 10.2-48.86 13.88-70.56 9.12-47.93-10.52-36.76-74.68-33.16-115.3 5.89-66.51 54.64-81.07 101.49-68.32s73.74 63.77 60.08 113.94c-3.78 13.88-11.66 26.2-22.09 36.55"/><path fill="#5e1776" d="M774.92 542.29a94.82 94.82 0 0 1-20.35-2.12c-45.42-10-39.87-65.56-35.81-106.16.39-3.9.77-7.68 1.09-11.27 2.53-28.65 12.91-49.51 30.84-62 18.64-13 44.62-15.84 73.16-8.07 23.2 6.31 42.37 21.92 54 43.93s14.25 47.71 7.51 72.47c-3.72 13.64-11.32 26.24-22.61 37.44a2 2 0 1 1-2.82-2.83C870.7 493 878 481 881.48 468c6.47-23.78 3.92-48.48-7.19-69.55s-29.37-35.92-51.49-41.94c-27.38-7.46-52.18-4.79-69.82 7.49-16.91 11.78-26.72 31.66-29.15 59.08-.32 3.6-.7 7.39-1.09 11.31-2 20.37-4.34 43.46-.79 62.95 4 22.12 15 34.85 33.48 38.91 20.86 4.58 46.12 1.3 69.32-9a2 2 0 1 1 1.62 3.66 128.68 128.68 0 0 1-51.45 11.38Z"/><path fill="#5e1776" d="M750.29 484.62c-2.41 0-7.8-.48-9.71-4.65-.58-1.29-1.67-6.18 9.1-15.08a2 2 0 0 1 2.55 3.08c-4.75 3.93-8.64 8.95-8 10.34 1 2.26 5.43 2.41 6.89 2.28a2 2 0 0 1 .36 4c-.09 0-.48.03-1.19.03ZM774.33 466.29a2.07 2.07 0 0 1-.35 0 2 2 0 0 1-1.63-2.32l1.18-6.69a2 2 0 0 1 3.94.69l-1.18 6.69a2 2 0 0 1-1.96 1.63ZM734.64 459.33a2.07 2.07 0 0 1-.35 0 2 2 0 0 1-1.63-2.32l1.18-6.69a2 2 0 0 1 3.94.69l-1.18 6.7a2 2 0 0 1-1.96 1.62ZM784.23 439.77a2 2 0 0 1-1.83-1.21c-1.66-3.8-5.71-3-5.88-2.92a2 2 0 1 1-.85-3.91 9.15 9.15 0 0 1 10.39 5.27 2 2 0 0 1-1 2.63 2.05 2.05 0 0 1-.83.14ZM735.55 431.73a2 2 0 0 1-1.59-3.21 9.17 9.17 0 0 1 11.31-2.74 2 2 0 1 1-1.76 3.59c-3.72-1.82-6.26 1.44-6.37 1.58a2 2 0 0 1-1.59.78ZM757.18 515.9a4.94 4.94 0 0 1-.87-.08 6.07 6.07 0 0 1-4.42-3.89 12.52 12.52 0 0 1 2.17-12.38 6.1 6.1 0 0 1 5.48-2.17c3.71.65 5.91 5.21 5 10.38a11.67 11.67 0 0 1-2.76 5.9 6.33 6.33 0 0 1-4.6 2.24Zm1.49-14.59a2.45 2.45 0 0 0-1.66.94 8.56 8.56 0 0 0-1.43 8.13c.36.86.88 1.41 1.42 1.5a2.21 2.21 0 0 0 1.84-.93 7.84 7.84 0 0 0 1.76-3.88c.52-3-.51-5.53-1.75-5.75Z"/><ellipse cx="757.92" cy="506.6" fill="#5e1776" rx="7.36" ry="4.72" transform="rotate(-80.06 757.888 506.608)"/><path fill="#5e1776" d="M841.83 437c15.07 7.08 6.38 34.08 8.86 39.92 1.17 2.73 11.55-9.49 16.27-12.59 16.45 4.23-17.64 67.05-6.81 67.85 16 1.19 100-130.41 36.36-147.41 17.94-47.43-67.28-93.88-123.74-98.28-46.36-3.61-27.58 35.43-27.58 35.43s-41.12-4.21-67.39 29.27C629.53 412.69 821.46 401 828.69 406s-2.47 23.65 13.14 31Z"/><path fill="#5e1776" d="M860.31 534.17H860a3.91 3.91 0 0 1-3-1.75c-2.5-3.71.13-12.51 5-27.76 4.39-13.77 9.86-30.91 6.64-36.74a3.25 3.25 0 0 0-1.32-1.35c-1.6 1.23-3.76 3.29-5.86 5.29-6 5.72-8.47 7.84-10.67 7.39a2.6 2.6 0 0 1-1.88-1.56c-.94-2.21-.67-5.84-.31-10.87.72-10 1.71-23.66-7.56-28-10.41-4.89-10.77-14.54-11-21.6-.16-4.33-.3-8.06-2.4-9.52-1.63-.76-13.09-1.1-25.23-1.46-45.06-1.34-120.47-3.58-132.63-29.55-3.58-7.65-1.38-16.64 6.54-26.73 22.32-28.45 55.49-30.34 65.92-30.17-2-5.51-5.27-17.42.66-26.07 5-7.28 15.11-10.38 30.12-9.21 41 3.19 98.93 28.88 120 62 7.94 12.52 10 24.92 6.17 36.9 18.55 5.95 26 22.54 21.72 48.15-7.35 42.86-47.5 102.6-60.6 102.61Zm6.69-71.86a2.07 2.07 0 0 1 .49.07 7.12 7.12 0 0 1 4.63 3.6c4 7.33-1.22 23.88-6.33 39.88-2.85 8.95-7.17 22.48-5.47 24.33 7.71.53 48.74-52.93 56.58-99.29 4.1-24.53-2.9-39.41-20.9-44.22a2 2 0 0 1-1.27-1 2 2 0 0 1-.09-1.62c4.3-11.37 2.59-23.27-5.1-35.37-16.48-26-67.39-56.34-116.92-60.2-13.47-1.05-22.39 1.46-26.51 7.47-6.48 9.46.81 24.93.89 25.09a2 2 0 0 1-2 2.86c-.4-.05-40.36-3.67-65.62 28.51-6.9 8.81-8.94 16.4-6.06 22.56 11.12 23.74 90.82 26.11 129.12 27.25 18.84.56 25.45.82 27.4 2.17 3.74 2.6 3.92 7.49 4.12 12.66.26 7 .53 14.28 8.73 18.13 11.76 5.52 10.61 21.42 9.85 31.93a58.33 58.33 0 0 0-.27 7.56 81.39 81.39 0 0 0 6.37-5.7 64 64 0 0 1 7.23-6.32 2.05 2.05 0 0 1 1.13-.35Z"/><path fill="#fff" d="M858.87 505.52c3.42 4.34 7.86 8.1 13.6 9.67 14.27 3.88 30.18-8.1 35.24-26.68 3.88-14.26-6.44-30.6-21.31-30.25a41.57 41.57 0 0 0-19.4 6.05"/><path fill="#5e1776" d="M878 517.93a23.1 23.1 0 0 1-6.06-.81c-5.48-1.49-10.4-5-14.65-10.36a2 2 0 0 1 3.14-2.48c3.7 4.7 7.93 7.72 12.56 9 6.29 1.71 13.16.08 19.34-4.58a38.48 38.48 0 0 0 13.45-20.7 23.44 23.44 0 0 0-4.26-20.21 18.42 18.42 0 0 0-15.07-7.52A39.46 39.46 0 0 0 868 466a2 2 0 0 1-2.05-3.43 43.68 43.68 0 0 1 20.43-6.34 22.63 22.63 0 0 1 18.31 9.05 27.54 27.54 0 0 1 5 23.73 42.5 42.5 0 0 1-14.89 22.83 27.86 27.86 0 0 1-16.8 6.09Z"/><path fill="#5e1776" d="M873.15 501.06a2 2 0 0 1-.9-3.79c3.9-1.95 5.91-4.61 5.13-6.8-.68-1.87-3.53-3.36-7.48-2.44a2 2 0 0 1-2.43-2.27c1.8-11.1 8.91-13.46 13-13.88 7.48-.77 15.83 3.67 17.42 7.85a2 2 0 1 1-3.73 1.42c-.82-2.13-7.14-5.92-13.28-5.29-4.46.45-7.43 3.1-8.86 7.89 4.71-.09 8.06 2.39 9.13 5.37 1.21 3.36 0 8.2-7.1 11.73a2 2 0 0 1-.9.21Z"/><path fill="#e65c39" d="M862.19 280.26c-7.38 0-15.06-2.74-19.89-5.3a2 2 0 0 1 1.87-3.54c.23.13 23.34 12.14 31.54-2.1a12.38 12.38 0 0 0 1.66-6.06c-1.23 0-2.49-.05-3.8-.16-16-1.33-34.38-11.27-38.64-20.84-1.49-3.38-1.22-6.57.8-9.22 4.85-6.35 15.39-5.53 26.85 2.1a48.94 48.94 0 0 1 15.53 16.33A27.47 27.47 0 0 1 881 259c4.92-.59 9.88-2.5 13-7.17 2.19-3.3 2.4-7.53 1.14-12.14-21.7-1.58-46.49-16.87-52-28.71-2.23-4.81-1-8.08.51-10 5-6.42 16.25-4.54 29.49 4.92 10 7.13 20.82 18.71 25 29.9 7.33.07 16.39-1.79 21.35-10.26a23.07 23.07 0 0 0 3.24-11.54 33.08 33.08 0 0 1-5.23.4c-21.92 0-50.89-19.29-59.66-34.27-4.74-8.08-2.18-12.54-.23-14.47 9.47-9.42 30.1-2.2 45.58 9.79 10.76 8.34 21 20.64 23.13 33.5 9.67-3.6 14.36-13.75 13.93-30.21a2 2 0 1 1 4-.1c.6 23.33-9 31.62-17.52 34.4a26.8 26.8 0 0 1-3.73 14.57c-4.6 7.87-12.72 12.06-23.58 12.24 1.16 5.1.71 10-2.08 14.22-3.37 5.09-8.79 8.12-15.89 8.95a16.54 16.54 0 0 1-2.22 8.3c-3.9 6.68-10.35 8.94-17.04 8.94Zm-17-47.49a7.5 7.5 0 0 0-6.28 2.7c-1.11 1.46-1.21 3.15-.32 5.16 3.31 7.46 19.46 17.16 35.31 18.48 1 .08 2 .14 3 .14-1.79-7.58-8.64-15.51-16.56-20.78-4.94-3.3-10.64-5.7-15.15-5.7Zm7-31.51c-2.38 0-4.24.72-5.39 2.21-.43.56-1.73 2.24 0 5.87 4.77 10.33 27.17 24.09 46.86 26.23-4-9.16-12.77-19.18-22.82-26.36-7.29-5.21-13.97-7.95-18.64-7.95Zm17.39-35.89c-3.87 0-7.06 1-9.16 3.08-2.5 2.48-.91 6.6.86 9.62 9 15.34 41 35.45 61.14 31.89-1.79-11.88-11.51-23.5-21.69-31.38-10.9-8.46-22.66-13.21-31.14-13.21Z"/><path fill="#fad809" d="M340.32 209.62a32.41 32.41 0 1 1 32.41-32.41 32.45 32.45 0 0 1-32.41 32.41Zm0-60.82a28.41 28.41 0 1 0 28.41 28.41 28.44 28.44 0 0 0-28.41-28.41ZM403.11 962.86a2 2 0 0 1-1.42-3.42l52.65-52.65a2 2 0 1 1 2.83 2.83l-52.65 52.65a2 2 0 0 1-1.41.59Z"/><path fill="#fad809" d="M455.76 962.86a2 2 0 0 1-1.42-.59l-52.65-52.65a2 2 0 1 1 2.83-2.83l52.65 52.65a2 2 0 0 1-1.41 3.42ZM1031.44 351.66H959a2 2 0 0 1-1.73-3l36.21-62.72a2 2 0 0 1 3.47 0l36.21 62.72a2 2 0 0 1-1.73 3Zm-69-4H1028l-32.75-56.72Z"/></g></svg>