<svg width="250" height="250" viewBox="0 0 250 250" fill="none" xmlns="http://www.w3.org/2000/svg">
<g clip-path="url(#clip0_414_753)">
<path d="M252.536 217.959H231.406V218.119H252.536V217.959Z" fill="#EBEBEB"/>
<path d="M176.818 219.695H171.274V219.854H176.818V219.695Z" fill="#EBEBEB"/>
<path d="M230.768 212.039H218.525V212.198H230.768V212.039Z" fill="#EBEBEB"/>
<path d="M26.5247 213.11H-1.03052V213.27H26.5247V213.11Z" fill="#EBEBEB"/>
<path d="M36.2478 213.11H32.2092V213.27H36.2478V213.11Z" fill="#EBEBEB"/>
<path d="M109.146 215.803H49.3779V215.962H109.146V215.803Z" fill="#EBEBEB"/>
<path d="M284.5 207.694H-34.5V207.853H284.5V207.694Z" fill="#EBEBEB"/>
<path d="M41.6327 164.533C41.0968 158.37 34.8061 156.067 27.3479 156.718C19.8896 157.368 14.103 160.731 14.6261 166.894L41.6327 164.533Z" fill="#F0F0F0"/>
<path d="M27.1052 153.904C30.5632 153.598 31.6669 150.676 31.3671 147.218C31.0672 143.76 29.4531 141.074 26.0079 141.374C22.5627 141.674 21.4462 144.602 21.746 148.06C22.0459 151.518 23.6473 154.204 27.1052 153.904Z" fill="#F0F0F0"/>
<path d="M182.484 33.2645C182.544 33.9485 182.401 34.6351 182.071 35.2374C181.741 35.8397 181.24 36.3306 180.631 36.648C180.022 36.9655 179.333 37.0952 178.65 37.0207C177.968 36.9462 177.322 36.671 176.796 36.2297C176.27 35.7884 175.887 35.201 175.695 34.5418C175.502 33.8826 175.51 33.1811 175.717 32.5263C175.923 31.8714 176.319 31.2926 176.855 30.8629C177.391 30.4333 178.042 30.1723 178.726 30.1128C179.642 30.0331 180.552 30.3203 181.257 30.9112C181.962 31.5022 182.403 32.3485 182.484 33.2645Z" fill="#F5F5F5"/>
<path d="M201.668 31.5674C201.728 32.25 201.583 32.9349 201.253 33.5353C200.923 34.1358 200.423 34.625 199.815 34.941C199.207 35.2569 198.519 35.3856 197.838 35.3105C197.157 35.2355 196.513 34.9602 195.989 34.5195C195.464 34.0788 195.082 33.4924 194.891 32.8345C194.699 32.1766 194.707 31.4767 194.914 30.8234C195.12 30.1701 195.516 29.5926 196.05 29.164C196.585 28.7355 197.234 28.4751 197.917 28.4157C198.832 28.3378 199.741 28.6258 200.444 29.2166C201.147 29.8073 201.587 30.6526 201.668 31.5674Z" fill="#F5F5F5"/>
<path d="M220.859 29.8895C220.92 30.5735 220.776 31.2601 220.446 31.8624C220.117 32.4647 219.616 32.9556 219.007 33.273C218.398 33.5905 217.708 33.7202 217.026 33.6457C216.343 33.5712 215.698 33.296 215.172 32.8547C214.646 32.4134 214.262 31.826 214.07 31.1668C213.878 30.5076 213.886 29.8061 214.092 29.1513C214.299 28.4964 214.695 27.9176 215.231 27.4879C215.766 27.0583 216.418 26.7973 217.102 26.7378C218.018 26.6581 218.928 26.9453 219.633 27.5362C220.337 28.1272 220.778 28.9735 220.859 29.8895Z" fill="#F5F5F5"/>
<path d="M184.194 52.8C184.254 53.484 184.11 54.1706 183.781 54.7729C183.451 55.3752 182.95 55.8661 182.341 56.1836C181.732 56.501 181.043 56.6307 180.36 56.5562C179.677 56.4818 179.032 56.2065 178.506 55.7652C177.98 55.324 177.596 54.7365 177.404 54.0773C177.212 53.4181 177.22 52.7167 177.426 52.0618C177.633 51.4069 178.029 50.8281 178.565 50.3985C179.101 49.9688 179.752 49.7078 180.436 49.6483C181.352 49.5687 182.262 49.8558 182.967 50.4468C183.671 51.0377 184.112 51.884 184.194 52.8Z" fill="#F5F5F5"/>
<path d="M203.378 51.1285C203.438 51.8111 203.293 52.4959 202.963 53.0964C202.633 53.6969 202.133 54.186 201.525 54.502C200.917 54.818 200.229 54.9466 199.548 54.8716C198.867 54.7966 198.223 54.5213 197.699 54.0806C197.174 53.6398 196.792 53.0534 196.6 52.3955C196.409 51.7376 196.417 51.0378 196.624 50.3844C196.83 49.7311 197.225 49.1537 197.76 48.7251C198.295 48.2965 198.944 48.0361 199.627 47.9768C200.08 47.9374 200.537 47.9876 200.971 48.1247C201.404 48.2617 201.807 48.4829 202.155 48.7756C202.504 49.0683 202.791 49.4267 203.001 49.8304C203.211 50.2341 203.339 50.6752 203.378 51.1285Z" fill="#F5F5F5"/>
<path d="M222.569 49.4442C222.63 50.1282 222.486 50.8148 222.156 51.4171C221.827 52.0194 221.326 52.5103 220.717 52.8277C220.108 53.1452 219.418 53.2749 218.736 53.2004C218.053 53.1259 217.408 52.8507 216.882 52.4094C216.356 51.9681 215.972 51.3807 215.78 50.7215C215.588 50.0622 215.596 49.3608 215.802 48.706C216.009 48.0511 216.405 47.4722 216.941 47.0426C217.476 46.613 218.127 46.3519 218.812 46.2925C219.728 46.2128 220.638 46.5 221.343 47.0909C222.047 47.6818 222.488 48.5282 222.569 49.4442Z" fill="#F5F5F5"/>
<path d="M185.903 72.3612C185.963 73.0438 185.818 73.7286 185.488 74.3291C185.158 74.9296 184.658 75.4188 184.05 75.7347C183.442 76.0507 182.754 76.1793 182.073 76.1043C181.392 76.0293 180.748 75.754 180.224 75.3133C179.699 74.8726 179.317 74.2862 179.126 73.6283C178.934 72.9704 178.942 72.2705 179.149 71.6172C179.355 70.9638 179.751 70.3864 180.285 69.9578C180.82 69.5292 181.469 69.2688 182.152 69.2095C182.605 69.1692 183.062 69.2189 183.497 69.3556C183.931 69.4923 184.334 69.7135 184.682 70.0063C185.031 70.2991 185.318 70.6579 185.528 71.062C185.737 71.4661 185.865 71.9076 185.903 72.3612Z" fill="#F5F5F5"/>
<path d="M205.095 70.6769C205.155 71.3609 205.011 72.0474 204.682 72.6497C204.352 73.252 203.851 73.7429 203.242 74.0604C202.633 74.3778 201.944 74.5075 201.261 74.4331C200.578 74.3586 199.933 74.0833 199.407 73.6421C198.881 73.2008 198.497 72.6134 198.305 71.9541C198.113 71.2949 198.121 70.5935 198.327 69.9386C198.534 69.2838 198.93 68.7049 199.466 68.2753C200.002 67.8457 200.653 67.5846 201.337 67.5251C202.253 67.4455 203.163 67.7327 203.868 68.3236C204.572 68.9145 205.013 69.7609 205.095 70.6769Z" fill="#F5F5F5"/>
<path d="M224.279 68.9925C224.34 69.6765 224.196 70.3631 223.866 70.9654C223.536 71.5677 223.035 72.0586 222.427 72.3761C221.818 72.6935 221.128 72.8232 220.446 72.7487C219.763 72.6743 219.118 72.399 218.592 71.9577C218.066 71.5165 217.682 70.9291 217.49 70.2698C217.298 69.6106 217.306 68.9092 217.512 68.2543C217.719 67.5994 218.115 67.0206 218.651 66.591C219.186 66.1614 219.837 65.9003 220.521 65.8408C221.438 65.7612 222.348 66.0483 223.052 66.6393C223.757 67.2302 224.198 68.0766 224.279 68.9925Z" fill="#F5F5F5"/>
<path d="M220.132 70.1282L180.716 73.5734L215.666 31.1082L179.868 34.2407C179.768 34.2504 179.667 34.2399 179.571 34.2099C179.476 34.18 179.387 34.1312 179.31 34.0664C179.233 34.0016 179.17 33.9221 179.125 33.8326C179.079 33.7431 179.052 33.6455 179.045 33.5453C179.027 33.3448 179.09 33.1455 179.219 32.9912C179.348 32.8368 179.534 32.7401 179.734 32.7223L219.156 29.2771L184.2 71.7424L220.011 68.6098C220.213 68.5938 220.413 68.6577 220.568 68.7878C220.723 68.9179 220.821 69.1037 220.84 69.3052C220.848 69.4058 220.836 69.507 220.805 69.6029C220.773 69.6988 220.723 69.7875 220.657 69.864C220.592 69.9405 220.511 70.0032 220.421 70.0485C220.331 70.0939 220.233 70.121 220.132 70.1282Z" fill="#E6E6E6"/>
<path d="M220.738 145.942C220.678 145.756 220.564 145.592 220.41 145.471C220.257 145.349 220.072 145.276 219.877 145.259C218.163 145.18 216.541 144.463 215.328 143.249C213.752 141.661 212.827 139.255 212.674 136.397C212.659 136.139 212.547 135.897 212.36 135.719C212.172 135.541 211.924 135.441 211.666 135.44C211.526 135.441 211.388 135.47 211.26 135.525C211.132 135.581 211.017 135.662 210.921 135.763C210.825 135.864 210.75 135.984 210.702 136.115C210.653 136.246 210.632 136.385 210.639 136.525C210.817 139.881 211.953 142.752 213.886 144.685C215.4 146.201 217.409 147.123 219.545 147.282H219.692C219.86 147.294 220.028 147.265 220.182 147.197C220.336 147.13 220.471 147.025 220.574 146.892C220.678 146.759 220.747 146.603 220.776 146.437C220.804 146.272 220.791 146.101 220.738 145.942Z" fill="#F0F0F0"/>
<path d="M218.697 158.185C210.243 157.445 204.144 151.684 202.217 142.688C202.186 142.553 202.183 142.413 202.208 142.277C202.233 142.14 202.285 142.011 202.361 141.895C202.438 141.779 202.537 141.68 202.652 141.604C202.768 141.527 202.898 141.475 203.034 141.45C203.292 141.404 203.558 141.46 203.776 141.604C203.995 141.749 204.149 141.973 204.208 142.229C205.937 150.312 211.36 155.493 218.882 156.15C227.125 156.871 235.974 151.448 237.562 137.782C237.59 137.515 237.721 137.27 237.927 137.1C238.134 136.929 238.399 136.846 238.666 136.869C238.801 136.88 238.933 136.919 239.053 136.981C239.173 137.044 239.28 137.131 239.366 137.235C239.452 137.34 239.517 137.461 239.555 137.591C239.594 137.721 239.606 137.857 239.591 137.992C238.066 150.88 229.594 159.136 218.697 158.185Z" fill="#F0F0F0"/>
<path d="M202.747 133.724C202.612 133.713 202.48 133.675 202.36 133.612C202.24 133.549 202.133 133.463 202.047 133.358C201.961 133.253 201.896 133.132 201.858 133.002C201.819 132.872 201.807 132.736 201.822 132.601C203.34 119.714 211.813 111.451 222.703 112.408C232.273 113.244 238.685 120.39 239.687 131.153C239.697 131.288 239.681 131.424 239.638 131.552C239.595 131.681 239.528 131.8 239.438 131.902C239.349 132.004 239.241 132.088 239.119 132.147C238.998 132.207 238.865 132.242 238.73 132.25C238.464 132.263 238.203 132.171 238.003 131.995C237.803 131.819 237.679 131.572 237.658 131.306C236.733 121.608 231.01 115.184 222.531 114.444C214.32 113.723 205.433 119.139 203.85 132.793C203.839 132.926 203.802 133.056 203.74 133.175C203.679 133.295 203.594 133.4 203.492 133.487C203.389 133.574 203.271 133.639 203.143 133.68C203.015 133.72 202.88 133.735 202.747 133.724Z" fill="#F0F0F0"/>
<path d="M219.111 152.717C217.596 152.596 216.111 152.225 214.716 151.62C214.586 151.563 214.469 151.48 214.372 151.375C214.276 151.271 214.203 151.147 214.157 151.013C214.11 150.879 214.093 150.736 214.104 150.595C214.116 150.453 214.157 150.316 214.224 150.191C214.344 149.972 214.541 149.804 214.776 149.722C215.012 149.639 215.27 149.647 215.5 149.744C216.831 150.316 218.252 150.644 219.698 150.714C225.944 151.071 232.541 146.644 233.192 135.951C233.588 129.36 231.329 124.039 227.118 121.494C226.9 121.362 226.74 121.153 226.668 120.909C226.596 120.664 226.618 120.402 226.729 120.173C226.793 120.046 226.881 119.934 226.99 119.843C227.099 119.753 227.225 119.685 227.36 119.645C227.496 119.605 227.639 119.593 227.779 119.61C227.92 119.628 228.055 119.674 228.177 119.745C233.058 122.693 235.674 128.677 235.227 136.072C234.589 146.382 228.171 153.247 219.577 152.756L219.111 152.717Z" fill="#F0F0F0"/>
<path d="M210.026 146.356C209.909 146.436 209.776 146.49 209.637 146.516C209.497 146.542 209.354 146.54 209.216 146.508C209.078 146.476 208.947 146.416 208.833 146.332C208.719 146.248 208.624 146.141 208.552 146.018C206.661 142.502 205.83 138.513 206.16 134.534C206.76 124.664 212.674 117.946 220.706 117.831C220.848 117.829 220.988 117.855 221.119 117.909C221.25 117.963 221.368 118.043 221.466 118.145C221.565 118.247 221.641 118.368 221.69 118.501C221.739 118.633 221.761 118.775 221.753 118.916C221.737 119.171 221.626 119.411 221.441 119.588C221.257 119.765 221.013 119.867 220.757 119.873C214.799 119.988 208.814 124.492 208.202 134.655C207.892 138.247 208.632 141.851 210.333 145.029C210.46 145.25 210.5 145.511 210.443 145.76C210.386 146.008 210.237 146.226 210.026 146.369V146.356Z" fill="#F0F0F0"/>
<path d="M223.973 145.553C223.876 145.326 223.865 145.071 223.941 144.837C224.017 144.602 224.176 144.403 224.388 144.277C227.074 142.662 228.72 139.275 228.745 135.185C228.745 131.912 227.82 129.143 226.072 127.389C225.393 126.716 224.584 126.189 223.694 125.84C222.804 125.491 221.853 125.328 220.898 125.36C217.752 125.36 215.2 127.089 213.79 130.126C213.682 130.356 213.49 130.538 213.253 130.634C213.017 130.729 212.753 130.733 212.514 130.642C212.381 130.593 212.26 130.517 212.158 130.418C212.056 130.32 211.975 130.201 211.921 130.07C211.867 129.938 211.841 129.797 211.844 129.655C211.848 129.514 211.88 129.374 211.94 129.245C213.688 125.526 216.961 123.325 220.872 123.318C222.097 123.287 223.316 123.503 224.455 123.955C225.594 124.407 226.63 125.084 227.501 125.947C229.638 128.09 230.799 131.376 230.774 135.204C230.736 140.021 228.707 144.066 225.402 146.05C225.277 146.118 225.139 146.16 224.997 146.172C224.855 146.183 224.712 146.165 224.577 146.118C224.442 146.071 224.319 145.997 224.215 145.899C224.111 145.802 224.028 145.684 223.973 145.553Z" fill="#F0F0F0"/>
<path d="M216.623 138.018C216.487 138.073 216.34 138.099 216.193 138.092C216.046 138.086 215.902 138.048 215.772 137.98C215.641 137.913 215.526 137.818 215.435 137.703C215.344 137.587 215.279 137.453 215.245 137.31C215.175 137.035 215.124 136.748 215.079 136.455C214.499 132.627 216.553 129.315 219.852 128.722C220.62 128.555 221.416 128.57 222.177 128.766C222.938 128.962 223.643 129.334 224.235 129.851C224.346 129.95 224.433 130.073 224.49 130.21C224.547 130.347 224.573 130.495 224.565 130.643C224.557 130.792 224.516 130.936 224.444 131.066C224.373 131.197 224.273 131.309 224.152 131.395L224.088 131.44C223.897 131.573 223.665 131.636 223.433 131.619C223.201 131.601 222.981 131.504 222.812 131.344C222.454 131.042 222.031 130.827 221.576 130.717C221.121 130.606 220.646 130.602 220.19 130.706C217.676 131.159 216.719 133.775 217.076 136.123C217.115 136.353 217.153 136.576 217.21 136.761C217.272 137.001 217.244 137.256 217.133 137.477C217.022 137.699 216.834 137.873 216.604 137.967L216.623 138.018Z" fill="#F0F0F0"/>
<path d="M219.998 141.948C219.837 141.932 219.683 141.876 219.55 141.784C219.417 141.692 219.31 141.567 219.238 141.422C219.167 141.277 219.133 141.117 219.141 140.955C219.149 140.794 219.198 140.637 219.284 140.5L219.373 140.359C219.464 140.213 219.594 140.095 219.748 140.017C219.903 139.939 220.075 139.906 220.247 139.919C220.567 139.937 220.888 139.918 221.204 139.862C223.399 139.466 224.394 137.424 224.394 135.345C224.388 135.095 224.472 134.851 224.632 134.659C224.791 134.466 225.015 134.338 225.262 134.298C225.403 134.277 225.548 134.285 225.686 134.323C225.824 134.361 225.953 134.427 226.063 134.518C226.174 134.609 226.264 134.722 226.329 134.85C226.393 134.978 226.429 135.119 226.436 135.262C226.493 138.592 224.522 141.342 221.568 141.871C221.05 141.967 220.522 141.993 219.998 141.948Z" fill="#F0F0F0"/>
<path d="M220.451 138.177C219.936 138.134 219.447 137.93 219.054 137.595C218.66 137.26 218.381 136.81 218.257 136.308C218.221 136.166 218.219 136.018 218.252 135.876C218.284 135.733 218.351 135.601 218.445 135.489C218.539 135.378 218.658 135.29 218.793 135.234C218.928 135.178 219.074 135.154 219.22 135.166H219.456C219.635 135.185 219.804 135.255 219.943 135.368C220.083 135.481 220.186 135.633 220.241 135.804C220.263 135.893 220.312 135.973 220.382 136.032C220.452 136.092 220.539 136.128 220.63 136.136C221.121 136.18 221.204 135.498 221.217 135.332C221.246 135.083 221.2 134.832 221.083 134.611C220.907 134.398 220.816 134.128 220.828 133.852C220.844 133.649 220.92 133.456 221.047 133.297C221.174 133.138 221.345 133.02 221.539 132.959C221.733 132.898 221.941 132.896 222.136 132.954C222.331 133.012 222.504 133.127 222.633 133.284C223.131 133.913 223.36 134.713 223.271 135.51C223.105 137.188 221.925 138.305 220.451 138.177Z" fill="#F0F0F0"/>
<path d="M201.26 115.343C201.127 115.332 200.997 115.294 200.878 115.233C200.759 115.171 200.654 115.087 200.568 114.984C200.482 114.881 200.417 114.763 200.377 114.635C200.337 114.507 200.323 114.373 200.335 114.24L201.107 105.39L209.956 106.169C210.09 106.18 210.219 106.218 210.338 106.279C210.457 106.341 210.563 106.425 210.649 106.528C210.735 106.631 210.799 106.749 210.839 106.877C210.879 107.005 210.893 107.139 210.881 107.273C210.87 107.406 210.832 107.536 210.771 107.655C210.709 107.775 210.625 107.881 210.522 107.967C210.42 108.054 210.301 108.119 210.174 108.16C210.046 108.2 209.911 108.215 209.777 108.204L202.964 107.604L202.37 114.418C202.358 114.552 202.32 114.682 202.258 114.801C202.195 114.92 202.11 115.025 202.007 115.111C201.904 115.197 201.785 115.262 201.657 115.301C201.529 115.341 201.394 115.356 201.26 115.343Z" fill="#F0F0F0"/>
<path d="M243.324 119.025C243.19 119.013 243.06 118.976 242.941 118.914C242.823 118.852 242.717 118.768 242.631 118.665C242.545 118.563 242.48 118.444 242.44 118.316C242.4 118.189 242.386 118.054 242.398 117.921L242.992 111.107L236.178 110.514C236.044 110.502 235.914 110.463 235.795 110.401C235.676 110.339 235.571 110.254 235.485 110.15C235.399 110.047 235.334 109.928 235.295 109.8C235.255 109.672 235.241 109.537 235.253 109.403C235.264 109.27 235.302 109.14 235.363 109.021C235.425 108.903 235.509 108.797 235.612 108.711C235.715 108.625 235.833 108.56 235.961 108.52C236.089 108.48 236.223 108.466 236.357 108.478L245.206 109.25L244.434 118.119C244.405 118.385 244.272 118.63 244.064 118.799C243.857 118.969 243.59 119.05 243.324 119.025Z" fill="#F0F0F0"/>
<path d="M240.191 166.607L231.342 165.835C231.208 165.823 231.078 165.784 230.959 165.722C230.841 165.66 230.735 165.575 230.649 165.471C230.563 165.368 230.499 165.249 230.459 165.121C230.419 164.993 230.405 164.858 230.417 164.724C230.428 164.591 230.466 164.461 230.527 164.342C230.589 164.224 230.674 164.118 230.776 164.032C230.879 163.946 230.997 163.881 231.125 163.841C231.253 163.801 231.387 163.787 231.521 163.799L238.334 164.393L238.928 157.585C238.939 157.451 238.977 157.32 239.039 157.201C239.101 157.081 239.186 156.975 239.289 156.888C239.392 156.802 239.511 156.736 239.64 156.696C239.769 156.656 239.904 156.642 240.038 156.654C240.171 156.665 240.301 156.703 240.42 156.764C240.539 156.826 240.644 156.91 240.73 157.013C240.816 157.116 240.881 157.234 240.921 157.362C240.961 157.49 240.975 157.624 240.963 157.758L240.191 166.607Z" fill="#F0F0F0"/>
<path d="M204.941 163.506L196.092 162.728L196.864 153.885C196.89 153.615 197.021 153.366 197.229 153.192C197.436 153.018 197.704 152.932 197.974 152.953C198.108 152.965 198.238 153.004 198.357 153.066C198.476 153.128 198.581 153.213 198.667 153.317C198.753 153.42 198.818 153.539 198.858 153.667C198.898 153.795 198.912 153.93 198.899 154.063L198.306 160.865L205.114 161.464C205.247 161.476 205.377 161.513 205.497 161.575C205.616 161.636 205.722 161.721 205.808 161.823C205.895 161.926 205.96 162.044 206.001 162.172C206.041 162.3 206.056 162.434 206.045 162.568C206.022 162.838 205.893 163.089 205.687 163.265C205.48 163.44 205.212 163.527 204.941 163.506Z" fill="#F0F0F0"/>
<path d="M13.1777 144.359C13.0115 144.372 12.847 144.319 12.7194 144.211C12.5918 144.104 12.5113 143.951 12.4951 143.785L12.0229 138.349L17.4587 137.871C17.625 137.859 17.7895 137.912 17.9171 138.019C18.0447 138.126 18.1252 138.279 18.1414 138.445C18.1521 138.61 18.0982 138.773 17.9911 138.899C17.8839 139.026 17.7319 139.105 17.5672 139.121L13.3819 139.492L13.7456 143.677C13.7581 143.842 13.7059 144.006 13.5999 144.133C13.4939 144.261 13.3425 144.342 13.1777 144.359Z" fill="#E0E0E0"/>
<path d="M39.0423 142.095C38.877 142.107 38.7134 142.055 38.586 141.949C38.4586 141.843 38.3774 141.692 38.3596 141.527L37.996 137.335L33.8043 137.705C33.6381 137.718 33.4735 137.664 33.346 137.557C33.2184 137.45 33.1379 137.297 33.1217 137.131C33.1092 136.965 33.1623 136.8 33.2696 136.673C33.3769 136.545 33.5299 136.464 33.6959 136.448L39.1316 135.976L39.6101 141.412C39.6227 141.577 39.5704 141.741 39.4645 141.868C39.3585 141.996 39.2071 142.077 39.0423 142.095Z" fill="#E0E0E0"/>
<path d="M41.7218 165.516L36.2797 165.994C36.1134 166.007 35.9489 165.953 35.8213 165.846C35.6937 165.739 35.6132 165.586 35.597 165.42C35.5845 165.254 35.6376 165.089 35.745 164.962C35.8523 164.834 36.0053 164.753 36.1712 164.737L40.3565 164.374L39.9928 160.188C39.9803 160.023 40.0325 159.859 40.1385 159.732C40.2445 159.605 40.3959 159.523 40.5606 159.506C40.7259 159.493 40.8895 159.545 41.017 159.651C41.1444 159.757 41.2255 159.909 41.2433 160.073L41.7218 165.516Z" fill="#E0E0E0"/>
<path d="M20.0427 167.41L14.6261 167.883L14.1476 162.44C14.1369 162.275 14.1908 162.112 14.2979 161.986C14.405 161.86 14.557 161.78 14.7218 161.764C14.886 161.753 15.048 161.806 15.174 161.912C15.3001 162.018 15.3803 162.168 15.3981 162.332L15.7681 166.524L19.9534 166.154C20.1196 166.141 20.2842 166.194 20.4117 166.302C20.5393 166.409 20.6198 166.562 20.636 166.728C20.6421 166.812 20.6316 166.896 20.605 166.976C20.5784 167.055 20.5364 167.129 20.4812 167.192C20.4261 167.256 20.359 167.308 20.2837 167.345C20.2085 167.383 20.1266 167.405 20.0427 167.41Z" fill="#E0E0E0"/>
<path d="M38.6019 53.6806L17.8159 55.467L17.3884 50.599C17.3572 48.2757 18.2056 46.0266 19.7634 44.3027C21.3212 42.5788 23.4733 41.5077 25.7878 41.3042C28.1024 41.1008 30.4083 41.7801 32.243 43.2058C34.0776 44.6315 35.3054 46.6981 35.6799 48.9913L35.9223 51.824L38.9273 51.5624L38.6785 48.7297C38.5386 47.1319 38.0853 45.5774 37.3446 44.1548C36.6039 42.7322 35.5903 41.4695 34.3616 40.4386C33.1328 39.4078 31.7131 38.629 30.1835 38.1469C28.6538 37.6647 27.0441 37.4886 25.4464 37.6285C22.2196 37.9111 19.2372 39.4639 17.1553 41.9454C16.1245 43.1741 15.3457 44.5938 14.8636 46.1235C14.3814 47.6532 14.2052 49.2628 14.3452 50.8606L14.7726 55.7604C13.589 55.9921 12.5329 56.6532 11.8074 57.6166C11.0819 58.5801 10.7382 59.7777 10.8425 60.9793L12.3291 77.9756C12.3821 78.6171 12.5613 79.2418 12.8565 79.8138C13.1516 80.3858 13.5568 80.8939 14.0488 81.3089C14.5409 81.7238 15.1101 82.0375 15.7237 82.2319C16.3373 82.4263 16.9833 82.4976 17.6245 82.4416L40.9306 80.4064C41.5721 80.3534 42.1968 80.1741 42.7688 79.879C43.3408 79.5839 43.8489 79.1787 44.2639 78.6866C44.6789 78.1946 44.9926 77.6254 45.187 77.0118C45.3813 76.3982 45.4526 75.7522 45.3966 75.111L43.9101 58.1147C43.8532 57.4748 43.6706 56.8524 43.373 56.2832C43.0753 55.7139 42.6683 55.2089 42.1753 54.7971C41.6823 54.3853 41.1129 54.0747 40.4998 53.8831C39.8866 53.6915 39.2417 53.6227 38.6019 53.6806ZM29.7593 66.7787L30.2696 72.6292C30.304 72.8646 30.2899 73.1046 30.2283 73.3344C30.1666 73.5643 30.0587 73.7791 29.9111 73.9657C29.7635 74.1524 29.5794 74.307 29.3699 74.42C29.1605 74.533 28.9302 74.602 28.6932 74.6229C28.4562 74.6438 28.2174 74.616 27.9914 74.5414C27.7655 74.4667 27.5572 74.3467 27.3792 74.1887C27.2013 74.0308 27.0575 73.8381 26.9566 73.6226C26.8557 73.4071 26.7999 73.1732 26.7925 72.9354L26.2821 67.0786C25.7558 66.7553 25.3449 66.2743 25.1079 65.7039C24.8708 65.1336 24.8198 64.503 24.962 63.9019C25.1042 63.3008 25.4325 62.76 25.9 62.3563C26.3675 61.9527 26.9504 61.7068 27.5658 61.6537C28.1812 61.6007 28.7976 61.7431 29.3273 62.0608C29.857 62.3784 30.273 62.8551 30.516 63.4229C30.7591 63.9908 30.8167 64.6208 30.6809 65.2233C30.545 65.8258 30.2225 66.3701 29.7593 66.7787Z" fill="#EBEBEB"/>
<path d="M74.2407 63.4994L72.1416 60.0606C71.0836 60.2113 70.0096 60.2113 68.9516 60.0606L66.8462 63.4866L66.4443 63.3782C65.0799 63.0187 63.7707 62.4757 62.5525 61.764L62.1952 61.5599L63.082 57.8339C63.0992 57.7617 63.1306 57.6935 63.1743 57.6334C63.218 57.5734 63.2732 57.5226 63.3367 57.484C63.4002 57.4454 63.4708 57.4198 63.5442 57.4087C63.6177 57.3976 63.6926 57.4012 63.7647 57.4192C63.9093 57.454 64.0342 57.5448 64.1119 57.6716C64.1897 57.7984 64.2139 57.9509 64.1794 58.0955L63.4776 60.9984C64.3842 61.4924 65.34 61.8901 66.3294 62.1851L68.3838 58.8292L68.7602 58.893C69.952 59.0845 71.1668 59.0845 72.3586 58.893L72.7286 58.8292L74.7829 62.1851C75.7732 61.8924 76.7292 61.4946 77.6348 60.9984L76.7225 57.1704L77.0287 56.9471C77.8598 56.3477 78.6047 55.6372 79.2426 54.8353C79.3312 54.7198 79.4613 54.6433 79.6053 54.6218C79.7494 54.6004 79.8961 54.6358 80.0146 54.7205C80.0766 54.7635 80.1292 54.8188 80.1691 54.8829C80.2091 54.9469 80.2356 55.0185 80.2469 55.0931C80.2583 55.1678 80.2543 55.244 80.2351 55.317C80.216 55.3901 80.1822 55.4585 80.1358 55.518C79.5088 56.3097 78.7867 57.0211 77.9857 57.6362L78.9236 61.5471L78.5599 61.7513C77.3434 62.4618 76.0364 63.0048 74.6745 63.3654L74.2407 63.4994ZM61.3403 56.0093C61.168 55.8115 60.9958 55.6009 60.8299 55.3713L56.9189 56.3091L56.7084 55.9518C56.002 54.731 55.4593 53.4225 55.0943 52.06L54.9922 51.6581L58.4182 49.5527C58.2676 48.4947 58.2676 47.4207 58.4182 46.3627L54.9922 44.2637L55.0943 43.8554C55.4593 42.4949 56.002 41.1886 56.7084 39.9699L56.9189 39.6063L60.8299 40.5441C61.4829 39.6896 62.2467 38.9258 63.1012 38.2729L62.393 35.3125C62.3584 35.1679 62.3827 35.0154 62.4604 34.8886C62.5382 34.7618 62.6631 34.6711 62.8077 34.6363C62.8789 34.6192 62.9528 34.6164 63.0251 34.6281C63.0974 34.6397 63.1667 34.6656 63.229 34.7041C63.2912 34.7427 63.3453 34.7932 63.3879 34.8527C63.4306 34.9122 63.4611 34.9796 63.4776 35.051L64.3644 38.7386L64.0582 38.9555C63.0752 39.6628 62.2134 40.5246 61.5062 41.5075L61.2829 41.8138L57.4549 40.9014C56.9587 41.807 56.5609 42.7631 56.2682 43.7533L59.6177 45.8076L59.5603 46.1777C59.3472 47.3677 59.3472 48.586 59.5603 49.776L59.6177 50.1524L56.2682 52.2068C56.5621 53.1946 56.9598 54.1484 57.4549 55.0523L61.2829 54.1399L61.5062 54.4462C61.7045 54.7354 61.9174 55.0144 62.1442 55.2819C62.2425 55.3851 62.2973 55.5222 62.2973 55.6647C62.2973 55.8073 62.2425 55.9443 62.1442 56.0475C62.0898 56.0996 62.0254 56.14 61.9549 56.1664C61.8843 56.1928 61.8092 56.2045 61.734 56.2009C61.6588 56.1974 61.5851 56.1785 61.5174 56.1456C61.4498 56.1126 61.3895 56.0662 61.3403 56.0093ZM84.1424 56.3219L82.7005 55.9774C82.5559 55.9426 82.431 55.8518 82.3533 55.725C82.2755 55.5982 82.2513 55.4457 82.2858 55.3011C82.3206 55.1565 82.4114 55.0316 82.5382 54.9538C82.665 54.8761 82.8174 54.8518 82.9621 54.8864L83.6001 55.0331C84.0931 54.129 84.4887 53.1752 84.7804 52.1876L81.4309 50.1333L81.4947 49.7569C81.7078 48.5669 81.7078 47.3485 81.4947 46.1585L81.4309 45.7885L84.7804 43.7341C84.4899 42.7441 84.0942 41.788 83.6001 40.8823L79.7721 41.7946L79.5552 41.4884C78.8463 40.5069 77.9847 39.6453 77.0032 38.9364L76.6969 38.7195L77.6093 34.8915C76.7035 34.3973 75.7475 34.0016 74.7574 33.7112L72.6839 37.0926L72.3139 37.0288C71.1221 36.8373 69.9074 36.8373 68.7156 37.0288L68.3391 37.0926L66.3039 33.7239L65.9211 33.8388C65.7849 33.8837 65.6364 33.8734 65.5076 33.8102C65.3788 33.747 65.2799 33.6359 65.2321 33.5006C65.2057 33.4307 65.1936 33.3563 65.1964 33.2816C65.1992 33.207 65.2168 33.1336 65.2483 33.0659C65.2798 32.9982 65.3245 32.9374 65.3798 32.8872C65.4351 32.8369 65.4998 32.7982 65.5702 32.7733C65.851 32.684 66.138 32.601 66.4188 32.5245L66.8207 32.416L68.9261 35.8485C69.9836 35.6912 71.0586 35.6912 72.1161 35.8485L74.2151 32.416L74.6234 32.5245C75.9844 32.8879 77.291 33.4307 78.5089 34.1386L78.8725 34.3492L77.9347 38.2601C78.7904 38.9116 79.5544 39.6756 80.2059 40.5314L84.1169 39.5935L84.3274 39.9572C85.0365 41.1745 85.5793 42.4812 85.9416 43.8426L86.05 44.2509L82.6176 46.3499C82.7766 47.4073 82.7766 48.4825 82.6176 49.5399L86.05 51.6453L85.9416 52.0473C85.5793 53.4107 85.0365 54.7195 84.3274 55.9391L84.1424 56.3219ZM70.3744 53.4254C68.9842 53.3703 67.6658 52.7934 66.682 51.8096C65.6982 50.8258 65.1213 49.5074 65.0662 48.1172C65.0282 46.7498 65.5036 45.4178 66.3987 44.3834C67.2937 43.349 68.5436 42.6872 69.9022 42.5283C69.982 42.5184 70.0629 42.5255 70.1396 42.5491C70.2164 42.5728 70.2873 42.6125 70.3476 42.6655C70.4078 42.7186 70.4562 42.7838 70.4894 42.857C70.5226 42.9301 70.54 43.0094 70.5402 43.0898C70.5396 43.2255 70.4892 43.3562 70.3987 43.4573C70.3082 43.5584 70.1838 43.6228 70.049 43.6384C69.1036 43.7463 68.2197 44.1615 67.5331 44.8203C66.8465 45.4791 66.3952 46.3451 66.2485 47.2853C66.1018 48.2255 66.2677 49.1878 66.7209 50.0245C67.1741 50.8612 67.8894 51.526 68.757 51.9168C69.6247 52.3075 70.5966 52.4027 71.5235 52.1875C72.4504 51.9724 73.2811 51.459 73.8879 50.726C74.4947 49.9931 74.8442 49.0812 74.8825 48.1304C74.9209 47.1797 74.6461 46.2426 74.1003 45.4631C74.0215 45.3527 73.987 45.2167 74.0035 45.0821C74.0201 44.9474 74.0865 44.8239 74.1896 44.7358C74.2491 44.6829 74.3193 44.6433 74.3953 44.6196C74.4713 44.5959 74.5515 44.5886 74.6305 44.5983C74.7096 44.6079 74.7857 44.6343 74.8537 44.6756C74.9218 44.7169 74.9803 44.7722 75.0254 44.8379C75.6058 45.6682 75.9437 46.6435 76.0016 47.6549C76.0594 48.6662 75.8348 49.6738 75.3529 50.5648C74.871 51.4558 74.1507 52.1953 73.2726 52.7004C72.3946 53.2056 71.3933 53.4566 70.3807 53.4254H70.3744Z" fill="#F0F0F0"/>
<path d="M34.6019 110.201L33.2429 107.987C32.5555 108.089 31.8568 108.089 31.1694 107.987L29.8105 110.201L29.5489 110.131C28.6682 109.898 27.8227 109.549 27.0352 109.091L26.8055 108.957L27.3797 106.545C27.4024 106.453 27.4606 106.373 27.5418 106.322C27.6229 106.272 27.7205 106.256 27.8135 106.277C27.8601 106.288 27.904 106.309 27.9426 106.337C27.9813 106.365 28.0141 106.401 28.039 106.442C28.0639 106.483 28.0804 106.528 28.0877 106.575C28.095 106.623 28.0929 106.671 28.0815 106.717L27.6349 108.593C28.2202 108.914 28.8384 109.171 29.4787 109.359L30.8058 107.196L31.0418 107.234C31.8128 107.362 32.5995 107.362 33.3705 107.234L33.6066 107.196L34.94 109.359C35.5768 109.167 36.1925 108.91 36.7774 108.593L36.1905 106.131L36.3883 105.984C36.9246 105.598 37.4055 105.141 37.8174 104.625C37.8734 104.549 37.9572 104.498 38.0504 104.484C38.1436 104.47 38.2388 104.493 38.315 104.548C38.3542 104.576 38.3874 104.612 38.4128 104.652C38.4382 104.693 38.4553 104.739 38.463 104.786C38.4707 104.834 38.469 104.882 38.4578 104.929C38.4466 104.976 38.4263 105.02 38.398 105.059C37.9915 105.57 37.5245 106.031 37.0071 106.43L37.6451 108.982L37.4091 109.116C36.6221 109.575 35.7765 109.925 34.8953 110.156L34.6019 110.201ZM26.2696 105.359L25.9378 104.957L23.3858 105.556L23.2518 105.327C22.8024 104.536 22.4612 103.688 22.2374 102.807L22.1672 102.545L24.3811 101.186C24.279 100.499 24.279 99.7999 24.3811 99.1125L22.1672 97.7536L22.2374 97.492C22.4687 96.6109 22.8185 95.7652 23.2774 94.9783L23.4113 94.7422L25.9633 95.3802C26.3737 94.8216 26.8516 94.3159 27.3861 93.8745L26.9331 91.9605C26.9218 91.9144 26.9197 91.8665 26.9271 91.8196C26.9345 91.7727 26.9511 91.7278 26.976 91.6874C27.001 91.647 27.0337 91.612 27.0724 91.5844C27.111 91.5568 27.1548 91.5372 27.2011 91.5267C27.2941 91.5055 27.3917 91.5218 27.4728 91.5719C27.554 91.622 27.6122 91.702 27.6349 91.7946L28.2091 94.1744L28.0049 94.3211C27.3727 94.7747 26.8188 95.3285 26.3653 95.9608L26.2185 96.1586L23.7559 95.5716C23.439 96.1565 23.1825 96.7722 22.9903 97.409L25.1531 98.7361L25.1148 98.9785C25.049 99.3621 25.0149 99.7505 25.0127 100.14C25.0148 100.531 25.049 100.921 25.1148 101.307L25.1531 101.543L22.9903 102.87C23.1813 103.51 23.4379 104.128 23.7559 104.714L26.2185 104.121L26.3653 104.319C26.4971 104.508 26.6398 104.689 26.7927 104.861C26.8556 104.927 26.8906 105.015 26.8906 105.107C26.8906 105.198 26.8556 105.286 26.7927 105.352C26.7597 105.388 26.7196 105.418 26.6748 105.438C26.6301 105.458 26.5816 105.469 26.5325 105.469C26.4835 105.47 26.4348 105.46 26.3895 105.441C26.3443 105.422 26.3035 105.394 26.2696 105.359ZM41.001 105.556L40.0695 105.339C40.023 105.328 39.9791 105.308 39.9404 105.28C39.9017 105.251 39.869 105.216 39.8441 105.175C39.8192 105.134 39.8026 105.089 39.7953 105.041C39.788 104.994 39.7901 104.946 39.8016 104.899C39.8121 104.853 39.8317 104.809 39.8593 104.77C39.8869 104.732 39.9219 104.699 39.9623 104.674C40.0026 104.649 40.0476 104.633 40.0945 104.625C40.1414 104.618 40.1893 104.62 40.2354 104.631L40.6373 104.727C40.958 104.142 41.2147 103.523 41.4029 102.883L39.2401 101.556L39.2784 101.32C39.3442 100.934 39.3784 100.544 39.3805 100.152C39.3783 99.7632 39.3442 99.3749 39.2784 98.9913L39.2401 98.7488L41.4029 97.4218C41.2135 96.784 40.9568 96.168 40.6373 95.5844L38.1747 96.1713L38.0279 95.9735C37.5744 95.3413 37.0205 94.7874 36.3883 94.3339L36.1905 94.1871L36.7774 91.7245C36.1938 91.405 35.5778 91.1483 34.94 90.9589L33.6066 93.1217L33.3705 93.0834C32.5995 92.9558 31.8128 92.9558 31.0418 93.0834L30.8058 93.1217L29.4787 90.9589L29.2299 91.0354C29.141 91.0639 29.0446 91.0565 28.9611 91.0147C28.8777 90.973 28.8138 90.9003 28.7833 90.8121C28.7661 90.7674 28.7581 90.7196 28.7598 90.6717C28.7614 90.6238 28.7727 90.5767 28.793 90.5332C28.8132 90.4898 28.842 90.4508 28.8776 90.4187C28.9132 90.3866 28.9549 90.362 29.0002 90.3464L29.5489 90.1805L29.8105 90.1167L31.1694 92.3306C31.8568 92.2285 32.5555 92.2285 33.2429 92.3306L34.6019 90.1167L34.8634 90.1805C35.7439 90.4168 36.5891 90.7686 37.3772 91.2268L37.6132 91.3608L36.9752 93.9128C37.5246 94.3377 38.0177 94.8308 38.4426 95.3802L40.9946 94.7422L41.1286 94.9783C41.5874 95.7652 41.9373 96.6109 42.1685 97.492L42.2387 97.7536L40.0249 99.1125C40.127 99.7999 40.127 100.499 40.0249 101.186L42.2387 102.545L42.1685 102.807C41.9362 103.687 41.5864 104.533 41.1286 105.32L41.001 105.556ZM32.1073 103.687C31.2404 103.628 30.4257 103.251 29.819 102.629C29.2122 102.007 28.8559 101.183 28.818 100.315C28.7801 99.4467 29.0633 98.595 29.6136 97.9225C30.1639 97.25 30.9426 96.8037 31.801 96.669C31.8522 96.6636 31.9039 96.669 31.9529 96.6848C32.0019 96.7006 32.047 96.7265 32.0855 96.7607C32.1239 96.7949 32.1547 96.8368 32.1761 96.8836C32.1974 96.9304 32.2087 96.9812 32.2094 97.0326C32.2099 97.1211 32.1775 97.2066 32.1186 97.2726C32.0597 97.3386 31.9783 97.3804 31.8904 97.3899C31.3522 97.4514 30.8434 97.6674 30.4252 98.0116C30.007 98.3559 29.6974 98.8137 29.5336 99.33C29.3698 99.8463 29.3589 100.399 29.5021 100.921C29.6454 101.444 29.9367 101.913 30.3409 102.274C30.7451 102.634 31.2451 102.87 31.7803 102.953C32.3156 103.036 32.8634 102.962 33.3577 102.741C33.8519 102.519 34.2715 102.159 34.5659 101.704C34.8602 101.25 35.0167 100.72 35.0166 100.178C35.0178 99.602 34.8394 99.04 34.5062 98.5702C34.4575 98.4977 34.4364 98.4101 34.447 98.3235C34.4575 98.2368 34.4989 98.1568 34.5636 98.0981C34.602 98.0635 34.6473 98.0376 34.6966 98.022C34.7458 98.0063 34.7978 98.0014 34.8492 98.0074C34.9005 98.0134 34.9499 98.0303 34.9942 98.057C35.0384 98.0836 35.0765 98.1194 35.1059 98.1619C35.479 98.6987 35.696 99.3285 35.7326 99.9812C35.7692 100.634 35.6241 101.284 35.3134 101.859C35.0027 102.434 34.5385 102.912 33.9725 103.239C33.4065 103.567 32.7608 103.73 32.1073 103.712V103.687Z" fill="#E6E6E6"/>
<path d="M125 236.155C193.319 236.155 248.702 232.921 248.702 228.933C248.702 224.944 193.319 221.711 125 221.711C56.6813 221.711 1.2981 224.944 1.2981 228.933C1.2981 232.921 56.6813 236.155 125 236.155Z" fill="#F5F5F5"/>
<path d="M197.381 56.7621H176.608L161.934 224.716H182.707C185.622 224.659 188.417 223.538 190.563 221.564C192.709 219.589 194.058 216.898 194.357 213.997L207.174 67.4742C207.323 66.109 207.179 64.7277 206.753 63.4224C206.326 62.1171 205.626 60.9177 204.699 59.9042C203.773 58.8906 202.641 58.0861 201.379 57.5444C200.117 57.0026 198.754 56.7359 197.381 56.7621Z" fill="#468077"/>
<path d="M193.145 56.7621H122.837C119.921 56.8167 117.126 57.9362 114.979 59.9095C112.832 61.8827 111.481 64.5734 111.181 67.4741L98.3633 213.997C98.2157 215.361 98.3598 216.741 98.7862 218.046C99.2125 219.35 99.9113 220.549 100.836 221.562C101.761 222.576 102.891 223.381 104.151 223.925C105.411 224.469 106.772 224.738 108.144 224.716H178.445C181.357 224.653 184.146 223.53 186.287 221.556C188.429 219.582 189.776 216.894 190.076 213.997L202.893 67.4741C203.042 66.1127 202.899 64.7354 202.475 63.4332C202.051 62.1311 201.355 60.934 200.433 59.9211C199.511 58.9083 198.385 58.1029 197.128 57.5583C195.872 57.0137 194.514 56.7423 193.145 56.7621Z" fill="#468077"/>
<path opacity="0.3" d="M193.145 56.7621H122.837C119.921 56.8167 117.126 57.9362 114.979 59.9095C112.832 61.8827 111.481 64.5734 111.181 67.4741L98.3633 213.997C98.2157 215.361 98.3598 216.741 98.7862 218.046C99.2125 219.35 99.9113 220.549 100.836 221.562C101.761 222.576 102.891 223.381 104.151 223.925C105.411 224.469 106.772 224.738 108.144 224.716H178.445C181.357 224.653 184.146 223.53 186.287 221.556C188.429 219.582 189.776 216.894 190.076 213.997L202.893 67.4741C203.042 66.1127 202.899 64.7354 202.475 63.4332C202.051 62.1311 201.355 60.934 200.433 59.9211C199.511 58.9083 198.385 58.1029 197.128 57.5583C195.872 57.0137 194.514 56.7423 193.145 56.7621Z" fill="white"/>
<path opacity="0.4" d="M192.845 60.1945H174.304C173.752 60.1991 173.213 60.3693 172.758 60.6832C172.303 60.9971 171.953 61.4403 171.752 61.9554C171.021 63.8476 169.743 65.4791 168.08 66.6416C166.418 67.804 164.447 68.4448 162.418 68.4822H151.483C149.573 68.5207 147.709 67.8919 146.213 66.704C144.716 65.5162 143.681 63.8437 143.285 61.9746C143.179 61.4689 142.9 61.016 142.496 60.6944C142.092 60.3728 141.587 60.2028 141.071 60.2137H122.537C120.555 60.2487 118.655 61.0089 117.196 62.3503C115.737 63.6918 114.82 65.5215 114.619 67.4933L101.796 214.016C101.693 214.944 101.789 215.883 102.078 216.771C102.367 217.658 102.842 218.474 103.471 219.163C104.1 219.853 104.869 220.4 105.727 220.769C106.584 221.138 107.51 221.32 108.444 221.302H178.751C180.734 221.266 182.634 220.504 184.093 219.162C185.551 217.819 186.468 215.989 186.669 214.016L199.486 67.4933C199.591 66.5651 199.496 65.6253 199.208 64.7366C198.921 63.8479 198.447 63.0309 197.818 62.3401C197.189 61.6492 196.421 61.1005 195.563 60.7305C194.705 60.3605 193.779 60.1778 192.845 60.1945Z" fill="white"/>
<path d="M175.325 139.811H126.123C125.784 139.816 125.449 139.75 125.138 139.616C124.828 139.482 124.549 139.283 124.321 139.034C124.093 138.784 123.921 138.489 123.816 138.167C123.71 137.846 123.675 137.506 123.711 137.169L123.96 134.349C124.033 133.634 124.365 132.971 124.894 132.484C125.423 131.997 126.112 131.721 126.831 131.708H176.04C176.378 131.702 176.713 131.769 177.024 131.903C177.335 132.037 177.613 132.235 177.841 132.485C178.069 132.735 178.242 133.03 178.347 133.351C178.452 133.673 178.488 134.013 178.451 134.349L178.209 137.169C178.134 137.886 177.8 138.55 177.268 139.037C176.737 139.524 176.046 139.799 175.325 139.811Z" fill="white"/>
<path d="M174.266 151.933H125.057C124.719 151.938 124.384 151.872 124.074 151.738C123.763 151.604 123.485 151.405 123.258 151.155C123.03 150.906 122.858 150.61 122.754 150.289C122.649 149.967 122.615 149.627 122.652 149.291L122.894 146.471C122.969 145.757 123.302 145.094 123.83 144.608C124.359 144.121 125.047 143.845 125.765 143.83H174.974C175.312 143.824 175.648 143.891 175.958 144.025C176.269 144.159 176.548 144.357 176.776 144.607C177.004 144.857 177.176 145.152 177.281 145.473C177.386 145.795 177.422 146.135 177.386 146.471L177.137 149.291C177.063 150.006 176.73 150.668 176.201 151.155C175.672 151.641 174.984 151.918 174.266 151.933Z" fill="white"/>
<path opacity="0.1" d="M160.377 62.938C160.296 63.732 159.926 64.4686 159.338 65.0083C158.75 65.5481 157.985 65.8534 157.187 65.8664C156.812 65.8732 156.44 65.8 156.095 65.6517C155.751 65.5034 155.442 65.2833 155.189 65.0063C154.936 64.7292 154.745 64.4015 154.628 64.0449C154.512 63.6882 154.473 63.3109 154.514 62.938C154.595 62.144 154.964 61.4074 155.552 60.8677C156.14 60.3279 156.906 60.0226 157.704 60.0096C158.079 60.0028 158.451 60.076 158.796 60.2244C159.14 60.3727 159.449 60.5927 159.702 60.8697C159.955 61.1468 160.146 61.4745 160.262 61.8311C160.379 62.1878 160.418 62.5651 160.377 62.938Z" fill="black"/>
<path opacity="0.1" d="M159.05 62.938C159.005 63.3714 158.803 63.7734 158.482 64.0683C158.161 64.3633 157.744 64.5308 157.308 64.5393C157.103 64.5433 156.899 64.5035 156.711 64.4225C156.522 64.3414 156.353 64.2211 156.215 64.0695C156.077 63.918 155.972 63.7386 155.909 63.5435C155.845 63.3483 155.824 63.1419 155.847 62.938C155.891 62.504 156.092 62.1012 156.413 61.806C156.734 61.5108 157.153 61.3438 157.589 61.3366C157.794 61.3336 157.997 61.3742 158.185 61.4555C158.373 61.5369 158.541 61.6572 158.68 61.8086C158.818 61.9599 158.922 62.1389 158.986 62.3335C159.05 62.5282 159.071 62.7342 159.05 62.938Z" fill="black"/>
<g opacity="0.8">
<path d="M184.187 67.8251C184.077 67.8266 183.968 67.8048 183.867 67.761C183.766 67.7172 183.675 67.6524 183.601 67.571C183.527 67.4896 183.471 67.3934 183.437 67.2887C183.402 67.184 183.391 67.0733 183.402 66.9638L183.543 65.3943C183.566 65.1624 183.674 64.9471 183.846 64.7895C184.017 64.6319 184.241 64.5429 184.474 64.5394C184.584 64.5379 184.692 64.5596 184.793 64.6031C184.893 64.6465 184.984 64.7106 185.058 64.7913C185.132 64.872 185.188 64.9674 185.223 65.0713C185.257 65.1752 185.27 65.2853 185.259 65.3943L185.119 66.9638C185.095 67.1963 184.988 67.4123 184.816 67.5709C184.644 67.7296 184.421 67.82 184.187 67.8251Z" fill="white"/>
<path d="M191.052 67.825C190.942 67.8266 190.833 67.8047 190.732 67.7609C190.631 67.7171 190.54 67.6524 190.466 67.571C190.392 67.4896 190.336 67.3933 190.301 67.2887C190.267 67.184 190.256 67.0732 190.267 66.9637L190.593 63.2825C190.616 63.0506 190.724 62.8353 190.896 62.6777C191.067 62.5201 191.291 62.4311 191.524 62.4276C191.634 62.4261 191.742 62.4478 191.843 62.4912C191.943 62.5347 192.034 62.5988 192.108 62.6795C192.182 62.7602 192.238 62.8556 192.273 62.9595C192.307 63.0634 192.32 63.1735 192.309 63.2825L191.983 66.9637C191.96 67.1963 191.853 67.4122 191.681 67.5709C191.509 67.7296 191.286 67.82 191.052 67.825Z" fill="white"/>
<path d="M187.62 67.8251C187.509 67.8266 187.4 67.8048 187.299 67.761C187.198 67.7172 187.108 67.6524 187.033 67.571C186.959 67.4896 186.903 67.3934 186.869 67.2887C186.835 67.184 186.823 67.0733 186.835 66.9638L187.065 64.3416C187.088 64.108 187.197 63.8912 187.369 63.7323C187.542 63.5735 187.768 63.4838 188.002 63.4803C188.112 63.4787 188.221 63.5005 188.322 63.5443C188.423 63.5882 188.513 63.6531 188.587 63.7346C188.66 63.8161 188.716 63.9125 188.749 64.0172C188.783 64.1218 188.794 64.2325 188.781 64.3416L188.551 66.9638C188.528 67.1963 188.42 67.4123 188.249 67.571C188.077 67.7296 187.853 67.82 187.62 67.8251Z" fill="white"/>
</g>
<g opacity="0.8">
<path d="M125.408 67.8251H121.095C121.033 67.8265 120.971 67.8145 120.914 67.7899C120.857 67.7654 120.806 67.729 120.764 67.683C120.723 67.637 120.691 67.5826 120.672 67.5235C120.654 67.4644 120.648 67.4019 120.655 67.3402L120.853 65.0243C120.867 64.8928 120.928 64.771 121.026 64.6817C121.123 64.5924 121.25 64.5418 121.382 64.5394H125.695C125.757 64.5381 125.819 64.5501 125.876 64.5746C125.933 64.5991 125.984 64.6356 126.026 64.6815C126.067 64.7275 126.099 64.7819 126.118 64.841C126.137 64.9001 126.143 64.9626 126.135 65.0243L125.931 67.3402C125.92 67.4717 125.86 67.5943 125.763 67.684C125.667 67.7737 125.54 67.824 125.408 67.8251Z" fill="white"/>
<path d="M127.405 67.1935C127.343 67.1947 127.281 67.1827 127.223 67.1582C127.166 67.1338 127.115 67.0974 127.072 67.0516C127.03 67.0058 126.998 66.9515 126.979 66.8924C126.959 66.8332 126.952 66.7706 126.958 66.7086L127.054 65.6495C127.067 65.5175 127.128 65.3949 127.226 65.3053C127.323 65.2157 127.451 65.1656 127.584 65.1647C127.646 65.1633 127.707 65.1753 127.764 65.1998C127.821 65.2243 127.872 65.2608 127.914 65.3068C127.956 65.3527 127.987 65.4071 128.006 65.4662C128.025 65.5254 128.031 65.5879 128.024 65.6495L127.934 66.7086C127.92 66.8401 127.859 66.9619 127.761 67.0512C127.664 67.1405 127.537 67.1911 127.405 67.1935Z" fill="white"/>
</g>
<path d="M167.218 121.264C175.803 113.046 176.659 100.007 169.13 92.1424C161.601 84.2774 148.538 84.5641 139.953 92.7828C131.367 101.001 130.511 114.04 138.04 121.905C145.569 129.77 158.633 129.483 167.218 121.264Z" fill="white"/>
<path d="M153.659 106.239C148.249 106.239 143.674 108.3 143.285 112.772L142.851 117.742H162.457L162.891 112.772C163.28 108.3 159.075 106.239 153.659 106.239Z" fill="#468077"/>
<path d="M153.837 104.191C156.351 104.191 157.512 102.156 157.729 99.6421C157.946 97.1284 157.149 95.0932 154.635 95.0932C152.121 95.0932 150.966 97.1348 150.743 99.6421C150.52 102.149 151.324 104.191 153.837 104.191Z" fill="#468077"/>
<path d="M173.079 135.587C171.746 135.587 170.617 136.097 170.527 137.201L170.419 138.433H175.261L175.37 137.201C175.459 136.097 174.419 135.587 173.079 135.587Z" fill="#468077"/>
<path d="M173.124 135.083C173.762 135.083 174.03 134.579 174.088 133.96C174.145 133.341 173.941 132.837 173.322 132.837C172.703 132.837 172.416 133.341 172.359 133.96C172.301 134.579 172.505 135.083 173.124 135.083Z" fill="#468077"/>
<path d="M158.176 164.055H139.036C138.517 164.064 138.002 163.963 137.525 163.758C137.048 163.553 136.621 163.248 136.27 162.865C135.92 162.482 135.656 162.028 135.495 161.535C135.334 161.041 135.279 160.519 135.335 160.003C135.449 158.906 135.96 157.889 136.772 157.142C137.584 156.396 138.641 155.973 139.744 155.952H158.884C159.403 155.944 159.917 156.046 160.394 156.251C160.87 156.457 161.297 156.761 161.647 157.144C161.997 157.527 162.261 157.98 162.423 158.473C162.585 158.966 162.64 159.487 162.584 160.003C162.472 161.101 161.962 162.119 161.149 162.866C160.337 163.612 159.279 164.035 158.176 164.055Z" fill="#468077"/>
<path d="M155.86 209.238H135.374C134.824 209.253 134.278 209.149 133.772 208.934C133.266 208.719 132.812 208.397 132.442 207.991C132.071 207.585 131.793 207.103 131.625 206.58C131.457 206.056 131.404 205.503 131.469 204.957L132.777 190.015C132.894 188.856 133.432 187.78 134.289 186.991C135.146 186.202 136.263 185.755 137.428 185.734H157.921C158.469 185.724 159.013 185.831 159.516 186.048C160.019 186.265 160.471 186.587 160.84 186.992C161.21 187.397 161.489 187.876 161.658 188.397C161.828 188.919 161.885 189.47 161.825 190.015L160.517 204.957C160.398 206.116 159.858 207.191 159 207.98C158.142 208.768 157.025 209.216 155.86 209.238Z" fill="#468077"/>
<g opacity="0.6">
<path d="M149.544 193.785C149.577 193.459 149.541 193.13 149.438 192.819C149.334 192.508 149.166 192.222 148.944 191.981C148.722 191.74 148.452 191.548 148.15 191.419C147.849 191.291 147.524 191.227 147.196 191.233C146.498 191.243 145.828 191.509 145.312 191.979C144.796 192.449 144.47 193.091 144.395 193.785C144.354 194.174 144.412 194.566 144.562 194.926C144.713 195.286 144.952 195.602 145.256 195.846L144.81 200.995C144.788 201.19 144.808 201.387 144.869 201.574C144.929 201.761 145.029 201.932 145.161 202.077C145.294 202.222 145.455 202.337 145.636 202.415C145.816 202.492 146.011 202.53 146.207 202.526C146.623 202.517 147.021 202.357 147.326 202.075C147.632 201.793 147.824 201.409 147.866 200.995L148.319 195.846C148.66 195.612 148.947 195.307 149.159 194.951C149.37 194.595 149.502 194.197 149.544 193.785Z" fill="white"/>
</g>
<path d="M158.099 188.847H155.458L156.096 181.453C156.207 180.427 156.099 179.388 155.779 178.407C155.458 177.426 154.933 176.524 154.237 175.761C153.541 174.999 152.691 174.393 151.744 173.984C150.796 173.574 149.772 173.372 148.74 173.389C146.546 173.431 144.444 174.275 142.829 175.76C141.215 177.246 140.199 179.27 139.974 181.453L139.336 188.847H136.694L137.332 181.453C137.63 178.557 138.977 175.869 141.119 173.898C143.262 171.927 146.052 170.809 148.963 170.754C150.333 170.73 151.692 170.999 152.951 171.541C154.209 172.083 155.338 172.887 156.261 173.899C157.185 174.911 157.883 176.108 158.309 177.41C158.735 178.713 158.879 180.091 158.731 181.453L158.099 188.847Z" fill="#468077"/>
<path d="M173.405 146.912L173.488 146.191C173.505 146.024 173.486 145.855 173.434 145.695C173.381 145.536 173.295 145.389 173.182 145.265C173.069 145.141 172.931 145.042 172.777 144.975C172.623 144.908 172.456 144.875 172.288 144.876C171.931 144.884 171.588 145.021 171.325 145.263C171.062 145.505 170.896 145.835 170.859 146.191L170.795 146.899C170.652 146.903 170.516 146.959 170.411 147.056C170.307 147.154 170.242 147.286 170.228 147.428L170.062 149.342C170.053 149.409 170.06 149.477 170.08 149.541C170.101 149.606 170.135 149.665 170.18 149.714C170.226 149.764 170.281 149.803 170.344 149.829C170.406 149.856 170.473 149.868 170.54 149.866H173.169C173.311 149.863 173.448 149.808 173.552 149.712C173.657 149.616 173.723 149.484 173.737 149.342L173.902 147.428C173.908 147.361 173.899 147.293 173.876 147.229C173.853 147.165 173.817 147.107 173.77 147.058C173.723 147.009 173.666 146.971 173.603 146.945C173.54 146.92 173.473 146.909 173.405 146.912ZM172.212 145.214C172.338 145.213 172.464 145.238 172.58 145.288C172.696 145.339 172.8 145.413 172.886 145.506C172.971 145.6 173.036 145.71 173.076 145.83C173.116 145.95 173.13 146.077 173.118 146.203L173.054 146.912H171.076L171.14 146.203C171.168 145.936 171.292 145.689 171.489 145.507C171.687 145.325 171.943 145.221 172.212 145.214Z" fill="#468077"/>
<path d="M133.836 147.671L132.918 147.479C132.892 147.474 132.868 147.463 132.847 147.447C132.826 147.431 132.81 147.411 132.798 147.388C132.786 147.364 132.78 147.339 132.78 147.312C132.779 147.286 132.785 147.26 132.796 147.237L133.179 146.331C133.195 146.292 133.197 146.248 133.183 146.208C133.17 146.168 133.143 146.134 133.107 146.112C133.071 146.089 133.029 146.081 132.987 146.087C132.945 146.093 132.907 146.114 132.879 146.146L132.184 146.86C132.167 146.882 132.146 146.899 132.121 146.911C132.097 146.922 132.07 146.929 132.043 146.929C132.016 146.929 131.99 146.922 131.965 146.911C131.941 146.899 131.92 146.882 131.903 146.86L131.335 146.146C131.214 145.993 130.952 146.146 130.997 146.331L131.22 147.237C131.227 147.263 131.228 147.291 131.223 147.318C131.219 147.345 131.209 147.37 131.194 147.393C131.179 147.416 131.159 147.435 131.136 147.45C131.113 147.465 131.088 147.475 131.061 147.479L130.11 147.671C129.906 147.709 129.881 147.996 130.078 148.034L130.997 148.226C131.023 148.231 131.047 148.241 131.068 148.257C131.088 148.273 131.105 148.294 131.116 148.318C131.127 148.341 131.133 148.367 131.132 148.394C131.131 148.42 131.124 148.445 131.112 148.468L130.742 149.381C130.726 149.42 130.724 149.463 130.738 149.503C130.751 149.544 130.778 149.578 130.814 149.6C130.85 149.622 130.892 149.631 130.934 149.625C130.976 149.618 131.014 149.597 131.042 149.566L131.737 148.851C131.755 148.832 131.777 148.816 131.801 148.806C131.825 148.795 131.851 148.79 131.878 148.79C131.904 148.79 131.93 148.795 131.954 148.806C131.978 148.816 132 148.832 132.018 148.851L132.586 149.566C132.707 149.719 132.969 149.566 132.918 149.381L132.694 148.475C132.685 148.421 132.697 148.365 132.728 148.32C132.759 148.274 132.806 148.243 132.86 148.232L133.811 148.041C134.008 147.996 134.034 147.709 133.836 147.671Z" fill="#263238"/>
<path d="M139.872 147.671L138.953 147.479C138.927 147.474 138.903 147.463 138.883 147.447C138.862 147.431 138.845 147.411 138.833 147.388C138.822 147.364 138.815 147.339 138.815 147.312C138.815 147.286 138.821 147.26 138.832 147.237L139.214 146.331C139.23 146.292 139.232 146.248 139.219 146.208C139.206 146.168 139.179 146.134 139.143 146.112C139.107 146.089 139.064 146.081 139.022 146.087C138.981 146.093 138.942 146.114 138.915 146.146L138.219 146.86C138.202 146.882 138.181 146.899 138.157 146.911C138.133 146.922 138.106 146.929 138.079 146.929C138.052 146.929 138.025 146.922 138.001 146.911C137.977 146.899 137.955 146.882 137.938 146.86L137.371 146.146C137.249 145.993 136.988 146.146 137.039 146.331L137.262 147.237C137.268 147.264 137.268 147.291 137.262 147.318C137.257 147.345 137.246 147.371 137.231 147.393C137.215 147.416 137.195 147.435 137.172 147.45C137.149 147.465 137.123 147.475 137.096 147.479L136.146 147.671C135.942 147.709 135.916 147.996 136.114 148.034L137.033 148.226C137.058 148.231 137.082 148.242 137.103 148.258C137.124 148.274 137.14 148.294 137.152 148.318C137.164 148.341 137.17 148.367 137.17 148.393C137.171 148.419 137.165 148.445 137.154 148.468L136.771 149.374C136.755 149.413 136.753 149.457 136.767 149.497C136.78 149.537 136.807 149.571 136.843 149.594C136.879 149.616 136.921 149.624 136.963 149.618C137.005 149.612 137.043 149.591 137.071 149.559L137.766 148.845C137.784 148.825 137.806 148.81 137.83 148.799C137.854 148.789 137.88 148.783 137.907 148.783C137.933 148.783 137.959 148.789 137.983 148.799C138.007 148.81 138.029 148.825 138.047 148.845L138.615 149.559C138.736 149.712 138.998 149.559 138.953 149.374L138.73 148.468C138.724 148.442 138.724 148.415 138.729 148.388C138.734 148.362 138.744 148.336 138.759 148.314C138.774 148.291 138.793 148.272 138.815 148.257C138.838 148.242 138.863 148.231 138.889 148.226L139.84 148.034C140.044 147.996 140.069 147.709 139.872 147.671Z" fill="#263238"/>
<path d="M145.907 147.671L144.995 147.479C144.968 147.475 144.943 147.465 144.922 147.45C144.901 147.434 144.883 147.413 144.871 147.39C144.859 147.366 144.853 147.34 144.854 147.313C144.854 147.286 144.861 147.26 144.873 147.237L145.256 146.331C145.281 146.29 145.288 146.242 145.277 146.196C145.265 146.15 145.236 146.11 145.196 146.085C145.155 146.061 145.106 146.053 145.06 146.065C145.014 146.076 144.975 146.105 144.95 146.146L144.261 146.861C144.244 146.882 144.222 146.899 144.197 146.911C144.172 146.923 144.145 146.929 144.117 146.929C144.09 146.929 144.063 146.923 144.038 146.911C144.013 146.899 143.991 146.882 143.974 146.861L143.406 146.146C143.285 145.993 143.023 146.146 143.074 146.331L143.298 147.237C143.303 147.263 143.303 147.291 143.298 147.317C143.293 147.344 143.283 147.369 143.268 147.391C143.254 147.414 143.234 147.433 143.212 147.448C143.19 147.464 143.165 147.474 143.138 147.479L142.187 147.671C141.983 147.709 141.958 147.996 142.156 148.034L143.068 148.226C143.093 148.231 143.118 148.242 143.138 148.258C143.159 148.274 143.176 148.294 143.187 148.318C143.199 148.341 143.205 148.367 143.206 148.393C143.206 148.419 143.2 148.445 143.189 148.468L142.806 149.374C142.782 149.415 142.774 149.464 142.786 149.51C142.797 149.556 142.826 149.595 142.867 149.62C142.908 149.644 142.956 149.652 143.002 149.64C143.048 149.629 143.088 149.6 143.113 149.559L143.802 148.845C143.82 148.825 143.841 148.81 143.865 148.799C143.89 148.789 143.916 148.783 143.942 148.783C143.968 148.783 143.994 148.789 144.019 148.799C144.043 148.81 144.064 148.825 144.082 148.845L144.657 149.559C144.778 149.712 145.039 149.559 144.988 149.374L144.765 148.468C144.755 148.415 144.767 148.36 144.796 148.315C144.826 148.27 144.872 148.238 144.924 148.226L145.875 148.034C146.054 147.996 146.105 147.709 145.907 147.671Z" fill="#263238"/>
<path d="M151.949 147.671L151.03 147.479C151.005 147.474 150.981 147.463 150.96 147.447C150.939 147.431 150.922 147.411 150.911 147.388C150.899 147.364 150.893 147.339 150.893 147.312C150.892 147.286 150.898 147.26 150.909 147.237L151.292 146.331C151.308 146.292 151.309 146.248 151.296 146.208C151.283 146.168 151.256 146.134 151.22 146.112C151.184 146.089 151.142 146.081 151.1 146.087C151.058 146.093 151.02 146.114 150.992 146.146L150.297 146.86C150.28 146.882 150.259 146.899 150.234 146.911C150.21 146.922 150.183 146.929 150.156 146.929C150.129 146.929 150.103 146.922 150.078 146.911C150.054 146.899 150.033 146.882 150.016 146.86L149.448 146.146C149.327 145.993 149.065 146.146 149.11 146.331L149.333 147.237C149.34 147.263 149.341 147.291 149.336 147.318C149.332 147.345 149.321 147.37 149.306 147.393C149.291 147.416 149.272 147.435 149.249 147.45C149.226 147.465 149.201 147.475 149.174 147.479L148.223 147.671C148.019 147.709 147.993 147.996 148.223 148.034L149.142 148.226C149.168 148.231 149.192 148.241 149.212 148.257C149.233 148.273 149.25 148.294 149.261 148.318C149.272 148.341 149.278 148.367 149.277 148.394C149.276 148.42 149.269 148.445 149.257 148.468L148.88 149.374C148.864 149.413 148.863 149.457 148.876 149.497C148.889 149.537 148.916 149.571 148.952 149.594C148.988 149.616 149.031 149.624 149.072 149.618C149.114 149.612 149.152 149.591 149.18 149.559L149.876 148.845C149.893 148.825 149.915 148.81 149.939 148.799C149.963 148.789 149.99 148.783 150.016 148.783C150.042 148.783 150.068 148.789 150.092 148.799C150.117 148.81 150.138 148.825 150.156 148.845L150.724 149.559C150.845 149.712 151.107 149.559 151.056 149.374L150.833 148.468C150.823 148.414 150.835 148.359 150.866 148.313C150.897 148.268 150.945 148.237 150.998 148.226L151.949 148.034C152.121 147.996 152.147 147.709 151.949 147.671Z" fill="#263238"/>
<path d="M157.984 147.671L157.066 147.479C157.04 147.474 157.016 147.463 156.995 147.447C156.975 147.431 156.958 147.411 156.946 147.388C156.934 147.364 156.928 147.339 156.928 147.312C156.928 147.286 156.933 147.26 156.944 147.237L157.327 146.331C157.343 146.292 157.345 146.248 157.332 146.208C157.319 146.168 157.292 146.134 157.256 146.112C157.22 146.089 157.177 146.081 157.135 146.087C157.093 146.093 157.055 146.114 157.027 146.146L156.332 146.86C156.315 146.882 156.294 146.899 156.27 146.911C156.245 146.922 156.219 146.929 156.192 146.929C156.165 146.929 156.138 146.922 156.114 146.911C156.089 146.899 156.068 146.882 156.051 146.86L155.483 146.146C155.362 145.993 155.101 146.146 155.152 146.331L155.375 147.237C155.381 147.264 155.381 147.291 155.375 147.318C155.37 147.345 155.359 147.371 155.344 147.393C155.328 147.416 155.308 147.435 155.285 147.45C155.262 147.465 155.236 147.475 155.209 147.479L154.259 147.671C154.054 147.709 154.029 147.996 154.227 148.034L155.145 148.226C155.171 148.231 155.195 148.242 155.216 148.258C155.236 148.274 155.253 148.294 155.265 148.318C155.277 148.341 155.283 148.367 155.283 148.393C155.283 148.419 155.278 148.445 155.267 148.468L154.884 149.374C154.868 149.413 154.866 149.457 154.879 149.497C154.893 149.537 154.919 149.571 154.955 149.594C154.991 149.616 155.034 149.624 155.076 149.618C155.118 149.612 155.156 149.591 155.184 149.559L155.879 148.845C155.897 148.825 155.919 148.81 155.943 148.799C155.967 148.789 155.993 148.783 156.019 148.783C156.046 148.783 156.072 148.789 156.096 148.799C156.12 148.81 156.142 148.825 156.16 148.845L156.728 149.559C156.849 149.712 157.11 149.559 157.066 149.374L156.842 148.468C156.837 148.442 156.837 148.415 156.842 148.388C156.847 148.362 156.857 148.336 156.872 148.314C156.886 148.291 156.906 148.272 156.928 148.257C156.95 148.242 156.975 148.231 157.002 148.226L157.953 148.034C158.176 147.996 158.176 147.709 157.984 147.671Z" fill="#263238"/>
<path d="M164.02 147.671L163.101 147.479C163.075 147.475 163.051 147.464 163.03 147.448C163.01 147.432 162.993 147.411 162.982 147.387C162.971 147.364 162.965 147.338 162.966 147.312C162.967 147.286 162.974 147.26 162.986 147.237L163.369 146.331C163.381 146.311 163.389 146.289 163.393 146.265C163.396 146.242 163.395 146.218 163.39 146.196C163.384 146.173 163.374 146.151 163.36 146.132C163.346 146.113 163.329 146.097 163.308 146.085C163.288 146.073 163.266 146.065 163.243 146.062C163.22 146.058 163.196 146.059 163.173 146.065C163.15 146.07 163.129 146.08 163.11 146.094C163.091 146.108 163.075 146.126 163.063 146.146L162.374 146.861C162.356 146.882 162.335 146.899 162.31 146.911C162.285 146.923 162.258 146.929 162.23 146.929C162.203 146.929 162.176 146.923 162.151 146.911C162.126 146.899 162.104 146.882 162.087 146.861L161.519 146.146C161.398 145.993 161.136 146.146 161.187 146.331L161.41 147.237C161.416 147.263 161.416 147.291 161.411 147.317C161.406 147.344 161.396 147.369 161.381 147.391C161.366 147.414 161.347 147.433 161.325 147.448C161.302 147.464 161.277 147.474 161.251 147.479L160.3 147.671C160.096 147.709 160.071 147.996 160.268 148.034L161.181 148.226C161.206 148.231 161.23 148.242 161.251 148.258C161.272 148.274 161.289 148.294 161.3 148.318C161.312 148.341 161.318 148.367 161.318 148.393C161.319 148.419 161.313 148.445 161.302 148.468L160.919 149.374C160.895 149.415 160.887 149.464 160.899 149.51C160.91 149.556 160.939 149.595 160.98 149.62C161.02 149.644 161.069 149.652 161.115 149.64C161.161 149.629 161.201 149.6 161.225 149.559L161.914 148.845C161.932 148.825 161.954 148.81 161.978 148.799C162.002 148.789 162.028 148.783 162.055 148.783C162.081 148.783 162.107 148.789 162.131 148.799C162.155 148.81 162.177 148.825 162.195 148.845L162.763 149.559C162.793 149.593 162.833 149.615 162.877 149.623C162.921 149.63 162.966 149.623 163.006 149.601C163.045 149.58 163.076 149.546 163.093 149.504C163.11 149.463 163.113 149.417 163.101 149.374L162.878 148.468C162.868 148.415 162.879 148.36 162.909 148.315C162.939 148.27 162.985 148.238 163.037 148.226L163.988 148.034C164.192 147.996 164.218 147.709 164.02 147.671Z" fill="#263238"/>
<path d="M149.467 134.458H138.136C137.789 134.464 137.455 134.597 137.199 134.832C136.943 135.067 136.781 135.388 136.745 135.734C136.727 135.897 136.744 136.061 136.795 136.217C136.845 136.373 136.929 136.516 137.039 136.637C137.15 136.758 137.285 136.854 137.436 136.918C137.587 136.982 137.749 137.014 137.913 137.01H149.244C149.592 137.004 149.925 136.871 150.181 136.636C150.438 136.401 150.599 136.08 150.635 135.734C150.652 135.571 150.634 135.407 150.583 135.252C150.532 135.096 150.449 134.954 150.338 134.833C150.228 134.712 150.093 134.616 149.943 134.552C149.793 134.487 149.631 134.455 149.467 134.458Z" fill="#263238"/>
<path d="M160.977 134.458H154.399C154.052 134.464 153.719 134.597 153.464 134.832C153.209 135.068 153.049 135.388 153.014 135.734C152.996 135.896 153.013 136.06 153.063 136.216C153.114 136.371 153.196 136.514 153.306 136.634C153.416 136.755 153.551 136.851 153.701 136.916C153.85 136.981 154.012 137.013 154.176 137.01H160.728C161.075 137.004 161.408 136.87 161.663 136.635C161.918 136.4 162.078 136.079 162.112 135.734C162.13 135.574 162.114 135.412 162.065 135.258C162.017 135.105 161.936 134.963 161.829 134.843C161.722 134.722 161.591 134.626 161.444 134.56C161.297 134.493 161.138 134.459 160.977 134.458Z" fill="#263238"/>
<path d="M169.66 192.293C165.655 193.818 162.039 196.215 159.075 199.311C157.276 197.913 155.13 197.031 152.868 196.759L152.568 196.714L152.44 198.22L152.606 198.283C155.087 199.197 157.185 200.924 158.559 203.183L158.776 203.54L159.012 203.158C161.654 198.94 165.382 195.511 169.807 193.23L169.953 193.154L170.036 192.159L169.66 192.293Z" fill="#263238"/>
<path opacity="0.2" d="M112.648 66.6766C111.835 68.0963 111.335 69.6734 111.181 71.3021L101.681 179.903H131.08L136.988 157.26L135.042 134.611L140.95 111.968L139.036 89.3256L144.944 66.6766H112.648Z" fill="black"/>
<path d="M136.452 82.9458L142.36 60.2968H68.0137L62.1122 82.9458L64.0517 105.588L58.1502 128.231L60.0897 150.88L54.1882 173.523H128.528L134.436 150.88L132.49 128.231L138.398 105.588L136.452 82.9458Z" fill="#468077"/>
<path opacity="0.7" d="M136.452 82.9458L142.36 60.2968H68.0137L62.1122 82.9458L64.0517 105.588L58.1502 128.231L60.0897 150.88L54.1882 173.523H128.528L134.436 150.88L132.49 128.231L138.398 105.588L136.452 82.9458Z" fill="white"/>
<path opacity="0.5" d="M136.452 82.9458H62.1123L68.0138 60.2968H142.36L136.452 82.9458Z" fill="white"/>
<path opacity="0.5" d="M132.49 128.231H58.1501L64.0516 105.588H138.398L132.49 128.231Z" fill="white"/>
<path opacity="0.5" d="M128.528 173.523H54.1819L60.0898 150.88H134.436L128.528 173.523Z" fill="white"/>
<path opacity="0.2" d="M126.505 92.4072C125.743 92.6277 124.952 92.7351 124.158 92.7262C123.081 92.7739 122.009 92.5547 121.038 92.0882C120.862 91.9841 120.661 91.929 120.457 91.9287C120.27 91.9313 120.086 91.9795 119.921 92.0691H119.883C119.598 92.229 119.293 92.3513 118.977 92.4327C118.263 92.6212 117.527 92.7134 116.789 92.7071C116.565 92.7071 116.348 92.7071 116.151 92.7071C115.578 92.6703 115.011 92.5697 114.46 92.4072C114.379 92.3831 114.296 92.3681 114.211 92.3626C114.071 92.3511 113.93 92.3688 113.797 92.4146C113.663 92.4603 113.541 92.5331 113.437 92.6284C113.334 92.7237 113.251 92.8394 113.194 92.9682C113.137 93.097 113.108 93.2362 113.107 93.377V94.066H84.1677C83.636 94.066 83.1095 94.1708 82.6183 94.3745C82.1272 94.5782 81.681 94.8767 81.3053 95.253C80.9296 95.6293 80.6318 96.0759 80.4289 96.5674C80.226 97.0589 80.122 97.5856 80.1228 98.1173V102.194C80.1211 102.726 80.2245 103.254 80.4271 103.746C80.6296 104.238 80.9273 104.686 81.303 105.063C81.6788 105.44 82.1253 105.739 82.6169 105.943C83.1084 106.147 83.6355 106.252 84.1677 106.252H117.044H117.261C117.612 106.545 117.982 106.839 118.377 107.139C118.773 107.438 119.334 107.853 119.851 108.223C120.027 108.351 120.24 108.42 120.457 108.42C120.675 108.42 120.887 108.351 121.063 108.223C125.198 105.225 127.852 103.158 127.852 97.4793V93.3961C127.854 93.2328 127.817 93.0714 127.744 92.9253C127.671 92.7791 127.564 92.6524 127.433 92.5558C127.301 92.4591 127.148 92.3952 126.987 92.3693C126.826 92.3435 126.661 92.3565 126.505 92.4072Z" fill="black"/>
<path d="M116.412 91.8267H83.5425C81.305 91.8267 79.4912 93.6405 79.4912 95.878V99.9548C79.4912 102.192 81.305 104.006 83.5425 104.006H116.412C118.65 104.006 120.464 102.192 120.464 99.9548V95.878C120.464 93.6405 118.65 91.8267 116.412 91.8267Z" fill="#468077"/>
<path d="M123.526 90.4805C122.45 90.5265 121.378 90.3074 120.406 89.8425C120.234 89.7364 120.035 89.6802 119.832 89.6802C119.629 89.6802 119.431 89.7364 119.258 89.8425C118.284 90.3082 117.21 90.5273 116.132 90.4805C115.338 90.4889 114.547 90.3814 113.784 90.1615C113.63 90.1098 113.466 90.0954 113.306 90.1197C113.146 90.1439 112.993 90.206 112.862 90.3007C112.73 90.3955 112.623 90.5203 112.549 90.6647C112.476 90.8091 112.437 90.9691 112.438 91.1312V95.2144C112.438 100.899 115.092 102.966 119.226 105.965C119.402 106.092 119.614 106.161 119.832 106.161C120.05 106.161 120.262 106.092 120.438 105.965C124.573 102.966 127.227 100.899 127.227 95.2144V91.1312C127.226 90.9688 127.187 90.8089 127.112 90.6645C127.038 90.5202 126.93 90.3956 126.798 90.3009C126.666 90.2063 126.513 90.1443 126.353 90.1201C126.192 90.0958 126.028 90.11 125.874 90.1615C125.111 90.3819 124.32 90.4894 123.526 90.4805Z" fill="#468077"/>
<path opacity="0.3" d="M123.526 90.4805C122.45 90.5265 121.378 90.3074 120.406 89.8425C120.234 89.7364 120.035 89.6802 119.832 89.6802C119.629 89.6802 119.431 89.7364 119.258 89.8425C118.284 90.3082 117.21 90.5273 116.132 90.4805C115.338 90.4889 114.547 90.3814 113.784 90.1615C113.63 90.1098 113.466 90.0954 113.306 90.1197C113.146 90.1439 112.993 90.206 112.862 90.3007C112.73 90.3955 112.623 90.5203 112.549 90.6647C112.476 90.8091 112.437 90.9691 112.438 91.1312V95.2144C112.438 100.899 115.092 102.966 119.226 105.965C119.402 106.092 119.614 106.161 119.832 106.161C120.05 106.161 120.262 106.092 120.438 105.965C124.573 102.966 127.227 100.899 127.227 95.2144V91.1312C127.226 90.9688 127.187 90.8089 127.112 90.6645C127.038 90.5202 126.93 90.3956 126.798 90.3009C126.666 90.2063 126.513 90.1443 126.353 90.1201C126.192 90.0958 126.028 90.11 125.874 90.1615C125.111 90.3819 124.32 90.4894 123.526 90.4805Z" fill="white"/>
<path opacity="0.2" d="M119.258 89.8297C118.284 90.2954 117.21 90.5145 116.132 90.4677C115.338 90.4757 114.547 90.3682 113.784 90.1487C113.63 90.097 113.466 90.0827 113.306 90.1069C113.146 90.1311 112.993 90.1932 112.862 90.288C112.73 90.3828 112.623 90.5075 112.549 90.6519C112.476 90.7964 112.437 90.9563 112.438 91.1184V95.2016C112.438 100.886 115.092 102.953 119.226 105.952C119.411 106.086 119.635 106.156 119.864 106.15V89.6638C119.65 89.6596 119.44 89.7172 119.258 89.8297Z" fill="white"/>
<path d="M125.759 94.1043C123.272 95.0787 121.057 96.6392 119.302 98.6532C118.079 97.7513 116.644 97.178 115.136 96.9881H114.938V97.9642L115.047 98.0025C116.724 98.6079 118.17 99.7234 119.181 101.192L119.341 101.422L119.475 101.173C120.941 98.4476 123.175 96.2117 125.899 94.7423L125.995 94.6976V94.0596L125.759 94.1043Z" fill="#263238"/>
<path d="M141.046 66.6703H138.226C137.863 66.677 137.503 66.6063 137.17 66.4629C136.836 66.3195 136.537 66.1066 136.293 65.8386C136.048 65.5705 135.864 65.2533 135.751 64.9083C135.639 64.5632 135.602 64.1982 135.642 63.8376L135.891 61.0176C135.967 60.2507 136.322 59.5385 136.889 59.0164C137.456 58.4942 138.195 58.1983 138.966 58.1849H141.786C142.149 58.1772 142.51 58.2472 142.844 58.3903C143.178 58.5333 143.478 58.746 143.723 59.0142C143.968 59.2824 144.153 59.5998 144.266 59.9453C144.378 60.2908 144.416 60.6564 144.376 61.0176L144.127 63.8376C144.041 64.6019 143.682 65.3095 143.116 65.83C142.55 66.3505 141.814 66.649 141.046 66.6703Z" fill="#468077"/>
<path d="M142.219 61.0112L141.607 60.335L140.063 61.7513L138.774 60.335L138.041 61.0112L139.336 62.4276L137.798 63.844L138.411 64.5139L139.948 63.0975L141.243 64.5139L141.971 63.844L140.675 62.4276L142.219 61.0112Z" fill="white"/>
<path d="M78.024 90.9971C79.6573 92.7772 81.214 94.621 82.7643 96.4775C84.3147 98.3341 85.814 100.229 87.3069 102.13C87.3707 102.213 87.3452 102.181 87.3579 102.207C87.3707 102.232 87.3579 102.239 87.3579 102.245C87.3691 102.269 87.3842 102.29 87.4026 102.309C87.457 102.386 87.5261 102.452 87.6061 102.502C87.686 102.553 87.7752 102.587 87.8683 102.602C87.9403 102.612 88.0133 102.612 88.0853 102.602C88.1235 102.605 88.1619 102.605 88.2001 102.602H88.2575C88.2894 102.602 88.2575 102.602 88.3596 102.564L89.9546 101.696C92.0983 100.561 94.2611 99.4506 96.4941 98.4553L98.3634 100.771C96.5643 102.424 94.6886 104.497 92.7937 106.016L91.3646 107.139C91.2758 107.211 91.182 107.277 91.0839 107.336C90.9755 107.413 90.8626 107.484 90.7457 107.547C90.5148 107.68 90.2762 107.799 90.0312 107.904C89.5368 108.112 89.018 108.255 88.4872 108.332C87.4138 108.489 86.3181 108.38 85.2972 108.013C84.7779 107.828 84.2846 107.577 83.8298 107.266C83.6001 107.113 83.3832 106.934 83.1918 106.762C83.0833 106.673 82.994 106.571 82.8919 106.475L82.6367 106.22C80.946 104.484 79.2809 102.736 77.6476 100.956C76.0143 99.1763 74.4002 97.3835 72.8562 95.5205L78.024 90.9971Z" fill="#468077"/>
<path d="M95.6521 99.8589L97.1386 95.0803L101.056 97.0326C101.056 97.0326 100.482 100.516 97.6363 101.122L95.6521 99.8589Z" fill="#468077"/>
<path d="M98.7018 93.7597L102.236 94.7295L101.05 97.0326L97.1323 95.0804L98.7018 93.7597Z" fill="#468077"/>
<path d="M57.4293 92.2987C57.0082 94.3275 56.485 96.3372 55.9427 98.3405C55.4004 100.344 54.8071 102.328 54.1882 104.312L53.9586 105.059L53.8437 105.429C53.8283 105.482 53.8069 105.533 53.7799 105.582C53.7072 105.787 53.6663 106.002 53.6587 106.22C53.6452 106.683 53.7744 107.14 54.0287 107.528C54.1542 107.698 54.2929 107.858 54.4434 108.006L54.973 108.587L56.0193 109.754C56.702 110.545 57.391 111.337 58.0418 112.166L55.8151 114.718C54.8964 114.195 54.016 113.627 53.1355 113.066L51.8276 112.198L51.1896 111.758C50.9727 111.605 50.7941 111.502 50.4432 111.215C49.1949 110.152 48.3335 108.705 47.9933 107.1C47.822 106.282 47.7811 105.443 47.872 104.612C47.872 104.408 47.9358 104.178 47.9677 103.974L48.0379 103.591L48.1719 102.826C48.5292 100.778 48.912 98.7361 49.3394 96.7072C49.7669 94.6784 50.2263 92.6559 50.7686 90.659L57.4293 92.2987Z" fill="#468077"/>
<path d="M55.8599 111.962L58.4884 110.616L59.6496 115.082C59.6496 115.082 57.5378 115.892 55.9045 114.852L55.8599 111.962Z" fill="#468077"/>
<path d="M62.1252 109.18L62.2464 113.289L59.3052 115.209L58.2844 110.699L62.1252 109.18Z" fill="#468077"/>
<path d="M70.7317 71.2064C70.7955 71.519 71.0188 71.7423 71.2229 71.704C71.4271 71.6657 71.5483 71.3723 71.4845 71.066C71.4207 70.7598 71.1974 70.5301 70.9932 70.5684C70.7891 70.6067 70.6679 70.9065 70.7317 71.2064Z" fill="#263238"/>
<path d="M70.9871 71.7487C71.5614 72.6385 72.2548 73.4456 73.0478 74.1475C72.8632 74.3464 72.6373 74.5025 72.3861 74.605C72.1348 74.7075 71.8642 74.7539 71.5932 74.7409L70.9871 71.7487Z" fill="#468077"/>
<path d="M69.2196 69.6879C69.1829 69.6875 69.147 69.6764 69.1164 69.6562C69.0857 69.6359 69.0615 69.6072 69.0467 69.5736C69.0319 69.54 69.0271 69.5028 69.0329 69.4665C69.0387 69.4302 69.0548 69.3963 69.0793 69.3689C69.279 69.1429 69.5293 68.9673 69.8099 68.8564C70.0904 68.7455 70.3931 68.7025 70.6934 68.7309C70.7181 68.7355 70.7417 68.7449 70.7628 68.7586C70.7838 68.7724 70.802 68.7901 70.8162 68.8108C70.8304 68.8316 70.8404 68.8549 70.8456 68.8795C70.8508 68.9041 70.8511 68.9295 70.8465 68.9542C70.8427 68.9787 70.834 69.0021 70.8209 69.0231C70.8078 69.0442 70.7907 69.0623 70.7704 69.0766C70.7502 69.0909 70.7273 69.101 70.7031 69.1062C70.6789 69.1115 70.6539 69.1119 70.6296 69.1073C70.3916 69.0845 70.1516 69.1189 69.9297 69.2077C69.7077 69.2965 69.5102 69.4371 69.3536 69.6177C69.3196 69.6574 69.2716 69.6825 69.2196 69.6879Z" fill="#263238"/>
<path d="M61.5317 75.6532C62.2335 78.5816 62.9417 83.9472 60.428 85.8931C60.428 85.8931 61.4105 88.8662 68.084 88.8662C75.421 88.8662 71.593 86.9522 71.593 86.9522C67.5863 86.1738 67.6884 82.6967 68.403 80.4191L61.5317 75.6532Z" fill="#468077"/>
<path d="M59.6433 86.4355C59.2095 85.6252 58.7246 84.6937 59.7199 84.4003C60.8172 84.0813 67.8544 83.4879 69.9279 84.0876C69.2899 85.2169 70.3681 86.6396 70.3681 86.6396L59.6433 86.4355Z" fill="#263238"/>
<path d="M65.4746 223.338H70.0746L70.534 214.074H65.9276L65.4746 223.338Z" fill="#468077"/>
<path d="M36.2607 222.062L40.9245 222.31L43.7572 213.181L39.0935 212.932L36.2607 222.062Z" fill="#468077"/>
<path d="M40.784 221.94L36.3882 220.99C36.3112 220.972 36.2306 220.982 36.1597 221.016C36.0889 221.051 36.0321 221.109 35.999 221.181L34.4742 224.492C34.4367 224.573 34.418 224.661 34.4198 224.749C34.4215 224.838 34.4436 224.925 34.4842 225.004C34.5249 225.083 34.5831 225.151 34.6543 225.204C34.7256 225.257 34.808 225.293 34.8953 225.309C36.4329 225.615 37.1985 225.685 39.1316 226.106C40.3183 226.362 43.0043 227.019 44.6439 227.382C46.2836 227.746 46.8514 226.164 46.2134 225.87C43.3424 224.562 42.143 223.408 41.3646 222.329C41.2249 222.133 41.0185 221.995 40.784 221.94Z" fill="#263238"/>
<path d="M69.8321 222.872H65.4618C65.3828 222.873 65.3064 222.9 65.2451 222.95C65.1837 223 65.1409 223.069 65.1237 223.146L64.3326 226.7C64.3122 226.786 64.3117 226.875 64.3311 226.962C64.3506 227.048 64.3895 227.129 64.4449 227.197C64.5003 227.266 64.5707 227.322 64.6507 227.359C64.7308 227.397 64.8184 227.416 64.9068 227.414C66.4826 227.414 68.7348 227.293 70.7445 227.293C73.0604 227.293 75.0574 227.421 77.7625 227.421C79.4022 227.421 79.8615 225.762 79.1725 225.609C76.0399 224.926 73.4879 224.85 70.7828 223.184C70.5001 222.996 70.1715 222.888 69.8321 222.872Z" fill="#263238"/>
<path d="M52.0895 87.2457C48.6188 88.8981 47.6746 98.9147 47.6746 98.9147L56.2684 102.883C57.7211 100.433 58.5125 97.6476 58.5652 94.7996C58.7375 89.6255 55.6432 85.5805 52.0895 87.2457Z" fill="#263238"/>
<path opacity="0.4" d="M56.7341 93.4215C55.1838 95.8331 55.3305 99.5591 55.8664 102.704L56.2492 102.883C57.7005 100.432 58.4918 97.6473 58.546 94.7996C58.546 94.4934 58.546 94.1616 58.546 93.8873L56.7341 93.4215Z" fill="black"/>
<path d="M76.0717 87.0033C76.0717 87.0033 80.3336 91.8138 76.3078 121.583H54.9156C54.7689 118.297 56.8296 102.277 53.6396 86.7991C56.0039 86.3443 58.395 86.0417 60.798 85.8931C63.8282 85.7208 66.8657 85.7208 69.8959 85.8931C71.9799 86.1042 74.0446 86.4754 76.0717 87.0033Z" fill="#468077"/>
<path opacity="0.6" d="M76.0717 87.0033C76.0717 87.0033 80.3336 91.8138 76.3078 121.583H54.9156C54.7689 118.297 56.8296 102.277 53.6396 86.7991C56.0039 86.3443 58.395 86.0417 60.798 85.8931C63.8282 85.7208 66.8657 85.7208 69.8959 85.8931C71.9799 86.1042 74.0446 86.4754 76.0717 87.0033Z" fill="#FAFAFA"/>
<path opacity="0.2" d="M77.9412 96.1012L77.8647 96.031L73.6092 93.7597C73.1754 100.312 76.1038 104.421 77.8455 106.213C78.0639 102.847 78.0958 99.4711 77.9412 96.1012Z" fill="black"/>
<path opacity="0.2" d="M70.5341 214.074L70.298 218.852H65.6917L65.9277 214.074H70.5341Z" fill="black"/>
<path opacity="0.2" d="M39.0933 212.938L43.7571 213.181L42.2961 217.889L37.6323 217.64L39.0933 212.938Z" fill="black"/>
<path d="M60.0517 72.6801C61.0789 76.5081 61.4872 78.8113 63.8797 80.4063C67.4397 82.8052 71.8675 80.049 72.0078 75.985C72.129 72.3292 70.432 66.6702 66.3169 65.8982C65.4083 65.7184 64.4689 65.7746 63.5882 66.0614C62.7076 66.3482 61.9152 66.856 61.2868 67.5362C60.6583 68.2165 60.2148 69.0466 59.9986 69.9472C59.7823 70.8477 59.8006 71.7887 60.0517 72.6801Z" fill="#468077"/>
<path d="M68.722 121.583C68.722 121.583 64.1795 152.149 61.704 163.608C58.9606 176.177 44.3249 217.647 44.3249 217.647L37.1602 216.096C37.1602 216.096 46.341 182.282 48.6442 164.75C49.5374 157.904 50.6156 146.886 51.9809 137.68C53.3016 128.748 54.9285 121.589 54.9285 121.589L68.722 121.583Z" fill="#263238"/>
<path d="M46.0413 215.254L44.7015 217.844L36.6499 216.096L37.3262 213.678L46.0413 215.254Z" fill="#468077"/>
<path opacity="0.6" d="M46.0413 215.254L44.7015 217.844L36.6499 216.096L37.3262 213.678L46.0413 215.254Z" fill="white"/>
<path opacity="0.6" d="M65.851 132.474C60.6003 133.501 61.1553 153.081 61.787 163.149C63.3054 156.028 65.5193 142.337 67.0313 132.614C66.6654 132.434 66.2489 132.384 65.851 132.474Z" fill="black"/>
<path d="M76.3079 121.583C76.3079 121.583 78.4452 151.492 78.0113 163.691C77.5583 176.381 71.542 217.921 71.542 217.921H64.7664C64.7664 217.921 64.5176 177.089 64.2178 164.654C63.886 151.065 62.2463 121.576 62.2463 121.576L76.3079 121.583Z" fill="#263238"/>
<path d="M72.8434 215.229C72.8753 215.229 72.4606 218.042 72.4606 218.042H64.2177L63.9944 215.528L72.8434 215.229Z" fill="#468077"/>
<path opacity="0.6" d="M72.8434 215.229C72.8753 215.229 72.4606 218.042 72.4606 218.042H64.2177L63.9944 215.528L72.8434 215.229Z" fill="white"/>
<path d="M73.5771 92.5985C73.5771 100.625 77.8454 103.929 77.8454 103.929L84.806 97.1538C83.1584 94.4005 81.2825 91.7904 79.1979 89.3511C75.1722 84.7383 73.5771 87.4435 73.5771 92.5985Z" fill="#263238"/>
<path opacity="0.2" d="M71.7398 77.4397C71.5978 77.8419 71.3597 78.2033 71.0461 78.4925C70.7325 78.7816 70.353 78.9896 69.9406 79.0985C69.487 79.191 69.0752 79.4271 68.7661 79.7718C68.457 80.1165 68.2671 80.5515 68.2244 81.0125C69.0505 80.7362 69.7996 80.2686 70.4105 79.6477C71.0214 79.0267 71.4769 78.2702 71.7398 77.4397Z" fill="black"/>
<path d="M69.9407 65.0561C71.3698 63.2505 69.1687 63.1421 69.1687 63.1421C69.7429 60.992 67.1654 62.1468 67.1654 62.1468C65.6214 60.0159 64.7473 62.6125 64.7473 62.6125C63.146 60.807 62.8333 63.7545 62.8333 63.7545C61.2256 61.4641 60.4089 64.769 60.4089 64.769C58.9288 62.3892 58.0228 65.4835 58.0228 65.4835C54.9668 64.3925 56.4151 67.5698 56.4151 67.5698C53.812 67.64 55.9047 69.6624 55.9047 69.6624C52.7785 69.6624 55.5346 71.4552 55.5346 71.4552C53.0528 73.0821 56.1726 73.5223 56.1726 73.5223C54.1502 76.7123 57.6273 75.5129 57.6273 75.5129C56.2173 78.6518 59.3371 77.2674 59.3371 77.2674C59.1393 80.2915 60.8811 79.4685 61.7232 78.907C61.8827 79.545 62.189 80.183 62.7504 80.2341C63.8414 80.3808 64.0264 78.3201 64.0264 78.3201C64.0264 78.3201 65.0344 79.1112 65.883 78.6837C66.7315 78.2563 66.4125 77.1781 66.4125 77.1781C66.5967 77.3158 66.8205 77.3902 67.0505 77.3902C67.2805 77.3902 67.5043 77.3158 67.6885 77.1781C68.0522 76.8973 68.0522 74.8685 67.5928 74.1539L69.2516 73.5159C69.2516 73.5159 70.483 73.3437 69.9343 71.7168C69.6032 70.7817 69.5742 69.7663 69.8513 68.8139C71.7271 67.9334 70.1831 66.8999 70.1831 66.8999C72.3587 65.5027 69.9407 65.0561 69.9407 65.0561Z" fill="#263238"/>
<path d="M66.5783 72.8205C66.838 73.7723 67.4056 74.6114 68.1924 75.2066C69.2324 75.985 70.0107 75.2066 69.9342 74.0391C69.8704 72.98 69.2451 71.302 68.0967 70.983C66.9483 70.664 66.3039 71.6912 66.5783 72.8205Z" fill="#468077"/>
</g>
<defs>
<clipPath id="clip0_414_753">
<rect width="250" height="250" fill="white"/>
</clipPath>
</defs>
</svg>
