<?xml version="1.0" encoding="UTF-8"?>
<svg id="Layer_2" data-name="Layer 2" xmlns="http://www.w3.org/2000/svg" viewBox="0 0 796.7 292.51">
  <defs>
    <style>
      .cls-1 {
        fill: #487f77;
      }
    </style>
  </defs>
  <g id="Layer_1-2" data-name="Layer 1">
    <g>
      <path class="cls-1" d="M275.43,.2V148.69c-8.99-10.24-18.54-19.52-30.34-26.32V44.16c-15.57,5.93-30.54,11.63-45.93,17.49v48.4c-10.52,.18-20.42,1.71-30.66,5.33V61.71c-20.44-7.12-40.45-14.09-61.16-21.31V240.57c-35.87,13.78-71.4,27.43-107.34,41.23V34.67c1.02-1.43,2.62-1.58,4.03-2.06C32,23.07,59.98,13.59,87.92,3.99c2.81-.96,5.26-.83,8.02,.15,27.73,9.81,55.5,19.48,83.23,29.29,3.08,1.09,5.73,1.02,8.79-.17,27.91-10.92,55.88-21.69,83.84-32.48,.99-.38,1.94-1.13,3.62-.57ZM30.75,55.74V236.98c15.52-5.98,30.55-11.76,45.42-17.49V40.22c-15.32,5.23-30.22,10.32-45.42,15.51Z"/>
      <path class="cls-1" d="M231.2,254.66c-35.7,18.11-67.7,4.05-83.04-18.74-15.91-23.64-13.57-54.78,5.69-75.25,20.34-21.63,51.11-26.52,75.84-11.7,14.35,8.6,24.27,20.84,28.53,37.3,4.23,16.35,1.75,31.86-6.2,47.08,12.87,12.9,25.64,25.71,37.92,38.02-7.14,7.17-14,14.07-21.03,21.14-12.27-12.31-25.04-25.12-37.72-37.85Zm-1.15-52.91c-.07-17.13-13.92-30.73-31.2-30.63-16.98,.1-30.56,13.82-30.56,30.85,0,17.17,13.8,30.92,30.98,30.88,17.13-.05,30.85-13.91,30.78-31.1Z"/>
    </g>
    <g>
      <path class="cls-1" d="M354.01,62.44h23.68c14.4,31.35,29,63.12,43.59,94.89,.54-.11,1.07-.22,1.61-.32-3.7-31.37-2.72-62.8-2.63-94.54h29.91V229.43h-22.14c-14.73-30.4-29.59-61.04-44.44-91.68-.5,.07-1,.15-1.49,.22,2.31,30.41,1.44,60.81,1.64,91.48h-29.73V62.44Z"/>
      <path class="cls-1" d="M661.11,107.68c10.61,11.55,17.57,24.7,20.14,40.09,3.6,21.53,2.42,42.46-7.49,62.37-3.15,6.32-7.42,11.8-12.08,17.06-2.27,2.56-5.11,2.93-8.15,2.9-14.16-.13-28.32-.38-42.48-.4-3.48,0-5.95-1.25-8.24-3.78-11.11-12.3-17.18-26.91-18.96-43.15-2.44-22.15-.29-43.59,12.14-62.96,.9-1.4,1.77-2.81,2.79-4.12,2.15-2.74,4.38-5.41,6.5-8h55.83Zm-19.92,96.7c12.23-15.86,12.14-58.04-.11-71.7-5.56-.23-11.33-.54-16.78,.13-12.12,16.53-12.04,56.93,.14,71.52,5.48,.51,11.24,.47,16.75,.06Z"/>
      <path class="cls-1" d="M491.31,107.66h55.76c10.67,11.45,17.63,24.6,20.2,39.98,3.63,21.68,2.57,42.8-7.6,62.81-3.19,6.29-7.44,11.8-12.19,16.98-1.89,2.06-4.22,2.63-6.75,2.61-14.99-.09-29.99-.28-44.98-.36-3.01-.01-4.91-1.65-6.76-3.67-11.06-12.11-17.16-26.54-19.04-42.62-2.61-22.32-.36-43.91,11.96-63.5,.8-1.26,1.59-2.54,2.51-3.71,2.25-2.87,4.58-5.69,6.88-8.53Zm18.75,96.98c4.84,0,9.32-.12,13.79,.04,3.32,.12,5.03-1.31,6.33-4.35,8.86-20.82,8.18-41.69,.77-62.69-.76-2.15-2.01-3.77-4.49-5.2-3.65,0-7.8,.16-11.94-.05-4.23-.21-6.41,1.96-7.74,5.62-3.77,10.42-5.84,21.14-5.52,32.22,.34,11.89,2.37,23.4,8.81,34.4Z"/>
      <path class="cls-1" d="M761.19,229.37h-32.5V91.22h-36.13v-28.81h104.15v28.33h-35.51V229.37Z"/>
    </g>
  </g>
</svg>