<svg width="16" height="14" viewBox="0 0 16 14" fill="none" xmlns="http://www.w3.org/2000/svg">
<path d="M5.33301 11.5232C5.33301 11.9302 5.61061 12.2849 6.00631 12.3836L9.5619 13.2704C10.1229 13.4103 10.6663 12.987 10.6663 12.41V1.82289C10.6663 1.41596 10.3887 1.06125 9.99301 0.962553L6.43745 0.0757409C5.87647 -0.0641803 5.33301 0.359148 5.33301 0.936082V11.5232Z" fill="#0D0D0D"/>
<path fill-rule="evenodd" clip-rule="evenodd" d="M3.55556 1.24241C3.55556 0.615023 2.92042 0.186019 2.33654 0.419029L0.558764 1.12848C0.221289 1.26315 0 1.58924 0 1.95186V12.457C0 13.0844 0.635138 13.5133 1.21901 13.2804L2.99679 12.5709C3.33427 12.4362 3.55556 12.1101 3.55556 11.7475V1.24241ZM12.4444 12.1022C12.4444 12.7297 13.0796 13.1586 13.6635 12.9256L15.4412 12.2162C15.7787 12.0815 16 11.7554 16 11.3928V0.887682C16 0.260298 15.3649 -0.168706 14.781 0.0643039L13.0032 0.773754C12.6658 0.908425 12.4444 1.23451 12.4444 1.59713V12.1022Z" fill="#0D0D0D"/>
</svg>