<svg xmlns="http://www.w3.org/2000/svg" version="1.1" xmlns:xlink="http://www.w3.org/1999/xlink" width="52" height="52" x="0" y="0" viewBox="0 0 512 512" style="enable-background:new 0 0 512 512" xml:space="preserve" class=""><g><path d="M147.131 278.805a12 12 0 0 1-12 12H78.748a12 12 0 1 1 0-24h56.383a12 12 0 0 1 12 12zm355.5 75.3c-13.844 44.4-44.116 72.965-92.547 87.32a11.993 11.993 0 0 1-6.82 0c-48.431-14.355-78.7-42.917-92.547-87.32-.427-1.37-.831-2.748-1.224-4.131H28.586A28.617 28.617 0 0 1 0 321.386V98.668a28.617 28.617 0 0 1 28.586-28.585h361.5a28.617 28.617 0 0 1 28.586 28.585v87.409l83.827 32.2a12 12 0 0 1 7.678 10.515c2.684 46.715 3.967 88.39-7.544 125.308zM24 98.668v53.819h370.676V98.668a4.647 4.647 0 0 0-4.586-4.585H28.586A4.647 4.647 0 0 0 24 98.668zm280.378 227.3c-4.451-29.611-3.228-61.962-1.207-97.181a12 12 0 0 1 7.678-10.515l83.827-32.2v-9.59H24v144.9a4.646 4.646 0 0 0 4.586 4.585zM486.651 237.9l-79.975-30.719L326.7 237.9c-2.221 41.19-2.776 77.928 6.931 109.062 11.112 35.642 34.37 58.09 73.045 70.406 38.675-12.316 61.932-34.764 73.045-70.406 9.707-31.138 9.152-67.876 6.93-109.062zm-42.3 28.178-43.575 43.575-10.256-10.256a12 12 0 0 0-16.971 16.97l18.74 18.733a12 12 0 0 0 16.971 0l52.059-52.059a12 12 0 0 0-16.97-16.971z" fill="#000000" opacity="1" data-original="#000000" class=""></path></g></svg>