<svg width="161" height="160" viewBox="0 0 161 160" fill="none" xmlns="http://www.w3.org/2000/svg">
<path d="M82.0689 156.761C122.215 156.761 154.759 137.972 154.759 114.794C154.759 91.6159 122.215 72.8264 82.0689 72.8264C41.9232 72.8264 9.37866 91.6159 9.37866 114.794C9.37866 137.972 41.9232 156.761 82.0689 156.761Z" fill="#F5F5F5"/>
<path d="M70.5056 129.493C79.9291 129.493 87.5684 125.083 87.5684 119.642C87.5684 114.201 79.9291 109.79 70.5056 109.79C61.082 109.79 53.4427 114.201 53.4427 119.642C53.4427 125.083 61.082 129.493 70.5056 129.493Z" fill="#E0E0E0"/>
<path d="M99.4334 138.642C110.843 138.642 120.093 133.301 120.093 126.714C120.093 120.127 110.843 114.787 99.4334 114.787C88.0234 114.787 78.7737 120.127 78.7737 126.714C78.7737 133.301 88.0234 138.642 99.4334 138.642Z" fill="#E0E0E0"/>
<path d="M76.3617 115.872C76.3617 115.005 75.7934 114.139 74.6499 113.484C72.3663 112.164 68.662 112.164 66.3784 113.484C65.2348 114.142 64.6631 115.009 64.6631 115.872V118.543C64.6631 119.41 65.2348 120.276 66.3784 120.934C68.662 122.251 72.3663 122.251 74.6499 120.934C75.7934 120.272 76.3617 119.41 76.3617 118.543V115.872Z" fill="#263238"/>
<path d="M74.6637 116.156C76.9473 117.476 76.9473 119.621 74.6637 120.934C72.3801 122.248 68.6758 122.251 66.3922 120.934C64.1086 119.617 64.1052 117.469 66.3922 116.156C68.6793 114.842 72.3801 114.839 74.6637 116.156Z" fill="#37474F"/>
<path d="M76.3756 115.872H64.677V118.543H76.3756V115.872Z" fill="#37474F"/>
<path d="M74.6637 113.494C76.9473 114.811 76.9473 116.96 74.6637 118.269C72.3801 119.579 68.6758 119.59 66.3922 118.269C64.1086 116.949 64.1052 114.804 66.3922 113.494C68.6793 112.184 72.3801 112.164 74.6637 113.494Z" fill="#455A64"/>
<path d="M72.4738 114.09C73.5515 114.711 73.5515 115.719 72.4738 116.339C71.8702 116.645 71.203 116.805 70.5263 116.805C69.8496 116.805 69.1824 116.645 68.5789 116.339C67.5046 115.719 67.5046 114.711 68.5789 114.09C69.1824 113.784 69.8496 113.625 70.5263 113.625C71.203 113.625 71.8702 113.784 72.4738 114.09Z" fill="#263238"/>
<path d="M73.2811 64.7766H67.7714V115.217H73.2811V64.7766Z" fill="#263238"/>
<path d="M93.0261 41.4833V41.4452C92.9741 41.1576 92.9118 40.8665 92.839 40.5754C92.8487 40.6062 92.8568 40.6374 92.8633 40.669C92.8182 40.4715 92.7662 40.2739 92.7108 40.0764C92.7316 40.1492 92.7489 40.222 92.7662 40.2947C92.7108 40.0764 92.6484 39.8616 92.5826 39.6433C92.6138 39.7368 92.6449 39.8339 92.6692 39.9274C92.6345 39.8027 92.5964 39.6779 92.5583 39.5532L92.4959 39.3557V39.3279V39.3487C92.0304 37.9356 91.4171 36.5754 90.6663 35.2909C90.642 35.2459 90.6178 35.2008 90.5901 35.1558C88.7015 31.9435 85.964 29.0085 82.9076 27.1857L82.7586 27.0957C81.8822 26.5866 80.9526 26.1753 79.9864 25.869C79.1835 25.615 78.3474 25.4807 77.5053 25.4705H77.2142H77.0375C76.892 25.4705 76.7499 25.4982 76.6113 25.519H76.4831L76.2474 25.564C76.1469 25.5848 76.0465 25.6091 75.9494 25.6368L75.6791 25.7165C75.6791 25.7165 75.6791 25.7165 75.6618 25.7165L75.3915 25.8135C75.3014 25.8516 75.2113 25.8898 75.1282 25.9313L74.5322 26.2779L44.5197 43.604H44.4955C42.8703 44.5154 41.8862 46.3762 41.8862 49.0202V65.3449L30.593 71.5824C29.4741 72.1991 28.5393 73.102 27.8839 74.1987C27.2286 75.2954 26.8765 76.5464 26.8634 77.8239C26.8504 79.1014 27.1769 80.3594 27.8097 81.4693C28.4425 82.5791 29.3588 83.5009 30.4647 84.1404C33.6096 85.9544 37.1762 86.9093 40.8067 86.9093C44.4373 86.9093 48.0039 85.9544 51.1487 84.1404L62.8474 77.5564L93.2479 59.9911V43.6629C93.2392 42.9312 93.165 42.2018 93.0261 41.4833Z" fill="#468077"/>
<path d="M43.9999 64.2117V45.9742L63.3082 34.934L65.0477 51.7958L43.9999 64.2117Z" fill="#468077"/>
<path opacity="0.5" d="M43.9999 64.2117V45.9742L63.3082 34.934L65.0477 51.7958L43.9999 64.2117Z" fill="black"/>
<path d="M43.9999 64.2118L65.0477 51.7958V71.6412L60.6954 73.8521L43.9999 64.2118Z" fill="#468077"/>
<path opacity="0.3" d="M43.9999 64.2118L65.0477 51.7958V71.6412L60.6954 73.8521L43.9999 64.2118Z" fill="black"/>
<path d="M93.0296 41.4833L91.0336 42.5817L78.8845 49.2315L76.6875 50.427L61.5028 58.7436C60.5395 57.1149 58.0376 49.5157 56.7035 48.14C55.4182 46.7882 53.9511 45.6219 52.3442 44.6747C50.4383 43.5728 48.6537 43.0496 47.1117 43.0496C46.2044 43.0309 45.3075 43.2445 44.5059 43.6698L74.5217 26.3437L75.1177 25.9971C75.2009 25.9555 75.291 25.9174 75.3811 25.8793L75.6514 25.7823C75.6514 25.7823 75.6514 25.7823 75.6687 25.7823L75.939 25.7026C76.036 25.6749 76.1365 25.6506 76.237 25.6298L76.4727 25.5848H76.6009C76.7395 25.564 76.8816 25.5467 77.0271 25.5363H77.2038H77.4949C78.337 25.5465 79.173 25.6808 79.976 25.9348C80.9421 26.2411 81.8718 26.6524 82.7482 27.1615L82.8972 27.2515C87.9183 30.1797 92.0835 36.178 93.0296 41.4833Z" fill="#468077"/>
<g opacity="0.3">
<path d="M93.0296 41.4833L91.0336 42.5817L78.8845 49.2315L76.6875 50.427L61.5028 58.7436C60.5395 57.1149 58.0376 49.5157 56.7035 48.14C55.4182 46.7882 53.9511 45.6219 52.3442 44.6747C50.4383 43.5728 48.6537 43.0496 47.1117 43.0496C46.2044 43.0309 45.3075 43.2445 44.5059 43.6698L74.5217 26.3437L75.1177 25.9971C75.2009 25.9555 75.291 25.9174 75.3811 25.8793L75.6514 25.7823C75.6514 25.7823 75.6514 25.7823 75.6687 25.7823L75.939 25.7026C76.036 25.6749 76.1365 25.6506 76.237 25.6298L76.4727 25.5848H76.6009C76.7395 25.564 76.8816 25.5467 77.0271 25.5363H77.2038H77.4949C78.337 25.5465 79.173 25.6808 79.976 25.9348C80.9421 26.2411 81.8718 26.6524 82.7482 27.1615L82.8972 27.2515C87.9183 30.1797 92.0835 36.178 93.0296 41.4833Z" fill="black"/>
</g>
<path d="M90.5692 35.1801C90.5969 35.2216 90.6247 35.2667 90.6489 35.3117C90.6351 35.2563 90.6108 35.2112 90.5692 35.1801Z" fill="#468077"/>
<path d="M92.1805 38.472C92.5561 39.4474 92.8403 40.4555 93.0295 41.4833L91.0335 42.5818L78.8844 49.2316L76.6875 50.4271L61.5028 58.7437L62.8473 77.5564L93.2478 59.9912V43.663C93.2072 41.8825 92.8456 40.1241 92.1805 38.472Z" fill="#468077"/>
<path d="M91.73 37.3839C91.6018 37.0998 91.4667 36.8122 91.3246 36.528C91.4667 36.8122 91.6087 37.0998 91.73 37.3839Z" fill="#468077"/>
<path d="M90.798 35.5266C90.9435 35.7899 91.0891 36.0533 91.2242 36.3201C91.0891 36.0671 90.947 35.8038 90.798 35.5266Z" fill="#468077"/>
<path d="M92.1702 38.4408C92.0489 38.129 91.9207 37.8206 91.7855 37.5121C91.9207 37.8206 92.0489 38.129 92.1702 38.4408Z" fill="#468077"/>
<g opacity="0.5">
<path d="M90.5692 35.1801C90.5969 35.2216 90.6247 35.2667 90.6489 35.3117C90.6351 35.2563 90.6108 35.2112 90.5692 35.1801Z" fill="black"/>
<path d="M92.1805 38.472C92.5561 39.4474 92.8403 40.4555 93.0295 41.4833L91.0335 42.5818L78.8844 49.2316L76.6875 50.4271L61.5028 58.7437L62.8473 77.5564L93.2478 59.9912V43.663C93.2072 41.8825 92.8456 40.1241 92.1805 38.472Z" fill="black"/>
<path d="M91.7301 37.3839C91.6019 37.0998 91.4668 36.8122 91.3247 36.528C91.4668 36.8122 91.6089 37.0998 91.7301 37.3839Z" fill="black"/>
<path d="M90.798 35.5266C90.9435 35.79 91.0891 36.0533 91.2242 36.3201C91.0891 36.0672 90.947 35.8038 90.798 35.5266Z" fill="black"/>
<path d="M92.1702 38.4408C92.0489 38.129 91.9207 37.8206 91.7855 37.5121C91.9207 37.8206 92.0489 38.129 92.1702 38.4408Z" fill="black"/>
</g>
<path d="M47.1116 45.205C48.321 45.205 49.7626 45.6659 51.2699 46.5426C56.3742 49.488 60.6884 56.214 60.6884 61.2317V73.8521L43.9929 64.2118V49.1207C43.9929 45.8842 45.684 45.205 47.1116 45.205ZM47.1116 43.0635C43.9721 43.0635 41.8618 45.2362 41.8618 49.1207V65.4454L62.8334 77.5738V61.2317C62.8334 55.4378 58.138 48.0326 52.3476 44.6887C50.4417 43.5902 48.6502 43.0635 47.1116 43.0635Z" fill="#468077"/>
<path d="M41.8619 65.4454L30.5687 71.6829C29.4498 72.2996 28.515 73.2025 27.8597 74.2992C27.2044 75.3959 26.8522 76.647 26.8391 77.9244C26.8261 79.2019 27.1527 80.4599 27.7854 81.5698C28.4182 82.6796 29.3345 83.6014 30.4405 84.2409C33.5853 86.0549 37.1519 87.0099 40.7825 87.0099C44.413 87.0099 47.9796 86.0549 51.1244 84.2409L62.8473 77.5564L41.8619 65.4454Z" fill="#468077"/>
<path opacity="0.2" d="M41.8619 65.4454L30.5687 71.6829C29.4498 72.2996 28.515 73.2025 27.8597 74.2992C27.2044 75.3959 26.8522 76.647 26.8391 77.9244C26.8261 79.2019 27.1527 80.4599 27.7854 81.5698C28.4182 82.6796 29.3345 83.6014 30.4405 84.2409C33.5853 86.0549 37.1519 87.0099 40.7825 87.0099C44.413 87.0099 47.9796 86.0549 51.1244 84.2409L62.8473 77.5564L41.8619 65.4454Z" fill="white"/>
<path d="M69.8297 72.5838L67.4734 73.9422V51.1929L69.8297 49.8311V72.5838Z" fill="#E0E0E0"/>
<path d="M74.2791 51.8097L67.4734 55.7358V51.1929L74.2791 47.2633V51.8097Z" fill="#E0E0E0"/>
<path d="M70.845 71.7833C70.8035 72.5505 70.5817 73.297 70.1975 73.9623C69.8134 74.6276 69.2778 75.1929 68.6342 75.6124C67.411 76.3055 66.4199 75.7476 66.4199 74.3372C66.4642 73.5727 66.6877 72.8294 67.0724 72.1672C67.4571 71.5051 67.9921 70.9427 68.6342 70.5255C69.854 69.8012 70.845 70.373 70.845 71.7833Z" fill="#468077"/>
<path opacity="0.2" d="M70.845 71.7833C70.8035 72.5505 70.5817 73.297 70.1975 73.9623C69.8134 74.6276 69.2778 75.1929 68.6342 75.6124C67.411 76.3055 66.4199 75.7476 66.4199 74.3372C66.4642 73.5727 66.6877 72.8294 67.0724 72.1672C67.4571 71.5051 67.9921 70.9427 68.6342 70.5255C69.854 69.8012 70.845 70.373 70.845 71.7833Z" fill="black"/>
<path d="M71.5797 72.2095C71.5358 72.9737 71.3128 73.7169 70.9288 74.379C70.5447 75.0411 70.0104 75.6037 69.3689 76.0213C68.1491 76.7144 67.1581 76.153 67.1581 74.7426C67.2004 73.9757 67.4226 73.2295 67.8067 72.5643C68.1907 71.8992 68.7259 71.3337 69.3689 70.9135C70.5921 70.2274 71.5797 70.7992 71.5797 72.2095Z" fill="#468077"/>
<path d="M120.966 109.683L124.875 111.949C124.875 111.949 122.9 105.646 123.995 99.3077C124.407 96.9167 125.281 95.7281 125.585 95.0871C125.89 94.446 128.254 90.4956 126.175 88.6729C124.095 86.8502 119.227 90.4748 119.445 100.24C119.552 103.439 120.063 106.612 120.966 109.683Z" fill="#468077"/>
<path opacity="0.3" d="M120.966 109.683L124.875 111.949C124.875 111.949 122.9 105.646 123.995 99.3077C124.407 96.9167 125.281 95.7281 125.585 95.0871C125.89 94.446 128.254 90.4956 126.175 88.6729C124.095 86.8502 119.227 90.4748 119.445 100.24C119.552 103.439 120.063 106.612 120.966 109.683Z" fill="black"/>
<path d="M122.796 110.909C122.76 110.908 122.726 110.897 122.697 110.877C122.668 110.856 122.646 110.828 122.633 110.795C122.633 110.753 121.139 106.637 121.216 100.053C121.292 93.4688 124.778 89.8927 124.813 89.858C124.845 89.8254 124.889 89.8071 124.936 89.8071C124.982 89.8071 125.026 89.8254 125.059 89.858C125.091 89.8907 125.11 89.9349 125.11 89.981C125.11 90.0272 125.091 90.0714 125.059 90.1041C125.024 90.1387 121.642 93.5693 121.566 100.056C121.489 106.543 122.952 110.629 122.952 110.67C122.967 110.713 122.965 110.761 122.946 110.803C122.926 110.844 122.891 110.876 122.848 110.892C122.832 110.901 122.814 110.907 122.796 110.909Z" fill="white"/>
<path d="M123.998 111.453L130.461 115.265C130.461 115.265 133.42 114.829 133.199 112.042C132.977 109.256 131.771 108.598 133.268 107.375C134.765 106.152 135.153 106.072 135.08 104.869C135.008 103.667 134.204 103.137 133.822 102.672C133.441 102.208 132.384 101.2 133.129 99.7513C133.874 98.3028 134.883 96.9063 133.386 96.2444C132.488 95.8494 130.984 96.3449 129.99 97.4018C128.995 98.4587 128.167 99.2245 127.218 99.481C126.268 99.7374 124.303 99.7443 124.369 101.373C124.435 103.002 124.858 103.563 124.463 104.284C123.725 105.625 120.547 106.359 123.998 111.453Z" fill="#468077"/>
<path d="M126.632 113.176C126.588 113.176 126.545 113.159 126.513 113.129C126.481 113.098 126.461 113.057 126.459 113.013C126.459 112.916 125.745 103.282 132.44 96.9548C132.455 96.9352 132.475 96.9191 132.498 96.9078C132.52 96.8964 132.545 96.89 132.57 96.8888C132.595 96.8877 132.62 96.892 132.643 96.9014C132.667 96.9107 132.688 96.9249 132.705 96.9431C132.722 96.9612 132.736 96.9829 132.744 97.0066C132.753 97.0303 132.756 97.0555 132.754 97.0806C132.751 97.1056 132.744 97.1299 132.732 97.1519C132.719 97.1738 132.703 97.1928 132.682 97.2077C126.098 103.417 126.791 112.891 126.791 112.985C126.795 113.031 126.781 113.077 126.751 113.113C126.721 113.149 126.678 113.171 126.632 113.176Z" fill="white"/>
<path d="M127.789 104.914C127.746 104.915 127.704 104.898 127.672 104.869C127.639 104.839 127.62 104.799 127.616 104.755C127.565 104.015 127.365 103.292 127.027 102.631C126.689 101.97 126.221 101.384 125.651 100.909C125.633 100.895 125.617 100.878 125.605 100.859C125.594 100.839 125.586 100.818 125.582 100.795C125.579 100.773 125.579 100.75 125.585 100.728C125.59 100.705 125.6 100.684 125.613 100.666C125.627 100.648 125.644 100.632 125.663 100.62C125.682 100.608 125.704 100.6 125.727 100.597C125.749 100.593 125.772 100.594 125.794 100.6C125.816 100.605 125.837 100.615 125.856 100.628C126.472 101.128 126.977 101.751 127.34 102.457C127.703 103.162 127.917 103.935 127.966 104.727C127.968 104.75 127.965 104.774 127.958 104.796C127.951 104.817 127.939 104.838 127.924 104.855C127.909 104.873 127.89 104.887 127.87 104.897C127.849 104.907 127.826 104.913 127.803 104.914H127.789Z" fill="white"/>
<path d="M127.301 106.564C127.257 106.565 127.215 106.549 127.183 106.519C127.167 106.503 127.154 106.484 127.145 106.462C127.136 106.441 127.132 106.419 127.132 106.396C127.132 106.373 127.136 106.35 127.145 106.329C127.154 106.308 127.167 106.289 127.183 106.273C127.252 106.193 128.936 104.374 132.831 104.908C132.877 104.914 132.919 104.939 132.947 104.976C132.976 105.012 132.989 105.059 132.984 105.105C132.977 105.151 132.952 105.192 132.915 105.22C132.878 105.248 132.832 105.26 132.786 105.254C129.072 104.745 127.46 106.488 127.443 106.505C127.425 106.525 127.403 106.541 127.379 106.551C127.354 106.561 127.327 106.565 127.301 106.564Z" fill="white"/>
<path d="M49.8007 54.769C49.4923 54.769 49.1804 54.769 48.8755 54.7309C48.8334 54.7279 48.7923 54.7164 48.7548 54.6972C48.7172 54.6781 48.6838 54.6515 48.6567 54.6192C48.6295 54.5869 48.6091 54.5495 48.5967 54.5091C48.5843 54.4688 48.5801 54.4264 48.5844 54.3844C48.5923 54.3001 48.6331 54.2222 48.698 54.1678C48.7628 54.1133 48.8465 54.0866 48.9309 54.0933C49.3421 54.1313 49.7554 54.1418 50.168 54.1245C50.2521 54.1235 50.3333 54.155 50.3947 54.2125C50.456 54.27 50.4928 54.3489 50.4972 54.4329C50.5 54.5169 50.4696 54.5986 50.4125 54.6602C50.3554 54.7219 50.2762 54.7585 50.1923 54.7621C50.0571 54.769 49.9289 54.769 49.8007 54.769ZM51.4432 54.6373C51.3623 54.6387 51.2838 54.6092 51.2238 54.5549C51.1638 54.5005 51.1267 54.4253 51.1201 54.3446C51.1135 54.2639 51.1378 54.1837 51.1882 54.1203C51.2385 54.0569 51.3111 54.015 51.3913 54.0032C51.7979 53.9367 52.1996 53.8429 52.5937 53.7225C52.6732 53.7025 52.7574 53.7139 52.8288 53.7543C52.9001 53.7948 52.9532 53.8612 52.9768 53.9397C53.0005 54.0183 52.9929 54.1029 52.9558 54.176C52.9186 54.2492 52.8547 54.3052 52.7774 54.3324C52.3573 54.4617 51.9289 54.5625 51.4952 54.6339L51.4432 54.6373ZM47.6315 54.5472H47.5691C47.1403 54.455 46.7169 54.3394 46.3008 54.2007C46.2207 54.173 46.1545 54.1152 46.1163 54.0395C46.0781 53.9638 46.071 53.8762 46.0964 53.7953C46.124 53.7152 46.182 53.6493 46.2579 53.6117C46.3338 53.5741 46.4214 53.5678 46.5018 53.5943C46.8938 53.7237 47.293 53.8301 47.6973 53.9131C47.7385 53.9213 47.7776 53.9377 47.8124 53.9612C47.8471 53.9848 47.8768 54.015 47.8998 54.0502C47.9227 54.0854 47.9383 54.1248 47.9458 54.1661C47.9533 54.2074 47.9525 54.2498 47.9433 54.2908C47.9292 54.3618 47.8913 54.4259 47.8359 54.4725C47.7804 54.5191 47.7108 54.5455 47.6384 54.5472H47.6315ZM53.8689 53.8854C53.7965 53.8856 53.7262 53.8612 53.6695 53.8162C53.6128 53.7712 53.5732 53.7082 53.557 53.6376C53.5409 53.567 53.5493 53.4931 53.5807 53.4279C53.6122 53.3627 53.665 53.3102 53.7303 53.279L53.9521 53.1715C53.9896 53.1503 54.031 53.137 54.0738 53.1322C54.1167 53.1275 54.16 53.1315 54.2013 53.144C54.2425 53.1565 54.2808 53.1772 54.3138 53.2049C54.3468 53.2326 54.3739 53.2667 54.3933 53.3051C54.4128 53.3436 54.4243 53.3856 54.427 53.4286C54.4298 53.4716 54.4238 53.5147 54.4095 53.5554C54.3951 53.596 54.3727 53.6333 54.3435 53.665C54.3143 53.6967 54.279 53.7222 54.2397 53.7398L54.004 53.8577C53.9643 53.8782 53.9205 53.89 53.8758 53.8923L53.8689 53.8854ZM45.2058 53.7502C45.159 53.7499 45.1129 53.7392 45.0707 53.7191C44.675 53.5347 44.2898 53.3288 43.9167 53.1022C43.881 53.0795 43.8501 53.0499 43.8258 53.0152C43.8015 52.9805 43.7843 52.9414 43.7751 52.9001C43.766 52.8587 43.765 52.816 43.7724 52.7742C43.7797 52.7325 43.7952 52.6927 43.818 52.657C43.8407 52.6212 43.8703 52.5903 43.905 52.566C43.9397 52.5418 43.9788 52.5245 44.0202 52.5154C44.0615 52.5062 44.1043 52.5053 44.146 52.5126C44.1877 52.52 44.2275 52.5354 44.2633 52.5582C44.6175 52.7719 44.983 52.9663 45.3583 53.1404C45.4223 53.1726 45.4737 53.2253 45.5044 53.29C45.5351 53.3548 45.5434 53.4279 45.5278 53.4978C45.5123 53.5678 45.474 53.6306 45.4188 53.6763C45.3636 53.722 45.2948 53.748 45.2231 53.7502H45.2058ZM43.0227 52.4334C42.9544 52.4319 42.8881 52.4102 42.8321 52.3711C42.4856 52.1146 42.1391 51.834 41.8272 51.536C41.7963 51.5077 41.7712 51.4737 41.7534 51.4358C41.7356 51.3979 41.7254 51.3568 41.7235 51.315C41.7216 51.2732 41.7279 51.2314 41.7421 51.192C41.7564 51.1526 41.7782 51.1164 41.8064 51.0855C41.8346 51.0545 41.8687 51.0294 41.9066 51.0117C41.9445 50.9939 41.9855 50.9837 42.0273 50.9818C42.0692 50.9798 42.111 50.9862 42.1504 51.0004C42.1898 51.0146 42.226 51.0365 42.2569 51.0647C42.5688 51.3488 42.891 51.6157 43.2168 51.8617C43.2696 51.9022 43.3085 51.9583 43.3278 52.0221C43.3472 52.0858 43.346 52.154 43.3246 52.2171C43.3032 52.2802 43.2626 52.335 43.2084 52.3738C43.1543 52.4126 43.0893 52.4335 43.0227 52.4334ZM41.1411 50.7182C41.0967 50.7184 41.0528 50.7092 41.0122 50.6913C40.9716 50.6734 40.9352 50.6471 40.9055 50.6142C40.6178 50.2989 40.3337 49.9627 40.0703 49.6162C40.0449 49.583 40.0262 49.5451 40.0153 49.5046C40.0045 49.4642 40.0017 49.422 40.0072 49.3805C40.0183 49.2967 40.0622 49.2207 40.1292 49.1692C40.1963 49.1177 40.2811 49.095 40.365 49.1061C40.4488 49.1171 40.5248 49.161 40.5763 49.2281C40.8292 49.5746 41.0995 49.8796 41.3767 50.1845C41.4049 50.2155 41.4268 50.2516 41.441 50.291C41.4553 50.3304 41.4616 50.3722 41.4597 50.4141C41.4577 50.4559 41.4476 50.4969 41.4298 50.5348C41.412 50.5728 41.3869 50.6068 41.3559 50.635C41.3015 50.6844 41.2318 50.7138 41.1584 50.7182H41.1411ZM39.606 48.6945C39.5525 48.6946 39.4998 48.681 39.4531 48.6549C39.4063 48.6288 39.3671 48.5911 39.3392 48.5455C39.2006 48.3306 39.0654 48.1088 38.9372 47.8871C38.8506 47.7346 38.7639 47.5787 38.6808 47.4227C38.649 47.3492 38.646 47.2663 38.6726 47.1907C38.6991 47.1151 38.7531 47.0522 38.8239 47.0146C38.8947 46.977 38.977 46.9675 39.0546 46.9879C39.1321 47.0083 39.199 47.0571 39.2421 47.1247C39.3218 47.2737 39.405 47.4227 39.4882 47.5683C39.6129 47.7831 39.7411 47.9945 39.8763 48.2024C39.9064 48.2509 39.923 48.3066 39.9245 48.3637C39.926 48.4208 39.9123 48.4773 39.8848 48.5274C39.8573 48.5774 39.817 48.6193 39.768 48.6487C39.719 48.678 39.6631 48.6938 39.606 48.6945ZM38.4139 46.4421C38.3512 46.4423 38.2898 46.424 38.2374 46.3895C38.185 46.355 38.144 46.3057 38.1194 46.248C37.9496 45.846 37.7971 45.4337 37.6655 45.0248C37.6525 44.985 37.6475 44.943 37.6507 44.9012C37.654 44.8595 37.6654 44.8188 37.6844 44.7814C37.7034 44.7441 37.7295 44.7109 37.7614 44.6837C37.7932 44.6564 37.8301 44.6358 37.8699 44.6228C37.9508 44.5977 38.0383 44.6054 38.1135 44.6443C38.1888 44.6832 38.2456 44.7502 38.2719 44.8307C38.3966 45.2223 38.5422 45.6139 38.705 45.9985C38.7265 46.0468 38.7355 46.0996 38.7312 46.1522C38.727 46.2049 38.7096 46.2556 38.6806 46.2997C38.6516 46.3439 38.612 46.3801 38.5654 46.4049C38.5188 46.4298 38.4668 46.4426 38.4139 46.4421ZM37.6377 44.0164C37.5648 44.0157 37.4942 43.9904 37.4376 43.9444C37.3809 43.8985 37.3416 43.8347 37.3259 43.7634C37.2332 43.3367 37.1638 42.9052 37.118 42.4709C37.1102 42.3874 37.1357 42.3042 37.1889 42.2393C37.2421 42.1744 37.3187 42.1331 37.4021 42.1244C37.4466 42.114 37.4928 42.114 37.5372 42.1244C37.5605 42.0813 37.5937 42.0443 37.6341 42.0166C37.6744 41.9889 37.7208 41.9712 37.7694 41.965C38.1732 41.9092 38.5718 41.8211 38.9615 41.7016C39.0423 41.6763 39.1299 41.6842 39.205 41.7235C39.2801 41.7629 39.3364 41.8304 39.3617 41.9113C39.387 41.9921 39.3791 42.0797 39.3398 42.1548C39.3004 42.2299 39.2329 42.2862 39.152 42.3115C38.7282 42.4408 38.2948 42.537 37.856 42.5991C37.8296 42.6026 37.8028 42.6026 37.7763 42.5991C37.8179 42.9456 37.8768 43.2922 37.9496 43.6179C37.9587 43.6589 37.9596 43.7013 37.9521 43.7426C37.9446 43.7839 37.9289 43.8233 37.906 43.8585C37.8831 43.8937 37.8534 43.9239 37.8186 43.9475C37.7839 43.971 37.7448 43.9874 37.7036 43.9956C37.6831 44.0072 37.6608 44.0154 37.6377 44.0199V44.0164ZM36.5393 42.6927C36.0996 42.6859 35.6609 42.65 35.2259 42.5852C35.1429 42.5721 35.0685 42.5268 35.0187 42.4591C34.969 42.3913 34.948 42.3067 34.9603 42.2236C34.9727 42.1404 35.0173 42.0656 35.0846 42.0152C35.1518 41.9648 35.2363 41.943 35.3195 41.9546C35.7255 42.0169 36.1354 42.0505 36.5462 42.0551C36.6307 42.0551 36.7118 42.0887 36.7716 42.1484C36.8314 42.2082 36.865 42.2893 36.865 42.3739C36.865 42.4584 36.8314 42.5395 36.7716 42.5993C36.7118 42.6591 36.6307 42.6927 36.5462 42.6927H36.5393ZM34.0235 42.3184C33.9948 42.3234 33.9655 42.3234 33.9369 42.3184C33.5152 42.1952 33.102 42.0447 32.6998 41.8679C32.6221 41.8344 32.561 41.7714 32.5298 41.6928C32.4986 41.6141 32.4999 41.5263 32.5334 41.4487C32.567 41.371 32.63 41.3098 32.7086 41.2786C32.7873 41.2475 32.8751 41.2488 32.9527 41.2823C33.3313 41.4454 33.7202 41.5832 34.1171 41.6947C34.1979 41.7188 34.2661 41.7737 34.3069 41.8476C34.3477 41.9215 34.358 42.0084 34.3354 42.0897C34.3153 42.1568 34.2741 42.2156 34.2179 42.2574C34.1617 42.2993 34.0935 42.3219 34.0235 42.3219V42.3184ZM40.2367 41.8576C40.1662 41.8563 40.098 41.8318 40.043 41.7877C39.9879 41.7436 39.949 41.6825 39.9324 41.614C39.9158 41.5455 39.9223 41.4734 39.951 41.409C39.9798 41.3446 40.029 41.2915 40.0911 41.2581C40.448 41.075 40.7829 40.8518 41.0891 40.5927C41.1533 40.5379 41.2365 40.5104 41.3207 40.5162C41.405 40.5221 41.4836 40.5607 41.5396 40.6239C41.567 40.6557 41.5878 40.6927 41.6009 40.7325C41.614 40.7724 41.6191 40.8145 41.6158 40.8564C41.6126 40.8982 41.6012 40.939 41.5821 40.9764C41.5631 41.0139 41.5369 41.0472 41.5049 41.0744C41.1634 41.3682 40.7876 41.6195 40.3857 41.8229C40.3398 41.8473 40.2887 41.8604 40.2367 41.861V41.8576ZM37.3778 41.4833C37.293 41.4815 37.2123 41.4463 37.1532 41.3853C37.0942 41.3243 37.0616 41.2425 37.0625 41.1576C37.0695 40.7193 37.103 40.2819 37.163 39.8477C37.1673 39.805 37.1803 39.7636 37.201 39.7259C37.2218 39.6883 37.2499 39.6553 37.2837 39.6288C37.3176 39.6024 37.3564 39.583 37.3979 39.5719C37.4394 39.5608 37.4827 39.5583 37.5253 39.5643C37.5678 39.5704 37.6086 39.585 37.6454 39.6073C37.6821 39.6295 37.714 39.659 37.739 39.6939C37.7641 39.7288 37.7819 39.7683 37.7913 39.8103C37.8007 39.8522 37.8015 39.8956 37.7937 39.9378C37.7377 40.3456 37.7065 40.7564 37.7001 41.168C37.6992 41.2528 37.6648 41.3339 37.6045 41.3936C37.5442 41.4533 37.4627 41.4868 37.3778 41.4868V41.4833ZM31.681 41.3204C31.6253 41.3196 31.5706 41.3053 31.5216 41.2789C31.1426 41.0581 30.7769 40.8151 30.4266 40.5512C30.3928 40.5265 30.3644 40.4954 30.3429 40.4596C30.3214 40.4237 30.3073 40.384 30.3015 40.3426C30.2957 40.3012 30.2982 40.2591 30.309 40.2187C30.3198 40.1784 30.3386 40.1406 30.3642 40.1076C30.3892 40.0739 30.4206 40.0454 30.4566 40.0238C30.4926 40.0022 30.5325 39.9879 30.574 39.9818C30.6156 39.9757 30.6579 39.9778 30.6986 39.9881C30.7393 39.9984 30.7776 40.0167 30.8112 40.0418C31.1427 40.2946 31.4899 40.5261 31.8508 40.7348C31.9121 40.7696 31.9602 40.8238 31.9874 40.8889C32.0147 40.954 32.0196 41.0263 32.0014 41.0944C31.9831 41.1626 31.9428 41.2227 31.8867 41.2655C31.8306 41.3083 31.7619 41.3313 31.6914 41.3308L31.681 41.3204ZM42.1183 40.1838C42.0624 40.184 42.0075 40.1697 41.9589 40.1423C41.9227 40.1211 41.891 40.0931 41.8656 40.0597C41.8403 40.0263 41.8218 39.9882 41.8111 39.9477C41.8005 39.9071 41.798 39.8649 41.8037 39.8233C41.8095 39.7818 41.8233 39.7418 41.8445 39.7056C41.9356 39.5477 42.0121 39.3819 42.0732 39.2101C42.1389 39.0271 42.1785 38.8358 42.1911 38.6418C42.1936 38.5994 42.2048 38.558 42.2238 38.52C42.2427 38.482 42.2692 38.4482 42.3016 38.4207C42.3339 38.3932 42.3715 38.3725 42.4121 38.3599C42.4526 38.3473 42.4953 38.343 42.5376 38.3473C42.5798 38.3503 42.621 38.3618 42.6588 38.3809C42.6965 38.4 42.7301 38.4265 42.7575 38.4588C42.7849 38.491 42.8056 38.5284 42.8185 38.5688C42.8313 38.6091 42.8359 38.6516 42.8321 38.6938C42.8138 38.9443 42.7626 39.1913 42.6797 39.4284C42.6056 39.6374 42.5129 39.8392 42.4024 40.0314C42.3731 40.0801 42.3313 40.1203 42.2814 40.1477C42.2315 40.1751 42.1752 40.1887 42.1183 40.1873V40.1838ZM29.6434 39.7888C29.5607 39.7884 29.4813 39.7561 29.4217 39.6987L29.2103 39.4839C28.9781 39.2448 28.7529 38.9918 28.538 38.7284C28.4847 38.6627 28.4597 38.5785 28.4685 38.4944C28.4773 38.4102 28.5191 38.333 28.5848 38.2797C28.6505 38.2264 28.7347 38.2014 28.8189 38.2101C28.903 38.2189 28.9803 38.2608 29.0336 38.3265C29.2345 38.576 29.4494 38.8151 29.6677 39.0403L29.8652 39.2413C29.8952 39.2707 29.919 39.3057 29.9352 39.3444C29.9515 39.3831 29.9599 39.4246 29.9599 39.4665C29.9599 39.5085 29.9515 39.55 29.9352 39.5887C29.919 39.6274 29.8952 39.6624 29.8652 39.6918C29.8088 39.7511 29.7321 39.787 29.6504 39.7923L29.6434 39.7888ZM37.7382 38.9641C37.7072 38.9691 37.6757 38.9691 37.6447 38.9641C37.6046 38.9518 37.5674 38.9318 37.5351 38.9051C37.5028 38.8784 37.476 38.8457 37.4564 38.8086C37.4368 38.7716 37.4246 38.7311 37.4206 38.6894C37.4167 38.6477 37.421 38.6056 37.4333 38.5656C37.5615 38.1307 37.7468 37.7147 37.9843 37.3285C38.0302 37.2568 38.1028 37.2063 38.1859 37.1881C38.2691 37.1699 38.3561 37.1855 38.4278 37.2315C38.4995 37.2774 38.55 37.35 38.5682 37.4331C38.5864 37.5163 38.5708 37.6033 38.5248 37.675C38.3168 38.0136 38.1548 38.3783 38.0432 38.7596C38.021 38.8208 37.9805 38.8736 37.9271 38.9108C37.8738 38.9481 37.8102 38.9679 37.7452 38.9675L37.7382 38.9641ZM28.0356 37.8136C27.9824 37.8138 27.9301 37.8006 27.8835 37.7751C27.8368 37.7497 27.7974 37.7129 27.7687 37.6681C27.5314 37.3029 27.3128 36.9258 27.1138 36.5384C27.0752 36.4631 27.0681 36.3754 27.0941 36.2949C27.1201 36.2143 27.1771 36.1473 27.2524 36.1087C27.3278 36.0701 27.4154 36.063 27.496 36.089C27.5766 36.115 27.6435 36.172 27.6821 36.2473C27.8703 36.6158 28.0773 36.9744 28.3024 37.3216C28.3335 37.3696 28.3511 37.4252 28.3533 37.4824C28.3556 37.5397 28.3423 37.5964 28.315 37.6468C28.2877 37.6971 28.2474 37.7392 28.1982 37.7686C28.149 37.7979 28.0928 37.8135 28.0356 37.8136ZM42.3019 37.7339C42.2388 37.7339 42.1771 37.7151 42.1247 37.6799C42.0722 37.6447 42.0314 37.5948 42.0074 37.5364C41.8748 37.1965 41.6445 36.9035 41.3455 36.6943C41.2854 36.6443 41.2458 36.5739 41.2342 36.4966C41.2226 36.4193 41.2398 36.3403 41.2826 36.2749C41.3254 36.2094 41.3908 36.162 41.4663 36.1416C41.5417 36.1211 41.6221 36.1292 41.6921 36.1642C42.0952 36.444 42.4064 36.8371 42.5861 37.2938C42.6026 37.3323 42.6112 37.3736 42.6116 37.4153C42.6119 37.4571 42.604 37.4986 42.5882 37.5373C42.5724 37.576 42.5491 37.6111 42.5196 37.6407C42.49 37.6703 42.4549 37.6938 42.4163 37.7097C42.3824 37.7251 42.346 37.7345 42.3089 37.7374L42.3019 37.7339ZM39.1243 36.8815C39.0725 36.8812 39.0215 36.8685 38.9757 36.8444C38.9298 36.8203 38.8905 36.7854 38.861 36.7429C38.8373 36.7083 38.8206 36.6694 38.812 36.6284C38.8033 36.5874 38.8028 36.545 38.8106 36.5038C38.8183 36.4626 38.8341 36.4234 38.857 36.3883C38.8799 36.3532 38.9095 36.3229 38.9441 36.2993C39.3409 36.0249 39.8014 35.8567 40.2817 35.8107C40.3247 35.8045 40.3684 35.8071 40.4104 35.8183C40.4523 35.8296 40.4914 35.8493 40.5255 35.8762C40.5595 35.9032 40.5877 35.9368 40.6083 35.975C40.6289 36.0132 40.6414 36.0552 40.6452 36.0984C40.649 36.1417 40.6439 36.1852 40.6303 36.2264C40.6166 36.2676 40.5947 36.3056 40.5659 36.338C40.537 36.3705 40.5019 36.3967 40.4625 36.415C40.4232 36.4334 40.3805 36.4436 40.3372 36.4449C39.9632 36.4809 39.605 36.6134 39.2976 36.8295C39.2478 36.8619 39.1905 36.881 39.1313 36.8849L39.1243 36.8815ZM26.8678 35.5508C26.8043 35.5505 26.7423 35.5312 26.6898 35.4954C26.6373 35.4596 26.5967 35.4089 26.5732 35.3498C26.4138 34.9513 26.2683 34.539 26.1436 34.1197C26.1293 34.079 26.1233 34.0359 26.1262 33.9929C26.129 33.9499 26.1405 33.9079 26.1601 33.8695C26.1796 33.8311 26.2067 33.797 26.2397 33.7694C26.2728 33.7417 26.3111 33.721 26.3524 33.7086C26.3936 33.6962 26.437 33.6923 26.4798 33.6971C26.5226 33.7019 26.564 33.7153 26.6015 33.7365C26.639 33.7578 26.6718 33.7864 26.6979 33.8207C26.724 33.855 26.7429 33.8942 26.7534 33.936C26.8747 34.3345 27.0133 34.733 27.1658 35.1142C27.1955 35.1929 27.1933 35.28 27.1596 35.357C27.1259 35.4341 27.0635 35.4949 26.9856 35.5266C26.951 35.5434 26.9132 35.5529 26.8747 35.5543L26.8678 35.5508ZM26.1297 33.1252C26.0566 33.1251 25.9857 33.1 25.9289 33.054C25.8721 33.0079 25.8329 32.9437 25.8178 32.8722C25.7277 32.4529 25.655 32.0232 25.596 31.5901C25.5909 31.5094 25.6167 31.4298 25.668 31.3674C25.7193 31.305 25.7924 31.2644 25.8725 31.2539C25.9526 31.2433 26.0338 31.2636 26.0995 31.3105C26.1653 31.3575 26.2107 31.4277 26.2267 31.5069C26.2822 31.9227 26.3549 32.3351 26.4416 32.7405C26.459 32.8232 26.4429 32.9095 26.3968 32.9803C26.3506 33.0511 26.2782 33.1008 26.1955 33.1182L26.1297 33.1252ZM25.7832 30.599C25.7018 30.5983 25.6237 30.5668 25.5645 30.5109C25.5054 30.455 25.4696 30.3787 25.4644 30.2975C25.4644 29.951 25.4366 29.6045 25.4366 29.258V28.9911C25.4402 28.9072 25.4761 28.8278 25.5368 28.7697C25.5975 28.7116 25.6783 28.6792 25.7624 28.6793C25.8042 28.6792 25.8456 28.6876 25.8842 28.704C25.9227 28.7203 25.9576 28.7442 25.9867 28.7743C26.0158 28.8043 26.0385 28.8399 26.0536 28.879C26.0686 28.918 26.0756 28.9597 26.0742 29.0015V29.258C26.0742 29.6045 26.0742 29.9233 26.102 30.2525C26.1053 30.2948 26.1002 30.3374 26.087 30.3778C26.0738 30.4181 26.0527 30.4555 26.025 30.4877C25.9973 30.5199 25.9635 30.5463 25.9256 30.5654C25.8877 30.5845 25.8463 30.5959 25.804 30.599H25.7832Z" fill="#263238"/>
<path d="M28.9781 18.9974L27.0722 27.2793L6.26001 22.8127L28.9781 18.9974Z" fill="#468077"/>
<path opacity="0.3" d="M28.9781 18.9974L27.0722 27.2793L6.26001 22.8127L28.9781 18.9974Z" fill="black"/>
<path d="M6.26001 22.8127L32.173 22.1196L38.2615 31.5035L6.26001 22.8127Z" fill="#468077"/>
<path d="M6.26001 22.8126L28.9781 18.9974L23.6243 12.7877L6.26001 22.8126Z" fill="#468077"/>
<path d="M96.5192 109.111L91.0355 108.972L90.7526 120.074L96.2362 120.214L96.5192 109.111Z" fill="#FDEDE0"/>
<path d="M89.3147 64.5305C89.3147 64.5305 88.9301 83.423 89.0618 90.9079C89.1623 96.5459 90.0424 113.432 90.0424 113.432C90.0424 113.432 93.5978 115.754 97.3437 113.813C97.3437 113.813 99.506 96.7572 98.9793 91.6183C98.9117 90.9952 98.9117 90.3667 98.9793 89.7436L102.285 61.1415L89.3147 64.5305Z" fill="#37474F"/>
<path d="M92.6483 118.536C92.6483 118.536 95.6873 118.19 96.3007 117.199V116.554C96.3007 116.554 96.8274 116.835 96.7269 117.902C96.6368 118.893 97.0319 120.581 97.0908 122.639C97.0946 122.807 97.0589 122.974 96.9867 123.125C96.9145 123.277 96.8077 123.409 96.6749 123.512C96.0858 123.966 94.8418 124.663 92.6483 124.756C91.8791 124.791 88.8019 126.763 86.2411 126.763C83.6803 126.763 82.0066 125.494 82.0066 123.72C82.0066 121.946 87.2287 120.342 87.2287 120.342L89.7375 117.916C89.7375 117.916 89.2489 115.272 90.8464 115.906C92.4439 116.54 92.6483 117.199 92.6483 118.536Z" fill="#37474F"/>
<path d="M92.0939 120.078C92.06 120.078 92.027 120.068 91.9995 120.048C91.9721 120.028 91.9518 120 91.9415 119.967C91.4078 118.37 89.741 118.075 89.7237 118.072C89.703 118.069 89.6831 118.061 89.6653 118.05C89.6474 118.039 89.6319 118.025 89.6197 118.007C89.6075 117.99 89.5987 117.971 89.594 117.951C89.5892 117.93 89.5886 117.909 89.592 117.888C89.5997 117.847 89.6231 117.81 89.6573 117.785C89.6916 117.761 89.734 117.751 89.7757 117.757C90.3341 117.865 90.8549 118.117 91.2872 118.487C91.7196 118.857 92.0488 119.332 92.2429 119.867C92.2561 119.907 92.253 119.95 92.2341 119.988C92.2153 120.026 92.1823 120.054 92.1424 120.068L92.0939 120.078Z" fill="#FAFAFA"/>
<path d="M91.0925 121.069C91.0588 121.068 91.0262 121.057 90.999 121.038C90.9718 121.018 90.9512 120.99 90.94 120.958C90.4098 119.368 88.7396 119.066 88.7223 119.063C88.7016 119.06 88.6819 119.052 88.6642 119.041C88.6465 119.03 88.6312 119.015 88.6193 118.998C88.6073 118.981 88.5989 118.962 88.5946 118.941C88.5902 118.921 88.5901 118.9 88.594 118.879C88.5974 118.859 88.6048 118.839 88.6159 118.821C88.627 118.803 88.6414 118.788 88.6585 118.775C88.6756 118.763 88.6949 118.754 88.7153 118.75C88.7358 118.745 88.757 118.744 88.7777 118.748C89.3361 118.857 89.8569 119.108 90.2892 119.478C90.7216 119.848 91.0509 120.323 91.245 120.858C91.2514 120.878 91.2538 120.899 91.2521 120.92C91.2504 120.941 91.2445 120.961 91.2348 120.98C91.2252 120.999 91.2119 121.015 91.1958 121.029C91.1797 121.042 91.1611 121.053 91.141 121.059C91.1258 121.066 91.1092 121.07 91.0925 121.069Z" fill="#FAFAFA"/>
<path d="M90.2226 121.929C90.1896 121.929 90.1574 121.919 90.1306 121.899C90.1038 121.88 90.0839 121.853 90.0736 121.821C89.5434 120.227 87.8732 119.926 87.8558 119.922C87.8332 119.922 87.811 119.916 87.7907 119.906C87.7704 119.896 87.7525 119.881 87.7382 119.864C87.7238 119.846 87.7134 119.826 87.7076 119.804C87.7018 119.782 87.7007 119.759 87.7044 119.737C87.7082 119.715 87.7166 119.693 87.7292 119.674C87.7418 119.656 87.7583 119.64 87.7775 119.628C87.7968 119.616 87.8184 119.608 87.8408 119.605C87.8633 119.602 87.8861 119.604 87.9078 119.611C88.4666 119.718 88.9878 119.97 89.4204 120.34C89.8529 120.71 90.1819 121.186 90.3751 121.721C90.3882 121.761 90.3851 121.804 90.3662 121.842C90.3474 121.88 90.3145 121.908 90.2746 121.922L90.2226 121.929Z" fill="#FAFAFA"/>
<path d="M82.0205 123.72C82.0205 125.474 83.6596 126.732 86.1788 126.759L89.7653 125.321C89.7653 121.603 87.2496 120.342 87.2496 120.342C87.2496 120.342 82.0205 121.95 82.0205 123.72Z" fill="#EBEBEB"/>
<path d="M97.0146 122.792C96.4012 123.266 95.0983 123.997 92.8043 124.098C91.9969 124.133 88.7811 126.177 86.1025 126.177C84.2659 126.177 82.866 125.553 82.166 124.559C82.62 125.872 84.1308 126.745 86.255 126.745C88.8158 126.745 91.8929 124.774 92.6622 124.739C94.8557 124.645 96.0997 123.949 96.6888 123.495C96.8108 123.4 96.9106 123.279 96.9812 123.142C97.0519 123.004 97.0916 122.853 97.0977 122.698C97.0723 122.731 97.0445 122.762 97.0146 122.792Z" fill="#263238"/>
<path d="M92.4924 67.1746C92.4924 67.1746 92.9949 71.4507 96.273 73.71L99.1665 88.2189L101.024 70.0784L92.4924 67.1746Z" fill="#263238"/>
<path d="M111.325 112.155L105.856 112.582L106.722 123.655L112.191 123.227L111.325 112.155Z" fill="#FDEDE0"/>
<path d="M109.223 64.981C109.223 64.981 109.884 67.4864 110.203 77.8232C110.46 86.015 110.65 90.7277 110.72 92.3287C110.736 92.7272 110.779 93.1243 110.848 93.5173C111.521 97.6483 111.972 101.813 112.199 105.992C112.667 113.962 112.705 117.736 112.705 117.736C112.705 117.736 109.323 120.38 105.241 118.304L101.291 94.5534L97.1323 72.511C97.1323 72.511 91.432 70.3383 90.9296 64.541L109.223 64.981Z" fill="#37474F"/>
<path d="M111.995 120.688L112.081 121.769C112.081 121.769 111.43 122.684 110.661 122.951C110.661 122.951 110.071 120.799 109.028 120.688C107.985 120.577 105.82 120.48 106.111 121.679C106.273 122.304 106.374 122.944 106.412 123.589L104.402 127.335C104.402 127.335 100.324 130.848 102.029 133.087C103.734 135.325 109.455 134.126 110.02 130.613C110.11 130.083 110.309 129.578 110.603 129.129C110.898 128.68 111.282 128.297 111.731 128.003C112.1 127.771 112.39 127.432 112.564 127.033C112.738 126.633 112.787 126.19 112.705 125.761C112.601 124.957 112.359 123.412 112.431 122.715C112.504 122.019 112.698 120.699 111.995 120.688Z" fill="#37474F"/>
<path d="M102.029 133.087C103.446 134.948 107.625 134.438 109.33 132.2C109.405 131.836 109.442 131.466 109.441 131.094C109.441 127.092 104.402 127.334 104.402 127.334C104.402 127.334 100.324 130.848 102.029 133.087Z" fill="#EBEBEB"/>
<path d="M112.705 125.761C112.705 125.702 112.688 125.633 112.677 125.564C112.638 125.884 112.527 126.191 112.352 126.462C112.178 126.734 111.944 126.962 111.669 127.13C111.205 127.434 110.808 127.831 110.504 128.295C110.2 128.76 109.995 129.282 109.902 129.829C109.327 133.426 103.54 134.681 101.703 132.46C101.774 132.686 101.884 132.899 102.029 133.087C103.734 135.329 109.455 134.126 110.02 130.613C110.11 130.083 110.309 129.578 110.603 129.129C110.898 128.68 111.282 128.297 111.731 128.003C112.1 127.771 112.39 127.432 112.564 127.033C112.738 126.633 112.787 126.19 112.705 125.761Z" fill="#263238"/>
<path d="M109.375 124.424C109.334 124.424 109.294 124.409 109.264 124.382C108.044 123.228 106.429 123.751 106.412 123.758C106.392 123.767 106.37 123.771 106.348 123.771C106.326 123.771 106.304 123.766 106.284 123.757C106.264 123.748 106.246 123.735 106.232 123.719C106.217 123.702 106.206 123.683 106.199 123.662C106.192 123.641 106.189 123.619 106.191 123.597C106.193 123.575 106.2 123.554 106.21 123.535C106.221 123.515 106.235 123.499 106.253 123.485C106.27 123.472 106.29 123.462 106.312 123.457C106.855 123.288 107.433 123.263 107.989 123.384C108.545 123.506 109.059 123.769 109.482 124.15C109.498 124.165 109.51 124.182 109.518 124.201C109.526 124.221 109.53 124.242 109.53 124.263C109.53 124.284 109.526 124.304 109.518 124.324C109.51 124.343 109.498 124.361 109.482 124.375C109.454 124.404 109.416 124.422 109.375 124.424Z" fill="#FAFAFA"/>
<path d="M108.675 125.813C108.635 125.813 108.597 125.798 108.568 125.772C107.348 124.618 105.733 125.141 105.716 125.148C105.675 125.161 105.631 125.158 105.593 125.139C105.555 125.12 105.526 125.086 105.513 125.046C105.5 125.005 105.503 124.961 105.522 124.923C105.541 124.885 105.575 124.856 105.615 124.843C106.159 124.675 106.736 124.651 107.292 124.773C107.847 124.894 108.362 125.157 108.786 125.536C108.815 125.566 108.831 125.607 108.831 125.649C108.831 125.691 108.815 125.731 108.786 125.761C108.757 125.792 108.717 125.811 108.675 125.813Z" fill="#FAFAFA"/>
<path d="M107.979 127.203C107.939 127.203 107.901 127.188 107.871 127.161C106.651 126.007 105.037 126.531 105.019 126.538C104.979 126.551 104.935 126.548 104.897 126.528C104.859 126.509 104.83 126.476 104.817 126.435C104.803 126.395 104.807 126.351 104.826 126.313C104.845 126.275 104.878 126.246 104.919 126.233C105.462 126.064 106.04 126.039 106.596 126.161C107.151 126.282 107.666 126.546 108.089 126.926C108.118 126.956 108.135 126.996 108.135 127.038C108.135 127.08 108.118 127.121 108.089 127.151C108.06 127.181 108.021 127.2 107.979 127.203Z" fill="#FAFAFA"/>
<path d="M72.9172 20.1409C72.5875 18.7427 72.3559 17.3231 72.2241 15.8925C72.141 14.2188 71.6559 13.6332 70.6336 14.4718C69.6114 15.3104 67.2827 17.743 67.4213 19.6385C67.5347 21.7388 68.2031 23.7716 69.3584 25.5294L72.3385 26.4303L73.5305 23.9839L72.9172 20.1409Z" fill="#FDEDE0"/>
<path d="M85.8356 35.2909L79.865 33.9706C79.865 33.9706 77.3216 29.8504 75.8488 27.6777C74.3761 25.505 73.541 24.0011 73.541 24.0011L70.7688 23.1591L69.355 25.5466C69.355 25.5466 74.0019 37.0962 76.1572 39.061C77.2419 40.0382 84.2486 42.2075 84.2486 42.2075C84.2486 42.2075 87.1905 39.1026 85.8356 35.2909Z" fill="#FDEDE0"/>
<path d="M93.3622 36.9126L85.8357 35.2909C85.7334 37.6681 85.2004 40.0069 84.2625 42.1936L91.8236 44.5361L93.3622 36.9126Z" fill="#468077"/>
<path opacity="0.3" d="M93.3622 36.9126L85.8357 35.2909C85.7334 37.6681 85.2004 40.0069 84.2625 42.1936L91.8236 44.5361L93.3622 36.9126Z" fill="white"/>
<path d="M103.803 37.8171L107.303 38.919L109.223 49.2732L108.086 54.2943C107.93 54.9762 107.901 55.6809 107.999 56.3734L109.223 64.9811C109.223 64.9811 105.757 67.1919 99.3848 67.1919C93.0122 67.1919 89.3148 64.5479 89.3148 64.5479L89.7965 45.0109C89.9761 41.9714 91.2415 39.0975 93.3622 36.9127L97.7042 37.4151L103.803 37.8171Z" fill="#468077"/>
<path d="M92.7696 21.3815C92.7696 21.3815 89.4256 24.3165 92.3329 30.8589L95.7323 22.0121L92.7696 21.3815Z" fill="#263238"/>
<path d="M103.803 37.8171L99.5892 39.172L97.7041 37.4151V29.5178H103.803V37.8171Z" fill="#FDEDE0"/>
<path d="M97.7041 36.9127C99.7625 36.9127 102.902 35.0795 102.902 33.7939L103.595 29.5074H97.7041V36.9127Z" fill="#703838"/>
<path d="M99.3258 19.5865C97.2744 19.5865 92.9117 20.7301 92.3954 26.0977C91.879 31.4654 92.6795 36.036 95.1502 36.036C100.002 36.036 104.666 35.4192 104.704 27.4769C104.745 20.4529 101.329 19.5865 99.3258 19.5865Z" fill="#FDEDE0"/>
<path d="M103.803 32.1653L103.013 29.7396C102.954 29.7895 102.881 29.8216 102.804 29.832C102.728 29.8424 102.649 29.8308 102.579 29.7985C102.508 29.7661 102.449 29.7144 102.406 29.6494C102.364 29.5844 102.341 29.5087 102.341 29.4312V25.0996C102.341 25.0996 100.324 24.5279 100.539 22.8299C100.539 22.8299 99.4991 23.7551 95.5452 23.7551C91.5914 23.7551 90.6246 20.3973 91.0196 18.5469C91.0196 18.5469 91.7543 19.3058 93.8473 19.3058C95.9403 19.3058 104.655 16.6756 104.881 21.9393C104.881 21.9393 105.615 20.8617 106.804 21.9393L105.276 22.8472C105.276 22.8472 107.088 22.7918 106.804 25.4496C106.62 27.1822 105.979 30.2628 105.563 32.1514C105.331 33.2066 104.7 34.1314 103.803 34.733V32.1653Z" fill="#263238"/>
<path d="M96.325 27.6951V31.143L94.3048 30.5228L96.325 27.6951Z" fill="#703838"/>
<path d="M99.5338 28.2496C99.5331 28.3769 99.4947 28.5012 99.4235 28.6067C99.3523 28.7122 99.2514 28.7943 99.1335 28.8426C99.0157 28.8908 98.8862 28.9031 98.7614 28.8778C98.6366 28.8526 98.5221 28.7909 98.4323 28.7006C98.3425 28.6104 98.2815 28.4955 98.2569 28.3706C98.2323 28.2456 98.2453 28.1162 98.2941 27.9987C98.343 27.8811 98.4256 27.7806 98.5316 27.71C98.6375 27.6393 98.762 27.6016 98.8893 27.6016C98.9742 27.6016 99.0583 27.6183 99.1367 27.651C99.2152 27.6836 99.2864 27.7313 99.3463 27.7916C99.4062 27.8518 99.4536 27.9232 99.4857 28.0018C99.5179 28.0804 99.5343 28.1646 99.5338 28.2496Z" fill="#263238"/>
<path d="M94.7067 27.7921C94.7067 27.9196 94.6689 28.0442 94.598 28.1502C94.5272 28.2562 94.4266 28.3388 94.3088 28.3876C94.191 28.4364 94.0614 28.4491 93.9364 28.4243C93.8114 28.3994 93.6965 28.338 93.6064 28.2479C93.5162 28.1577 93.4549 28.0429 93.43 27.9179C93.4051 27.7928 93.4179 27.6632 93.4667 27.5455C93.5154 27.4277 93.5981 27.327 93.7041 27.2562C93.81 27.1854 93.9347 27.1476 94.0621 27.1476C94.2331 27.1476 94.397 27.2155 94.5179 27.3364C94.6388 27.4572 94.7067 27.6212 94.7067 27.7921Z" fill="#263238"/>
<path d="M93.2755 26.4477L94.5369 25.6992C94.5369 25.6992 94.0517 25.1967 93.5701 25.4982C93.0884 25.7997 93.2755 26.4477 93.2755 26.4477Z" fill="#263238"/>
<path d="M100.202 26.9155L98.9376 26.1705C98.9376 26.1705 99.4228 25.668 99.9044 25.9695C100.386 26.271 100.202 26.9155 100.202 26.9155Z" fill="#263238"/>
<path d="M96.4878 32.7994C96.4878 32.7994 97.4234 32.2 98.3244 31.5242C98.3244 31.5242 98.8476 32.543 98.0229 33.0697C97.1982 33.5964 96.4878 32.7994 96.4878 32.7994Z" fill="#703838"/>
<path d="M102.957 29.7743L105.189 27.3555L103.585 26.3922L102.957 29.7743Z" fill="#253239"/>
<path d="M103.325 28.8318C102.594 30.1 102.784 31.6386 103.803 32.1653C104.458 32.5118 106.391 31.7737 107.123 30.5055C107.854 29.2372 107.445 28.1526 106.45 27.5808C105.456 27.009 104.056 27.5565 103.325 28.8318Z" fill="#FDEDE0"/>
<path d="M97.7041 37.4151L96.8724 38.7354C96.712 38.9894 96.6069 39.2744 96.5639 39.5717C96.521 39.8691 96.5412 40.1722 96.6233 40.4612C96.7054 40.7502 96.8474 41.0187 97.0402 41.2492C97.233 41.4796 97.4722 41.6668 97.7422 41.7986C98.233 42.0374 98.7682 42.1709 99.3135 42.1906C99.8589 42.2104 100.402 42.1159 100.909 41.9133C101.416 41.7107 101.875 41.4044 102.256 41.0141C102.637 40.6237 102.933 40.158 103.124 39.6467L103.817 37.8171L100.767 36.7255L97.7041 37.4151Z" fill="#FDEDE0"/>
<path d="M73.541 24.0013C73.541 24.0013 74.5598 22.4488 74.5425 20.9761C74.5251 19.5034 74.7088 18.8207 74.9618 18.4673C75.2147 18.1138 74.9306 17.5975 74.2514 17.7742C73.6762 17.9302 72.9658 18.8138 72.8098 19.6281C72.7871 19.7577 72.7358 19.8805 72.6596 19.9878C72.5835 20.0951 72.4845 20.1841 72.3698 20.2484C71.6525 20.633 70.3149 21.735 70.949 24.4067L73.541 24.0013Z" fill="#FDEDE0"/>
<path d="M70.8174 22.5873C70.7857 22.5822 70.7574 22.5648 70.7385 22.5388C70.7197 22.5128 70.7119 22.4804 70.7169 22.4487C70.7835 21.9666 70.9628 21.507 71.2404 21.1072C71.518 20.7074 71.8859 20.3787 72.3144 20.1478C72.4146 20.094 72.5011 20.018 72.5672 19.9254C72.6333 19.8329 72.6772 19.7264 72.6956 19.6142C72.7023 19.5831 72.7209 19.5558 72.7475 19.5383C72.774 19.5208 72.8064 19.5144 72.8377 19.5206C72.8529 19.5235 72.8675 19.5294 72.8805 19.538C72.8934 19.5465 72.9046 19.5575 72.9133 19.5704C72.922 19.5833 72.9281 19.5978 72.9311 19.613C72.9342 19.6283 72.9342 19.644 72.9312 19.6592C72.9048 19.805 72.846 19.943 72.759 20.063C72.672 20.183 72.5591 20.2818 72.4288 20.3523C72.0324 20.5655 71.6921 20.8694 71.4356 21.2391C71.1791 21.6089 71.0135 22.034 70.9526 22.4799C70.9513 22.4961 70.9468 22.5118 70.9392 22.5261C70.9316 22.5404 70.9211 22.553 70.9084 22.5631C70.8957 22.5732 70.8811 22.5805 70.8654 22.5847C70.8498 22.5889 70.8334 22.5898 70.8174 22.5873Z" fill="#703838"/>
<path d="M107.816 51.685L109.354 54.9284L117.252 58.0541L114.067 48.4034L107.816 51.685Z" fill="#FDEDE0"/>
<path d="M106.835 38.7735C106.835 38.7735 104.201 41.4798 105.342 45.2951C105.983 47.4915 106.811 49.6292 107.816 51.685C107.816 51.685 112.255 51.8166 114.053 48.4034L111.79 42.6927C111.433 41.7948 110.872 40.9929 110.15 40.3509C109.428 39.7089 108.565 39.2447 107.632 38.9953L106.835 38.7735Z" fill="#468077"/>
<path opacity="0.3" d="M106.835 38.7735C106.835 38.7735 104.201 41.4798 105.342 45.2951C105.983 47.4915 106.811 49.6292 107.816 51.685C107.816 51.685 112.255 51.8166 114.053 48.4034L111.79 42.6927C111.433 41.7948 110.872 40.9929 110.15 40.3509C109.428 39.7089 108.565 39.2447 107.632 38.9953L106.835 38.7735Z" fill="white"/>
<path d="M108.911 54.3255C110.907 54.9111 116.791 56.6542 116.791 56.6542C116.791 56.6542 116.836 56.7824 117.252 58.0402C117.889 59.9981 115.865 64.7351 108.699 61.2976C101.533 57.8601 98.917 56.02 98.917 56.02L99.6967 51.6711C99.6967 51.6711 106.634 53.6567 108.911 54.3255Z" fill="#FDEDE0"/>
<path d="M109.122 54.426L112.833 55.4967L108.679 53.4904L109.122 54.426Z" fill="#703838"/>
<path d="M98.5878 57.9847L93.9305 57.4892C93.7636 57.4722 93.6058 57.4047 93.4783 57.2957C93.3508 57.1868 93.2595 57.0415 93.2166 56.8793L90.6731 47.3083C90.6556 47.2429 90.6537 47.1742 90.6678 47.1079C90.6818 47.0417 90.7113 46.9796 90.7539 46.9269C90.7964 46.8742 90.8509 46.8323 90.9127 46.8046C90.9746 46.777 91.0421 46.7643 91.1098 46.7678L95.6146 46.9791C95.7821 46.986 95.943 47.0461 96.0739 47.1509C96.2048 47.2556 96.2988 47.3994 96.3423 47.5613L99.0521 57.4476C99.0692 57.5152 99.0697 57.5859 99.0537 57.6537C99.0376 57.7215 99.0054 57.7844 98.9598 57.8371C98.9143 57.8899 98.8566 57.9308 98.7919 57.9565C98.7271 57.9822 98.6571 57.9919 98.5878 57.9847Z" fill="#37474F"/>
<path d="M92.4924 48.1712C92.4924 48.2509 92.4687 48.3287 92.4244 48.3949C92.3801 48.4611 92.3171 48.5126 92.2435 48.5429C92.1698 48.5732 92.0888 48.581 92.0107 48.5652C91.9327 48.5494 91.8611 48.5108 91.805 48.4542C91.7489 48.3976 91.7109 48.3257 91.6958 48.2475C91.6807 48.1693 91.6891 48.0883 91.7201 48.015C91.751 47.9416 91.8031 47.879 91.8697 47.8353C91.9362 47.7915 92.0143 47.7686 92.0939 47.7692C92.1999 47.7702 92.3013 47.8129 92.3759 47.8882C92.4505 47.9635 92.4924 48.0652 92.4924 48.1712Z" fill="#263238"/>
<path d="M99.6966 51.685C99.6966 51.685 98.3486 49.3425 96.6749 48.7742L97.3437 51.3488C97.3437 51.3488 96.072 51.4493 94.6339 51.4493C93.1958 51.4493 91.6226 50.4791 91.1687 50.2296C90.7147 49.9801 90.292 51.7196 92.1008 54.9977C93.9097 58.2758 98.9308 56.0373 98.9308 56.0373L99.6966 51.685Z" fill="#FDEDE0"/>
<path d="M120.044 4.55779L122.553 5.98547V5.09837C122.553 5.03599 122.553 4.97015 122.553 4.91125C122.553 4.85234 122.553 4.78996 122.553 4.73105V4.71026C122.643 3.53208 123.534 3.0816 124.632 3.70881C125.125 4.01239 125.547 4.41762 125.87 4.89738C126.116 3.29991 127.419 2.72122 128.988 3.63257C130.735 4.64096 132.152 7.11167 132.152 9.12151V11.0239C132.153 11.1746 132.193 11.3224 132.269 11.453C132.344 11.5836 132.452 11.6924 132.582 11.7689L134.054 12.6318C134.372 12.8213 134.635 13.0903 134.818 13.4124C135 13.7344 135.095 14.0983 135.094 14.4684C135.093 14.6221 135.052 14.7729 134.975 14.9057C134.897 15.0386 134.787 15.1489 134.653 15.2256C134.52 15.3024 134.369 15.3429 134.215 15.3432C134.062 15.3435 133.911 15.3035 133.777 15.2273L120.083 7.30572C119.718 7.09488 119.416 6.79165 119.206 6.42662C118.996 6.06158 118.886 5.64766 118.887 5.22658C118.888 5.09163 118.925 4.95935 118.993 4.84278C119.061 4.72621 119.158 4.62939 119.275 4.56187C119.392 4.49435 119.524 4.45846 119.659 4.45774C119.794 4.45703 119.927 4.49151 120.044 4.55779Z" fill="#E6E6E6"/>
<path d="M130.918 20.5152L132.772 21.5548V20.9137C132.772 20.8652 132.772 20.8202 132.772 20.7751C132.772 20.7301 132.772 20.685 132.772 20.64C132.838 19.7702 133.497 19.4375 134.3 19.9019C134.665 20.1247 134.977 20.4238 135.215 20.7786C135.395 19.5969 136.359 19.1707 137.527 19.843C138.208 20.2891 138.775 20.8891 139.182 21.5945C139.589 22.2999 139.824 23.0911 139.869 23.9042V25.3111C139.869 25.4224 139.899 25.5318 139.954 25.6284C140.009 25.725 140.089 25.8055 140.184 25.8621L141.276 26.4997C141.512 26.639 141.708 26.8376 141.844 27.0758C141.981 27.314 142.052 27.5837 142.052 27.8581C142.052 27.9716 142.022 28.0831 141.965 28.1813C141.909 28.2796 141.827 28.3613 141.729 28.4181C141.63 28.475 141.519 28.505 141.406 28.5052C141.292 28.5055 141.18 28.4759 141.082 28.4194L130.946 22.5459C130.679 22.3893 130.458 22.1655 130.305 21.8967C130.152 21.6279 130.072 21.3236 130.073 21.0142C130.073 20.9153 130.1 20.8182 130.149 20.7324C130.198 20.6466 130.269 20.5751 130.354 20.5248C130.439 20.4745 130.536 20.4472 130.635 20.4455C130.734 20.4438 130.832 20.4679 130.918 20.5152Z" fill="#E6E6E6"/>
</svg>
