<svg width="62" height="62" viewBox="0 0 62 62" fill="none" xmlns="http://www.w3.org/2000/svg">
<g clip-path="url(#clip0_711_9)">
<path d="M30.9999 1.03125C14.45 1.03125 1.0332 14.448 1.0332 30.9979C1.0332 38.2643 3.62067 44.9252 7.92244 50.1135C9.92607 41.9533 16.1488 35.4681 24.1396 33.0584C20.8019 30.8357 18.5999 27.0423 18.5999 22.7312C18.5999 15.8833 24.152 10.3312 30.9999 10.3312C37.8478 10.3312 43.3999 15.8833 43.3999 22.7312C43.3999 27.0423 41.1978 30.8357 37.8591 33.0584C45.8499 35.4681 52.0726 41.9533 54.0763 50.1135C58.3791 44.9252 60.9665 38.2643 60.9665 30.9979C60.9665 14.448 47.5497 1.03125 30.9999 1.03125Z" fill="#F0F0F0"/>
<path d="M37.8595 33.0631C41.1982 30.8404 43.4002 27.047 43.4002 22.7359C43.4002 15.888 37.8481 10.3359 31.0002 10.3359C24.1523 10.3359 18.6002 15.888 18.6002 22.7359C18.6002 27.047 20.8023 30.8404 24.141 33.0631C16.1502 35.4728 9.92746 41.958 7.92383 50.1182C7.92383 50.1182 7.92383 50.1193 7.92486 50.1193C8.25237 50.5128 8.58968 50.898 8.93649 51.2745C9.02019 51.3665 9.10803 51.4543 9.19379 51.5442C9.45961 51.8276 9.73074 52.106 10.007 52.3792C10.1217 52.4918 10.2385 52.6003 10.3553 52.7109C10.6111 52.9552 10.8712 53.1949 11.1354 53.4301C11.2667 53.5458 11.4 53.6605 11.5322 53.7742C11.7916 53.9963 12.0541 54.2144 12.3217 54.4272C12.4622 54.5399 12.6038 54.6504 12.7454 54.761C13.0161 54.9693 13.2907 55.1725 13.5689 55.3707C13.7126 55.473 13.8541 55.5773 13.9998 55.6776C14.2933 55.8801 14.5919 56.0744 14.8926 56.2666C15.028 56.3523 15.1603 56.4412 15.2967 56.5259C15.6449 56.7393 15.9973 56.9456 16.3538 57.1449C16.4478 57.1976 16.5398 57.2544 16.6348 57.3061C17.0965 57.5592 17.5648 57.8 18.0391 58.0284C18.0505 58.0336 18.0629 58.0387 18.0743 58.0439C18.5279 58.2609 18.9888 58.4665 19.4548 58.6608C19.5995 58.7218 19.7472 58.7755 19.8929 58.8334C20.2298 58.9677 20.5667 59.1 20.9097 59.2219C21.0916 59.287 21.2755 59.3459 21.4584 59.4079C21.7705 59.5133 22.0846 59.6156 22.4008 59.7096C22.6013 59.7696 22.8028 59.8254 23.0053 59.8812C23.3112 59.9659 23.6191 60.0465 23.9302 60.1219C24.4501 60.248 24.9735 60.3593 25.4998 60.4557C25.7127 60.495 25.9245 60.5353 26.1394 60.5694C26.4639 60.6221 26.7904 60.6665 27.118 60.7089C27.3247 60.7357 27.5303 60.7657 27.738 60.7874C28.0997 60.8267 28.4644 60.8546 28.8292 60.8804C29.0059 60.8928 29.1805 60.9114 29.3572 60.9207C29.9018 60.9517 30.4484 60.9693 31.0002 60.9693C31.552 60.9693 32.0987 60.9517 32.6432 60.9228C32.8199 60.9135 32.9956 60.8949 33.1713 60.8825C33.5371 60.8566 33.9018 60.8287 34.2625 60.7895C34.4702 60.7667 34.6758 60.7378 34.8825 60.7109C35.21 60.6686 35.5366 60.6241 35.861 60.5714C36.0749 60.5363 36.2878 60.497 36.5007 60.4578C37.027 60.3616 37.5504 60.2503 38.0703 60.124C38.3803 60.0486 38.6882 59.968 38.9951 59.8832C39.1966 59.8274 39.3992 59.7716 39.5996 59.7117C39.9169 59.6166 40.23 59.5143 40.542 59.41C40.7249 59.348 40.9099 59.2891 41.0907 59.224C41.4319 59.1003 41.7708 58.9708 42.1075 58.8354C42.2532 58.7776 42.401 58.7228 42.5457 58.6629C43.009 58.4697 43.4672 58.2647 43.92 58.048C43.9334 58.0418 43.9479 58.0356 43.9613 58.0294C44.4367 57.8011 44.9048 57.5593 45.3656 57.3071C45.4607 57.2555 45.5527 57.1986 45.6467 57.1459C46.0031 56.9467 46.3556 56.7403 46.7038 56.527C46.8402 56.4433 46.9735 56.3544 47.1078 56.2676C47.4085 56.0754 47.7072 55.8801 48.0006 55.6786C48.1453 55.5784 48.2879 55.475 48.4315 55.3717C48.7093 55.1729 48.9838 54.9696 49.2551 54.762C49.3975 54.6522 49.5387 54.541 49.6788 54.4283C49.9457 54.2151 50.2088 53.9974 50.4682 53.7752C50.6015 53.6615 50.7348 53.5468 50.865 53.4311C51.1293 53.196 51.3894 52.9562 51.6452 52.7119C51.7609 52.6013 51.8787 52.4918 51.9934 52.3802C52.27 52.1073 52.5411 51.8289 52.8067 51.5453C52.8914 51.4543 52.9792 51.3665 53.064 51.2756C53.4101 50.8984 53.7491 50.514 54.0756 50.1203C54.0756 50.1203 54.0756 50.1193 54.0766 50.1193C52.074 41.958 45.8513 35.4718 37.8595 33.0631Z" fill="#D1D1D1"/>
<path d="M31 0C13.9066 0 0 13.9066 0 31C0 38.4865 2.66807 45.3613 7.10313 50.7243C7.1145 50.7398 7.11553 50.7594 7.12793 50.7739C10.3302 54.6354 14.352 57.5959 18.8335 59.5086C18.8852 59.5303 18.9358 59.5541 18.9875 59.5758C19.3502 59.7287 19.717 59.8703 20.0849 60.0088C20.2296 60.0635 20.3742 60.1193 20.521 60.172C20.8382 60.2857 21.1575 60.3932 21.4789 60.4965C21.6845 60.5626 21.8901 60.6277 22.0978 60.6897C22.382 60.7745 22.6672 60.8561 22.9545 60.9336C23.2066 61.0018 23.4608 61.0648 23.715 61.1258C23.9723 61.1878 24.2306 61.2498 24.49 61.3046C24.7793 61.3666 25.0718 61.4213 25.3652 61.4751C25.6008 61.5185 25.8354 61.5639 26.0731 61.6022C26.3986 61.6549 26.7261 61.6962 27.0547 61.7386C27.2666 61.7654 27.4774 61.7964 27.6902 61.8192C28.0622 61.8584 28.4373 61.8863 28.8135 61.9122C28.9881 61.9246 29.1617 61.9432 29.3374 61.9525C29.8861 61.9835 30.441 62 31 62C31.559 62 32.1139 61.9835 32.6647 61.9545C32.8404 61.9452 33.014 61.9266 33.1886 61.9142C33.5647 61.8874 33.9398 61.8605 34.3118 61.8212C34.5247 61.7985 34.7355 61.7675 34.9473 61.7406C35.2759 61.6983 35.6035 61.6569 35.929 61.6042C36.1656 61.566 36.4012 61.5205 36.6368 61.4771C36.9293 61.4234 37.2217 61.3686 37.5121 61.3066C37.7714 61.2508 38.0287 61.1899 38.2871 61.1279C38.5413 61.0659 38.7955 61.0028 39.0476 60.9357C39.5431 60.8026 40.0351 60.6568 40.5232 60.4986C40.8446 60.3952 41.1639 60.2878 41.4811 60.1741C41.6268 60.1214 41.7715 60.0656 41.9172 60.0108C42.2856 59.8734 42.6515 59.729 43.0146 59.5779C43.0662 59.5562 43.1169 59.5324 43.1685 59.5107C47.7104 57.573 51.7236 54.5783 54.8741 50.7759C54.8865 50.7615 54.8876 50.7408 54.8989 50.7263C59.3319 45.3613 62 38.4865 62 31C62 13.9066 48.0934 0 31 0ZM37.1835 32.2576C36.7776 32.5212 36.3548 32.7577 35.9176 32.9654C35.866 32.9902 35.8153 33.016 35.7637 33.0398C32.7711 34.4007 29.2289 34.4007 26.2363 33.0398C26.1847 33.016 26.133 32.9902 26.0824 32.9654C25.6451 32.7579 25.2222 32.5215 24.8165 32.2576C21.701 30.2281 19.6333 26.7199 19.6333 22.7333C19.6333 16.4662 24.7328 11.3667 31 11.3667C37.2672 11.3667 42.3667 16.4662 42.3667 22.7333C42.3667 26.7199 40.299 30.2281 37.1835 32.2576ZM24.4321 34.44C24.5189 34.4885 24.6047 34.5402 24.6925 34.5867C24.9994 34.7505 25.3127 34.9019 25.6318 35.0403C25.8767 35.1478 26.1299 35.2387 26.382 35.3317C26.4316 35.3493 26.4812 35.3689 26.5308 35.3865C27.932 35.8825 29.4314 36.1667 31 36.1667C32.5686 36.1667 34.068 35.8825 35.4681 35.3865C35.5177 35.3689 35.5673 35.3493 35.6169 35.3317C35.8691 35.2387 36.1222 35.1478 36.3671 35.0403C36.6862 34.9019 36.9996 34.7505 37.3064 34.5867C37.3943 34.5392 37.48 34.4885 37.5668 34.44C37.7146 34.3573 37.8655 34.2788 38.0101 34.1899C45.2848 36.55 50.9382 42.4793 52.9366 49.8335C50.3523 52.8395 47.1675 55.3154 43.5622 57.0607C43.5467 57.0679 43.5323 57.0762 43.5168 57.0834C43.1479 57.2611 42.7728 57.4285 42.3946 57.5918C42.3088 57.628 42.2241 57.6652 42.1383 57.7013C41.8068 57.8397 41.4726 57.9716 41.136 58.0971C40.9956 58.15 40.8548 58.2013 40.7133 58.2511C40.4146 58.3578 40.1142 58.4598 39.8123 58.5569C39.6242 58.6169 39.4351 58.6737 39.246 58.7295C38.9769 58.8107 38.7064 58.8875 38.4348 58.9599C38.2054 59.0209 37.974 59.0767 37.7425 59.1315C37.4997 59.1893 37.2579 59.2482 37.013 59.2999C36.7453 59.3567 36.4756 59.4053 36.207 59.4539C35.9889 59.4942 35.7719 59.5365 35.5518 59.5717C35.2491 59.6192 34.9432 59.6574 34.6384 59.6957C34.4451 59.7205 34.2529 59.7494 34.0576 59.7701C33.7094 59.8073 33.3581 59.831 33.0078 59.8558C32.8517 59.8662 32.6967 59.8837 32.5386 59.892C32.0271 59.9189 31.5146 59.9333 31 59.9333C30.4854 59.9333 29.9729 59.9189 29.4624 59.892C29.3053 59.8837 29.1503 59.8672 28.9933 59.8558C28.6419 59.8321 28.2916 59.8073 27.9434 59.7701C27.7481 59.7494 27.5559 59.7205 27.3627 59.6957C27.0578 59.6574 26.752 59.6192 26.4492 59.5717C26.2291 59.5365 26.0121 59.4942 25.7941 59.4539C25.5244 59.4053 25.2547 59.3557 24.9881 59.2999C24.7432 59.2482 24.5003 59.1893 24.2585 59.1315C24.0271 59.0757 23.7956 59.0209 23.5662 58.9599C23.2944 58.8876 23.0237 58.8091 22.755 58.7295C22.5657 58.674 22.3769 58.6165 22.1888 58.5569C21.8867 58.4599 21.5864 58.358 21.2877 58.2511C20.8078 58.0808 20.3326 57.8975 19.8627 57.7013C19.777 57.6662 19.6933 57.629 19.6075 57.5928C19.2295 57.4314 18.855 57.2619 18.4843 57.0844C18.4689 57.0773 18.4537 57.0697 18.4388 57.0617C14.8335 55.3174 11.6488 52.8416 9.0644 49.8346C11.0618 42.4793 16.7162 36.55 23.9909 34.1909C24.1345 34.2788 24.2844 34.3573 24.4321 34.44ZM54.4866 47.8671C52.1441 40.95 46.7997 35.3596 39.9714 32.704C42.7025 30.2436 44.4333 26.691 44.4333 22.7333C44.4333 15.3264 38.4069 9.3 31 9.3C23.5931 9.3 17.5667 15.3264 17.5667 22.7333C17.5667 26.691 19.2975 30.2436 22.0296 32.704C15.2014 35.3607 9.85697 40.95 7.5144 47.8671C4.09097 43.1148 2.06667 37.2909 2.06667 31C2.06667 15.0464 15.0464 2.06667 31 2.06667C46.9536 2.06667 59.9333 15.0464 59.9333 31C59.9333 37.2909 57.909 43.1148 54.4866 47.8671Z" fill="#F0F0F0"/>
</g>
<defs>
<clipPath id="clip0_711_9">
<rect width="62" height="62" fill="white"/>
</clipPath>
</defs>
</svg>
