<svg width="24" height="24" viewBox="0 0 24 24" fill="none" xmlns="http://www.w3.org/2000/svg">
<path d="M22.3998 3.99999H8.19977L7.27977 0.956395C7.06198 0.247496 6.3142 -0.154047 5.60297 0.055995L3.56577 0.655995C3.34134 0.722376 3.13785 0.845547 2.97496 1.01359L0.679764 3.39079C0.507181 3.57116 0.388088 3.79591 0.335764 4.03999C0.101764 5.11999 -0.544237 9.03519 0.987764 14.1C2.51976 19.1648 5.22777 22.0904 6.02377 22.866C6.20212 23.0411 6.42542 23.1635 6.66897 23.2196L9.90617 23.9664C10.0063 23.9895 10.1086 24.0012 10.2114 24.0012C10.3419 24.0011 10.4717 23.9824 10.597 23.9456L11.7242 23.6132L12.6326 23.3452C12.9784 23.2455 13.2694 23.0106 13.4398 22.6936C13.6095 22.3819 13.6468 22.0151 13.5434 21.6756L13.0366 20H22.3998C23.2834 20 23.9998 19.2836 23.9998 18.4V5.59999C23.9998 4.71634 23.2834 3.99999 22.3998 3.99999ZM16.0998 11.88L23.1506 5.33359C23.1823 5.41887 23.1989 5.50901 23.1998 5.59999V18.4C23.1986 18.4857 23.1836 18.5707 23.1554 18.6516L16.0998 11.88ZM22.3998 4.79999C22.4451 4.80066 22.4904 4.80521 22.535 4.81359L14.1598 12.5872C13.8529 12.8718 13.3786 12.8718 13.0718 12.5872L7.31177 7.25479L7.73617 7.12959C8.08134 7.02925 8.37174 6.79448 8.54217 6.47799C8.71168 6.1665 8.74873 5.7999 8.64497 5.46079L8.44377 4.79999H22.3998ZM6.29337 16.4924C5.46755 15.4814 4.85351 14.3147 4.48777 13.0616C3.97114 11.4826 3.90068 9.79166 4.28417 8.17519C4.29242 8.15339 4.31078 8.13697 4.33337 8.13119L6.41617 7.51719L11.1138 11.8644L6.29337 16.4924ZM12.7334 22.3128C12.664 22.4413 12.5458 22.5365 12.4054 22.5768L11.875 22.7332L10.901 19.51C10.8616 19.3708 10.7502 19.2636 10.6096 19.2298C10.4689 19.196 10.3209 19.2407 10.2226 19.3469C10.1243 19.453 10.0909 19.6039 10.1354 19.7416L11.1098 22.96L10.3714 23.1776C10.2785 23.2052 10.1801 23.2082 10.0858 23.1864L6.84857 22.44C6.74825 22.4165 6.65635 22.3659 6.58297 22.2936C5.82297 21.5516 3.22817 18.7504 1.75336 13.8688C0.278564 8.98719 0.893764 5.23999 1.11736 4.20879C1.13887 4.10983 1.18732 4.01874 1.25736 3.94559L3.55017 1.56959C3.6163 1.50104 3.69895 1.45063 3.79017 1.42319L4.53457 1.20399L5.50857 4.42679C5.55953 4.59561 5.71503 4.71114 5.89137 4.71119C5.93055 4.71139 5.96954 4.70559 6.00697 4.69399C6.21833 4.63009 6.33794 4.407 6.27417 4.19559L5.30337 0.977995L5.82897 0.823195C6.1193 0.735676 6.42598 0.898202 6.51657 1.18759L7.87657 5.69159C7.91833 5.82667 7.90391 5.97288 7.83657 6.09719C7.76701 6.22566 7.64887 6.32089 7.50857 6.36159L6.97777 6.51799L6.82057 5.99799C6.75264 5.7919 6.53277 5.67755 6.32503 5.74028C6.1173 5.80302 5.99747 6.01995 6.05497 6.22919L6.21057 6.74439L4.10737 7.36439C3.81902 7.44865 3.59431 7.67533 3.51256 7.96439C3.09063 9.72545 3.16331 11.5688 3.72257 13.2912C4.21372 15.0394 5.175 16.6194 6.50177 17.8592C6.72738 18.0581 7.03984 18.1262 7.32777 18.0392L9.43617 17.4176L9.59337 17.9376C9.63269 18.0768 9.74413 18.1839 9.88478 18.2178C10.0254 18.2516 10.1734 18.2068 10.2717 18.1007C10.37 17.9946 10.4034 17.8437 10.359 17.706L10.2034 17.1908L10.7286 17.036C11.0189 16.9491 11.3253 17.1114 11.4166 17.4004L12.7766 21.9048C12.8186 22.0408 12.8038 22.188 12.7354 22.3128H12.7334ZM12.7946 19.2L12.1818 17.1716C11.9636 16.4614 11.214 16.0596 10.5018 16.2712L7.10177 17.2736C7.07735 17.2809 7.05091 17.2762 7.03057 17.2608C6.97457 17.2116 6.91057 17.1504 6.83657 17.0808L11.7022 12.4088L12.5278 13.1732C13.1426 13.7401 14.0897 13.7401 14.7046 13.1732L15.5126 12.4228L22.5554 19.1828C22.5042 19.1936 22.4521 19.1994 22.3998 19.2H12.7946Z" fill="#468077"/>
<path d="M10.4 6.40011H16.8C17.0209 6.40011 17.2 6.22102 17.2 6.0001C17.2 5.77919 17.0209 5.6001 16.8 5.6001H10.4C10.1791 5.6001 10 5.77919 10 6.0001C10 6.22102 10.1791 6.40011 10.4 6.40011Z" fill="#468077"/>
<path d="M21.9996 8.80005C21.7787 8.80005 21.5996 8.97913 21.5996 9.20005V14.8C21.5996 15.021 21.7787 15.2 21.9996 15.2C22.2205 15.2 22.3996 15.021 22.3996 14.8V9.20005C22.3996 8.97913 22.2205 8.80005 21.9996 8.80005Z" fill="#468077"/>
</svg>
