<svg width="24" height="25" viewBox="0 0 24 25" fill="none" xmlns="http://www.w3.org/2000/svg">
<path d="M12.001 20.5L9.00098 21.5V13L4.52098 8.072C4.18642 7.70393 4.00103 7.2244 4.00098 6.727V4.5H20.001V6.672C20.0009 7.20239 19.7901 7.71101 19.415 8.086L15.001 12.5V14M19.002 21.5C18.4715 21.5 17.9628 21.2893 17.5877 20.9142C17.2127 20.5391 17.002 20.0304 17.002 19.5C17.002 18.9696 17.2127 18.4609 17.5877 18.0858C17.9628 17.7107 18.4715 17.5 19.002 17.5M19.002 21.5C19.5324 21.5 20.0411 21.2893 20.4162 20.9142C20.7912 20.5391 21.002 20.0304 21.002 19.5C21.002 18.9696 20.7912 18.4609 20.4162 18.0858C20.0411 17.7107 19.5324 17.5 19.002 17.5M19.002 21.5V23M19.002 17.5V16M22.0329 17.75L20.7339 18.5M17.2709 20.5L15.9709 21.25M15.9709 17.75L17.2709 18.5M20.7339 20.5L22.0339 21.25" stroke="#0D0D0D" stroke-width="1.5" stroke-linecap="round" stroke-linejoin="round"/>
</svg>
