<svg width="22" height="24" viewBox="0 0 22 24" fill="none" xmlns="http://www.w3.org/2000/svg">
<path d="M21.3564 3.41438C21.3219 3.21488 21.1699 3.05538 20.9719 3.01138C20.9049 2.99688 14.2314 1.50738 11.2179 0.049875C11.0804 -0.016625 10.9199 -0.016625 10.7824 0.049875C7.76838 1.50738 1.09488 2.99688 1.02788 3.01138C0.829884 3.05538 0.677884 3.21488 0.643384 3.41438C0.636884 3.45088 0.0768844 7.38338 1.21938 12.0529C2.60838 17.7274 5.92138 21.8439 10.8009 23.9589C10.8644 23.9864 10.9319 23.9999 10.9999 23.9999C11.0679 23.9999 11.1354 23.9864 11.1984 23.9589C16.0779 21.8444 19.3909 17.7274 20.7799 12.0529C21.9229 7.38338 21.3629 3.45088 21.3564 3.41438ZM19.8084 11.8154C18.4974 17.1729 15.5339 20.9189 10.9999 22.9534C6.46588 20.9189 3.50238 17.1724 2.19138 11.8154C1.29538 8.15538 1.49588 4.91788 1.59288 3.90938C2.99588 3.58638 8.19138 2.34538 10.9999 1.05238C13.8084 2.34538 19.0039 3.58588 20.4069 3.90888C20.5039 4.91788 20.7044 8.15538 19.8084 11.8154Z" fill="#468077"/>
<path d="M18.617 5.02236C17.5875 4.76736 16.585 4.50186 15.6365 4.23286C15.3695 4.15586 15.094 4.31136 15.019 4.57686C14.944 4.84286 15.0975 5.11936 15.363 5.19436C16.207 5.43386 17.0925 5.67036 18.001 5.89886C18.0025 6.74286 17.957 7.59736 17.865 8.44536C17.835 8.71986 18.0335 8.96686 18.308 8.99686C18.3265 8.99886 18.3445 8.99986 18.363 8.99986C18.615 8.99986 18.832 8.80986 18.8595 8.55386C18.9705 7.53586 19.0165 6.50786 18.997 5.49786C18.9925 5.27186 18.837 5.07636 18.617 5.02236Z" fill="#468077"/>
<path d="M13.75 9.49976H8.25C7.423 9.49976 6.75 10.1728 6.75 10.9998V14.9998C6.75 15.8268 7.423 16.4998 8.25 16.4998H13.75C14.577 16.4998 15.25 15.8268 15.25 14.9998V10.9998C15.25 10.1728 14.577 9.49976 13.75 9.49976ZM14.25 14.9998C14.25 15.2758 14.026 15.4998 13.75 15.4998H8.25C7.974 15.4998 7.75 15.2758 7.75 14.9998V10.9998C7.75 10.7238 7.974 10.4998 8.25 10.4998H13.75C14.026 10.4998 14.25 10.7238 14.25 10.9998V14.9998Z" fill="#468077"/>
<path d="M8.5 8.99976C8.7765 8.99976 9 8.77626 9 8.49976C9 7.39676 9.897 6.49976 11 6.49976C12.103 6.49976 13 7.39676 13 8.49976C13 8.77626 13.2235 8.99976 13.5 8.99976C13.7765 8.99976 14 8.77626 14 8.49976C14 6.84526 12.6545 5.49976 11 5.49976C9.3455 5.49976 8 6.84526 8 8.49976C8 8.77626 8.2235 8.99976 8.5 8.99976Z" fill="#468077"/>
</svg>
