<svg xmlns="http://www.w3.org/2000/svg" version="1.1" xmlns:xlink="http://www.w3.org/1999/xlink" width="52" height="52" x="0" y="0" viewBox="0 0 24 24" style="enable-background:new 0 0 512 512" xml:space="preserve" class=""><g><path d="M17 22c-2.757 0-5-2.243-5-5s2.243-5 5-5 5 2.243 5 5-2.243 5-5 5zm0-9c-2.206 0-4 1.794-4 4s1.794 4 4 4 4-1.794 4-4-1.794-4-4-4z" fill="#000000" opacity="1" data-original="#000000" class=""></path><path d="M23.5 24a.502.502 0 0 1-.354-.146l-3.068-3.068a.5.5 0 0 1 .707-.707l3.068 3.068A.5.5 0 0 1 23.5 24zM9.5 20H5c-1.103 0-2-.897-2-2v-7H1a.99.99 0 0 1-1-1c0-.281.122-.559.326-.742L10.16.133a.5.5 0 0 1 .68 0L14 3.064V1.5a.5.5 0 0 1 .5-.5h3a.5.5 0 0 1 .5.5v5.272l2.681 2.491a1.011 1.011 0 0 1 .102 1.365.5.5 0 1 1-.787-.617C20 10.007 20 10.005 20 10l-2.841-2.644A.5.5 0 0 1 17 6.99V2h-2v2.21a.5.5 0 0 1-.84.366L10.5 1.182 1 9.997 3.5 10a.5.5 0 0 1 .5.5V18c0 .551.448 1 1 1h4.5a.5.5 0 0 1 0 1z" fill="#000000" opacity="1" data-original="#000000" class=""></path></g></svg>