<svg width="24" height="24" viewBox="0 0 24 24" fill="none" xmlns="http://www.w3.org/2000/svg">
<path d="M9.14999 11.1111H3.97307C3.84825 11.1111 3.72855 11.0642 3.64029 10.9809C3.55203 10.8975 3.50244 10.7845 3.50244 10.6666C3.50244 10.5487 3.55203 10.4357 3.64029 10.3523C3.72855 10.269 3.84825 10.2222 3.97307 10.2222H9.14999C9.27481 10.2222 9.39451 10.269 9.48277 10.3523C9.57103 10.4357 9.62062 10.5487 9.62062 10.6666C9.62062 10.7845 9.57103 10.8975 9.48277 10.9809C9.39451 11.0642 9.27481 11.1111 9.14999 11.1111Z" fill="#468077"/>
<path d="M3.97307 8H16.2094C16.3342 8 16.4539 8.04682 16.5422 8.13017C16.6305 8.21352 16.68 8.32657 16.68 8.44444C16.68 8.56232 16.6305 8.67536 16.5422 8.75871C16.4539 8.84206 16.3342 8.88889 16.2094 8.88889H3.97307C3.84825 8.88889 3.72855 8.84206 3.64029 8.75871C3.55203 8.67536 3.50244 8.56232 3.50244 8.44444C3.50244 8.32657 3.55203 8.21352 3.64029 8.13017C3.72855 8.04682 3.84825 8 3.97307 8Z" fill="#468077"/>
<path d="M3.97307 5.77783H16.2094C16.3342 5.77783 16.4539 5.82466 16.5422 5.90801C16.6305 5.99136 16.68 6.1044 16.68 6.22228C16.68 6.34015 16.6305 6.4532 16.5422 6.53655C16.4539 6.6199 16.3342 6.66672 16.2094 6.66672H3.97307C3.84825 6.66672 3.72855 6.6199 3.64029 6.53655C3.55203 6.4532 3.50244 6.34015 3.50244 6.22228C3.50244 6.1044 3.55203 5.99136 3.64029 5.90801C3.72855 5.82466 3.84825 5.77783 3.97307 5.77783Z" fill="#468077"/>
<path d="M3.97307 3.55566H16.2094C16.3342 3.55566 16.4539 3.60249 16.5422 3.68584C16.6305 3.76919 16.68 3.88223 16.68 4.00011C16.68 4.11798 16.6305 4.23103 16.5422 4.31438C16.4539 4.39773 16.3342 4.44455 16.2094 4.44455H3.97307C3.84825 4.44455 3.72855 4.39773 3.64029 4.31438C3.55203 4.23103 3.50244 4.11798 3.50244 4.00011C3.50244 3.88223 3.55203 3.76919 3.64029 3.68584C3.72855 3.60249 3.84825 3.55566 3.97307 3.55566Z" fill="#468077"/>
<path d="M23.1935 10.6711L22.8735 10.9778L22.5346 10.6578L22.8311 10.3778C23.2242 10.0079 23.4546 9.51127 23.4761 8.98762C23.4977 8.46397 23.3088 7.952 22.9473 7.5544C22.5858 7.15679 22.0785 6.90297 21.5271 6.84383C20.9758 6.7847 20.4211 6.92463 19.9744 7.23556V1.33333C19.9733 0.980036 19.8242 0.64151 19.5597 0.39169C19.2951 0.14187 18.9366 0.00105515 18.5625 0H1.61989C1.24578 0.00105515 0.887312 0.14187 0.622774 0.39169C0.358236 0.64151 0.209125 0.980036 0.208008 1.33333V22.6667C0.209125 23.02 0.358236 23.3585 0.622774 23.6083C0.887312 23.8581 1.24578 23.9989 1.61989 24H18.5625C18.9366 23.9989 19.2951 23.8581 19.5597 23.6083C19.8242 23.3585 19.9733 23.02 19.9744 22.6667V14.9733L23.8618 11.3022C23.9504 11.2185 24.0002 11.105 24.0002 10.9867C24.0002 10.8683 23.9504 10.7548 23.8618 10.6711C23.7732 10.5874 23.653 10.5404 23.5277 10.5404C23.4023 10.5404 23.2821 10.5874 23.1935 10.6711ZM19.0332 14.6044L18.4825 15.1244C18.4025 15.1991 18.3537 15.2985 18.345 15.4044C18.3364 15.5104 18.3684 15.6157 18.4354 15.701C18.5023 15.7864 18.5996 15.8461 18.7095 15.8692C18.8193 15.8923 18.9342 15.8772 19.0332 15.8267V22.6667C19.0332 22.7845 18.9836 22.8976 18.8953 22.9809C18.8071 23.0643 18.6874 23.1111 18.5625 23.1111H1.61989C1.49508 23.1111 1.37537 23.0643 1.28711 22.9809C1.19885 22.8976 1.14927 22.7845 1.14927 22.6667V1.33333C1.14927 1.21546 1.19885 1.10241 1.28711 1.01906C1.37537 0.935714 1.49508 0.888889 1.61989 0.888889H18.5625C18.6874 0.888889 18.8071 0.935714 18.8953 1.01906C18.9836 1.10241 19.0332 1.21546 19.0332 1.33333V8.08889C17.0565 9.95556 10.223 16.4089 10.2183 16.4178C10.0851 16.5436 9.98862 16.608 9.95473 16.7778C9.94344 16.8222 9.31468 19.5271 9.31468 19.5733L8.83934 20.0222C8.75072 20.1059 8.70093 20.2194 8.70093 20.3378C8.70093 20.4561 8.75072 20.5696 8.83934 20.6533C8.92796 20.737 9.04816 20.784 9.17349 20.784C9.29882 20.784 9.41901 20.737 9.50763 20.6533L9.98768 20.2C10.0606 20.2 12.874 19.6156 12.9432 19.6C13.1574 19.5524 13.1743 19.5018 13.3291 19.3556L19.0332 13.9644V14.6044ZM10.6324 17.5378L12.1384 18.96C10.5826 19.2858 11.4739 19.1009 10.2136 19.3556C10.4738 18.2058 10.3736 18.6404 10.6324 17.5378ZM13.0232 18.3911L11.2395 16.7067C11.3854 16.5618 18.026 10.2929 18.1766 10.1511L19.9603 11.8356C19.6986 12.0813 13.2444 18.1711 13.0232 18.3911ZM19.9744 13.7156V13.0756C21.5557 11.5822 21.142 11.972 21.8711 11.2889L22.2099 11.6044L19.9744 13.7156ZM22.1628 9.75111C21.3741 10.496 21.7186 10.1698 20.6286 11.2044H20.6239L18.8496 9.52444C19.1231 9.26 18.8571 9.51244 20.3839 8.07111C20.6206 7.85203 20.9393 7.73003 21.2707 7.73161C21.6022 7.73319 21.9195 7.85823 22.1539 8.07955C22.3883 8.30088 22.5207 8.6006 22.5223 8.9136C22.524 9.22659 22.3948 9.52756 22.1628 9.75111Z" fill="#468077"/>
</svg>
